<svg id="layer" xmlns="http://www.w3.org/2000/svg" viewBox="0 0 253.8 389.2"><path d="M236.4,154a12.06,12.06,0,0,0-2.1-2.4,10.24,10.24,0,0,0-2.9-1.6,9.74,9.74,0,0,0-3.4-.6,10.42,10.42,0,0,0-5.5,1.3,10.94,10.94,0,0,0-3.7,3.4,14.75,14.75,0,0,0-2,4.8,25.3,25.3,0,0,0-.6,5.6,24.83,24.83,0,0,0,.6,5.4,15.16,15.16,0,0,0,2,4.7,9.83,9.83,0,0,0,3.7,3.3,11.46,11.46,0,0,0,5.5,1.3,9,9,0,0,0,6.9-2.7,11.83,11.83,0,0,0,3-7.1h9.3a21.79,21.79,0,0,1-1.9,7.4,17.79,17.79,0,0,1-4,5.6,17.44,17.44,0,0,1-5.9,3.5,21.67,21.67,0,0,1-7.4,1.2,23.29,23.29,0,0,1-9-1.7,20.92,20.92,0,0,1-6.8-4.8,21.36,21.36,0,0,1-4.2-7.2,25.58,25.58,0,0,1-1.5-8.9,26.73,26.73,0,0,1,1.5-9.1,22.87,22.87,0,0,1,4.2-7.3,18.87,18.87,0,0,1,6.8-4.9,21.92,21.92,0,0,1,9-1.8,21.52,21.52,0,0,1,6.8,1,18.24,18.24,0,0,1,5.7,3,16.57,16.57,0,0,1,4.2,4.9,18.16,18.16,0,0,1,2.1,6.7h-9.3a7.74,7.74,0,0,0-1.1-3" transform="translate(-204.4 -141.4)" style="fill:#4c4c4b"/><path d="M260.8,178.4a7.61,7.61,0,0,0,5.6,1.9,7.27,7.27,0,0,0,4.5-1.3,5.33,5.33,0,0,0,2.3-2.8h7.6c-1.2,3.8-3.1,6.5-5.6,8.1a16.8,16.8,0,0,1-9.2,2.4,17.78,17.78,0,0,1-6.7-1.2,13.85,13.85,0,0,1-5.1-3.4,14.22,14.22,0,0,1-3.2-5.3,18.13,18.13,0,0,1-1.1-6.7,17.62,17.62,0,0,1,1.2-6.6,16.94,16.94,0,0,1,3.3-5.3,14.08,14.08,0,0,1,5.1-3.5,15.88,15.88,0,0,1,6.6-1.3,14.19,14.19,0,0,1,7,1.6,13.26,13.26,0,0,1,4.9,4.2,18.34,18.34,0,0,1,2.8,6,20.36,20.36,0,0,1,.6,7H258.6c.2,2.9.9,4.9,2.2,6.2m9.9-16.6a6.12,6.12,0,0,0-4.7-1.7,7.55,7.55,0,0,0-3.5.7,9.84,9.84,0,0,0-2.2,1.7,9.41,9.41,0,0,0-1.2,2.2,9.54,9.54,0,0,0-.4,2.1h14.1a10.08,10.08,0,0,0-2.1-5" transform="translate(-204.4 -141.4)" style="fill:#4c4c4b"/><path d="M293.7,154.4v5.9h.1a10,10,0,0,1,4-4.8,15.5,15.5,0,0,1,2.9-1.4,11.27,11.27,0,0,1,3.2-.5,6.8,6.8,0,0,1,1.9.3V162a6.05,6.05,0,0,0-1.5-.2,9.15,9.15,0,0,0-1.6-.1,9.49,9.49,0,0,0-4,.8,7.29,7.29,0,0,0-2.7,2.2,7.14,7.14,0,0,0-1.4,3.2,16.43,16.43,0,0,0-.4,4V186h-8.7V154.4Z" transform="translate(-204.4 -141.4)" style="fill:#4c4c4b"/><path d="M329,154.4v5.8h-6.4v15.7c0,1.5.2,2.4.7,2.9a4.24,4.24,0,0,0,2.9.7,6.15,6.15,0,0,0,1.4-.1,5.85,5.85,0,0,0,1.3-.2v6.7a17.91,17.91,0,0,1-2.4.2c-.9,0-1.8.1-2.6.1a23.4,23.4,0,0,1-3.8-.3,8.1,8.1,0,0,1-3.2-1.1,6.1,6.1,0,0,1-2.2-2.3,8.55,8.55,0,0,1-.8-3.8V160h-5.3v-5.8h5.3v-9.5h8.7v9.5H329Z" transform="translate(-204.4 -141.4)" style="fill:#4c4c4b"/><path d="M333.4,142.3h8.7v7.2h-8.7Zm8.7,43.7h-8.7V154.4h8.7Z" transform="translate(-204.4 -141.4)" style="fill:#4c4c4b"/><path d="M345.7,160.2v-5.8h5.2V152a9.68,9.68,0,0,1,2.6-6.9c1.8-1.8,4.4-2.7,8-2.7a17.7,17.7,0,0,1,2.3.1c.8.1,1.5.1,2.3.2v6.5c-1-.1-2.1-.2-3.2-.2a3.39,3.39,0,0,0-2.5.8,4.07,4.07,0,0,0-.8,2.8v1.9h6v5.8h-6V186h-8.7V160.2Z" transform="translate(-204.4 -141.4)" style="fill:#4c4c4b"/><path d="M370.8,142.3h8.7v7.2h-8.7Zm8.7,43.7h-8.7V154.4h8.7Z" transform="translate(-204.4 -141.4)" style="fill:#4c4c4b"/><path d="M393.2,178.4a7.61,7.61,0,0,0,5.6,1.9,7.27,7.27,0,0,0,4.5-1.3,5.33,5.33,0,0,0,2.3-2.8h7.6c-1.2,3.8-3.1,6.5-5.6,8.1a16.8,16.8,0,0,1-9.2,2.4,17.78,17.78,0,0,1-6.7-1.2,13.85,13.85,0,0,1-5.1-3.4,14.22,14.22,0,0,1-3.2-5.3,18.13,18.13,0,0,1-1.1-6.7,17.62,17.62,0,0,1,1.2-6.6,16.94,16.94,0,0,1,3.3-5.3,14.08,14.08,0,0,1,5.1-3.5,15.88,15.88,0,0,1,6.6-1.3,14.19,14.19,0,0,1,7,1.6,13.26,13.26,0,0,1,4.9,4.2,18.34,18.34,0,0,1,2.8,6,20.36,20.36,0,0,1,.6,7H391c.2,2.9.9,4.9,2.2,6.2m9.8-16.6a6.12,6.12,0,0,0-4.7-1.7,7.55,7.55,0,0,0-3.5.7,8,8,0,0,0-2.2,1.7,6.78,6.78,0,0,0-1.2,2.2,9.54,9.54,0,0,0-.4,2.1h14.1a9.26,9.26,0,0,0-2.1-5" transform="translate(-204.4 -141.4)" style="fill:#4c4c4b"/><path d="M440.2,181.9a9.46,9.46,0,0,1-4,3.7,12.74,12.74,0,0,1-5.6,1.1,13.49,13.49,0,0,1-6.2-1.4,12.28,12.28,0,0,1-4.4-3.7,16.9,16.9,0,0,1-2.6-5.4,22.5,22.5,0,0,1-.9-6.4,20.46,20.46,0,0,1,.9-6.1,16.91,16.91,0,0,1,2.6-5.2,12.92,12.92,0,0,1,4.4-3.6,13.37,13.37,0,0,1,6.1-1.4,11.78,11.78,0,0,1,5.3,1.2,9.72,9.72,0,0,1,4,3.5h.1V142.3h8.7V186h-8.3v-4h-.1Zm-.4-15.6a8.31,8.31,0,0,0-1.3-3.2,6.89,6.89,0,0,0-2.3-2.2,6.27,6.27,0,0,0-3.5-.9,6.87,6.87,0,0,0-3.6.9,6.62,6.62,0,0,0-2.4,2.3,10.23,10.23,0,0,0-1.3,3.2,15.81,15.81,0,0,0-.4,3.8,16.1,16.1,0,0,0,.4,3.7,12.15,12.15,0,0,0,1.4,3.3,6.62,6.62,0,0,0,2.4,2.3,6.51,6.51,0,0,0,3.5.9,6.87,6.87,0,0,0,3.6-.9,6.34,6.34,0,0,0,2.3-2.3,8.67,8.67,0,0,0,1.2-3.3,23.28,23.28,0,0,0,.4-3.8,15.81,15.81,0,0,0-.4-3.8" transform="translate(-204.4 -141.4)" style="fill:#4c4c4b"/><path d="M275.5,257h50.6c12.3,0,28.5,0,36.9,5.1a33.05,33.05,0,0,1,16.4,29.1c0,14.8-7.8,26-20.7,31.3v.4c17.2,3.5,26.6,16.4,26.6,33.6,0,20.5-14.7,40.1-42.4,40.1H275.5Zm18.6,60h37.2c21.1,0,29.7-7.6,29.7-22.3,0-19.4-13.7-22.1-29.7-22.1H294.1Zm0,63.9h46.5c16,0,26.2-9.8,26.2-25,0-18.2-14.7-23.3-30.3-23.3H294.1v48.3Z" transform="translate(-204.4 -141.4)" style="fill:#4c4c4b"/><path d="M432.8,326.8A106.15,106.15,0,1,1,326.6,220.7,106.12,106.12,0,0,1,432.8,326.8M326.7,204.5A122.3,122.3,0,1,0,449,326.8,122.29,122.29,0,0,0,326.7,204.5" transform="translate(-204.4 -141.4)" style="fill:#4c4c4b"/><path d="M227,475.4c-.4-3.1-3.4-5.4-6.8-5.4-6.1,0-8.4,5.2-8.4,10.6,0,5.1,2.3,10.3,8.4,10.3,4.2,0,6.5-2.9,7-6.9h6.6c-.7,7.7-6,12.6-13.6,12.6-9.6,0-15.2-7.1-15.2-16.1,0-9.2,5.6-16.3,15.2-16.3,6.8,0,12.5,4,13.3,11.1H227Z" transform="translate(-204.4 -141.4)" style="fill:#4c4c4b"/><path d="M248,473c7.1,0,11.6,4.7,11.6,11.8s-4.5,11.8-11.6,11.8-11.6-4.7-11.6-11.8S241,473,248,473m0,18.9c4.2,0,5.5-3.6,5.5-7.1s-1.3-7.2-5.5-7.2-5.4,3.6-5.4,7.2,1.3,7.1,5.4,7.1" transform="translate(-204.4 -141.4)" style="fill:#4c4c4b"/><path d="M263.2,473.6H269v4.2h.1a8,8,0,0,1,7.1-4.8,5.85,5.85,0,0,1,1.3.2v5.7a15,15,0,0,0-2.2-.2c-4.5,0-6.1,3.2-6.1,7.2V496h-6.1V473.6Z" transform="translate(-204.4 -141.4)" style="fill:#4c4c4b"/><path d="M280.9,473.6h5.8v2.9h.1a7.49,7.49,0,0,1,6.7-3.5c7,0,10.2,5.7,10.2,12,0,6-3.3,11.6-9.8,11.6a8,8,0,0,1-6.7-3.4H287v10.7h-6.1Zm16.6,11.2c0-3.6-1.4-7.2-5.4-7.2s-5.3,3.6-5.3,7.2,1.4,7.1,5.4,7.1,5.3-3.4,5.3-7.1" transform="translate(-204.4 -141.4)" style="fill:#4c4c4b"/><path d="M318.2,473c7.1,0,11.6,4.7,11.6,11.8s-4.6,11.8-11.6,11.8-11.6-4.7-11.6-11.8,4.6-11.8,11.6-11.8m0,18.9c4.2,0,5.5-3.6,5.5-7.1s-1.3-7.2-5.5-7.2-5.4,3.6-5.4,7.2,1.2,7.1,5.4,7.1" transform="translate(-204.4 -141.4)" style="fill:#4c4c4b"/><path d="M333.9,473.6h5.8v4.2h.1a8,8,0,0,1,7.1-4.8,5.07,5.07,0,0,1,1.3.2v5.7a15,15,0,0,0-2.2-.2c-4.5,0-6.1,3.2-6.1,7.2V496h-6.1V473.6Z" transform="translate(-204.4 -141.4)" style="fill:#4c4c4b"/><path d="M350.5,480.5c.4-5.8,5.5-7.5,10.5-7.5,4.5,0,9.8,1,9.8,6.4V491c0,2,.2,4.1.8,5h-6.2a7.8,7.8,0,0,1-.4-2.2,10.32,10.32,0,0,1-7.5,2.8c-4.2,0-7.6-2.1-7.6-6.7,0-5.1,3.8-6.3,7.6-6.8s7.3-.4,7.3-2.9-1.8-3-4-3-3.9.9-4.1,3.4h-6.2Zm14.2,4.5c-1,.9-3.2,1-5.1,1.3s-3.6,1-3.6,3.3,1.8,2.9,3.8,2.9c4.8,0,5-3.8,5-5.1V485Z" transform="translate(-204.4 -141.4)" style="fill:#4c4c4b"/><path d="M383.4,473.6h4.5v4.1h-4.5v11.1c0,2.1.5,2.6,2.6,2.6a5.84,5.84,0,0,0,1.9-.2V496a20.57,20.57,0,0,1-3.6.2c-3.8,0-7-.9-7-5.3V477.7h-3.7v-4.1h3.7v-6.7h6.1Z" transform="translate(-204.4 -141.4)" style="fill:#4c4c4b"/><path d="M397.1,470.1H391V465h6.1Zm-6.1,3.5h6.1V496H391Z" transform="translate(-204.4 -141.4)" style="fill:#4c4c4b"/><path d="M412,473c7.1,0,11.6,4.7,11.6,11.8S419,496.6,412,496.6s-11.5-4.7-11.5-11.8S405,473,412,473m0,18.9c4.2,0,5.5-3.6,5.5-7.1s-1.2-7.2-5.5-7.2-5.4,3.6-5.4,7.2,1.2,7.1,5.4,7.1" transform="translate(-204.4 -141.4)" style="fill:#4c4c4b"/><path d="M427.5,473.6h5.8v3.1h.1a8,8,0,0,1,6.8-3.7c6.5,0,8.2,3.7,8.2,9.2V496h-6.1V483.4c0-3.7-1.1-5.5-3.9-5.5-3.3,0-4.8,1.9-4.8,6.4V496h-6.1Z" transform="translate(-204.4 -141.4)" style="fill:#4c4c4b"/><rect x="0.5" y="373.6" width="243.7" height="15.6" style="fill:#4c4c4b"/><path d="M452.1,464.1h-1.4V468H450v-3.9h-1.4v-.6h3.6v.6Zm6,3.9h-.7v-3.8h0l-1.5,3.8h-.5l-1.5-3.8h0V468h-.8v-4.5h1.2l1.4,3.4,1.3-3.4h1.2V468Z" transform="translate(-204.4 -141.4)" style="fill:#4c4c4b"/></svg>