<?xml version="1.0" encoding="utf-8"?>
<!-- Generator: Adobe Illustrator 24.2.0, SVG Export Plug-In . SVG Version: 6.00 Build 0)  -->
<svg version="1.1" id="Lag_1" xmlns="http://www.w3.org/2000/svg" xmlns:xlink="http://www.w3.org/1999/xlink" x="0px" y="0px"
	 viewBox="0 0 659 1036" style="enable-background:new 0 0 659 1036;" xml:space="preserve">
<style type="text/css">
	.st0{fill:#FFFFFF;}
	.st1{fill:#4C4C4B;}
	.st2{fill:#F5F5F5;}
	.st3{font-family:'Calibre-Semibold';}
	.st4{font-size:135px;}
	.st5{clip-path:url(#SVGID_2_);}
	.st6{fill:#005293;}
	.st7{fill:#FECB00;}
</style>
<rect y="0" class="st0" width="659" height="1036"/>
<path d="M276.3,951.5V973h-4.5v-9h-9.7v9h-4.5v-21.5h4.5v8.5h9.7v-8.5L276.3,951.5z"/>
<path d="M302,951.5v3.9h-10.2v4.7h9.2v3.9h-9.2v5.1H302v4h-14.6v-21.5L302,951.5z"/>
<path d="M326,951.5h4.7l-7.7,13.3v8.1h-4.4v-8.2l-7.7-13.3h4.9l5.2,9.1L326,951.5z"/>
<path d="M354.8,951.5v3.9h-10.2v4.7h9.2v3.9h-9.2v5.1h10.2v4h-14.6v-21.5L354.8,951.5z"/>
<path d="M369.7,965v8h-4.4v-21.5h8.8c4.5,0,7.5,2.4,7.5,6.8c0.2,3-1.9,5.8-4.9,6.3l5.7,8.3h-5l-5.3-8H369.7z M369.7,961.3h4.1
	c2.2,0,3.4-1.2,3.4-3s-1.2-3-3.4-3h-4.1V961.3z"/>
<rect x="345.8" y="188.9" class="st1" width="254.9" height="73.9"/>
<path class="st0" d="M400,228.6v6.2h-3.7v-17.8h7.2c3.8,0,6.3,2,6.3,5.8s-2.5,5.8-6.3,5.8L400,228.6z M403.3,220.1H400v5.3h3.3
	c1.5,0.1,2.7-1,2.8-2.5c0.1-1.5-1-2.7-2.5-2.8C403.6,220.1,403.4,220.1,403.3,220.1z"/>
<path class="st0" d="M421.8,228.1v6.6h-3.7v-17.8h7.3c3.7,0,6.2,2,6.2,5.7c0.2,2.5-1.6,4.8-4.1,5.2l4.7,6.9h-4.2l-4.4-6.6
	L421.8,228.1z M421.8,225.1h3.4c1.9,0,2.8-1,2.8-2.5s-1-2.5-2.8-2.5h-3.4V225.1z"/>
<path class="st0" d="M444,234.7h-3.7v-17.8h3.7V234.7z"/>
<path class="st0" d="M460.7,235c-5,0-8.4-3.9-8.4-9.2s3.5-9.2,8.4-9.2s8.4,3.9,8.4,9.2S465.7,235,460.7,235z M460.7,219.9
	c-2.8,0-4.6,2.4-4.6,5.9s1.8,5.9,4.6,5.9s4.7-2.4,4.7-5.9S463.5,220,460.7,219.9L460.7,219.9z"/>
<path class="st0" d="M481.2,228.1v6.6h-3.7v-17.8h7.3c3.7,0,6.2,2,6.2,5.7c0.2,2.5-1.6,4.8-4.1,5.2l4.7,6.9h-4.2l-4.4-6.6
	L481.2,228.1z M481.2,225.1h3.4c1.8,0,2.8-1,2.8-2.5s-1-2.5-2.8-2.5h-3.4V225.1z"/>
<path class="st0" d="M503.4,234.7h-3.7v-17.8h3.7V234.7z"/>
<path class="st0" d="M511.6,216.9h15.2v3.2h-5.7v14.6h-3.7v-14.6h-5.7L511.6,216.9z"/>
<path class="st0" d="M546.4,216.9h3.9l-6.5,11.1v6.8h-3.7V228l-6.4-11h4l4.3,7.5L546.4,216.9z"/>
<path class="st1" d="M376.8,298.8v-15.3h9.8v2.3h-7.2v4.5h6.7v2.3h-6.7v6.2L376.8,298.8z"/>
<path class="st1" d="M394.2,283.4h2.6v13h7.4v2.3h-10L394.2,283.4z"/>
<path class="st1" d="M414.4,298.8h-2.6v-15.3h2.6V298.8z"/>
<path class="st1" d="M429.9,293.1v-2.2h5.8v1.2c0,4.2-2.8,7-6.5,7c-4.1,0-7.2-3.2-7.2-7.9s3.1-7.9,7.1-7.9c3.1-0.2,5.8,2,6.3,5h-2.6
	c-0.4-1.7-2-2.8-3.7-2.7c-2.7,0-4.5,2.3-4.5,5.6s1.8,5.6,4.6,5.6c2.1,0.1,3.9-1.5,4-3.6L429.9,293.1z"/>
<path class="st1" d="M456.2,283.4v15.3h-2.6V292h-7.7v6.7h-2.6v-15.3h2.6v6.3h7.7v-6.3H456.2z"/>
<path class="st1" d="M463.7,283.4h12.8v2.3h-5.1v13h-2.6v-13h-5.1V283.4z"/>
<path class="st1" d="M394.4,321.1c0-4.7,2.3-7.9,5.8-7.9s5.8,3.2,5.8,7.9s-2.3,7.9-5.8,7.9S394.4,325.8,394.4,321.1z M396.9,321.1
	c0,3.2,1,5.6,3.3,5.6s3.2-2.4,3.2-5.6s-1-5.6-3.2-5.6S396.9,317.9,396.9,321.1z"/>
<path class="st1" d="M415.4,323.4h4.1v-3.6h2.4v3.6h2.5v2.1h-2.5v3.2h-2.4v-3.2h-6.9v-1.8l5.8-10.4h2.6L415.4,323.4z"/>
<path class="st1" d="M434.9,319.9h0.9c1.5,0,2.6-0.8,2.6-2.2c0-1.2-0.9-2.2-2.1-2.2c-0.1,0-0.2,0-0.2,0c-1.3-0.1-2.5,0.9-2.6,2.3
	c0,0,0,0.1,0,0.1h-2.5c0.2-2.7,2.4-4.7,5.1-4.6c3,0,4.8,1.8,4.8,4.3c0.1,1.4-0.7,2.8-2,3.5c1.4,0.6,2.3,1.9,2.3,3.5
	c0,2.6-1.9,4.6-5.1,4.6s-5.3-2-5.5-4.8h2.5c0.1,1.5,1.3,2.7,2.9,2.6c0,0,0.1,0,0.1,0c1.3,0.1,2.5-0.8,2.6-2.1c0-0.1,0-0.2,0-0.2
	c0-1.5-1.2-2.4-2.8-2.4h-1L434.9,319.9z"/>
<path class="st1" d="M450.5,322.1h-2v-8.6h8.7v2.3h-6.5v3.7c0.8-0.5,1.7-0.8,2.6-0.8c2.9,0,4.8,2.1,4.8,5.2c0.1,2.7-1.9,5-4.7,5.2
	c-0.1,0-0.3,0-0.4,0c-2.8,0.2-5.2-1.9-5.4-4.7c0,0,0-0.1,0-0.1h2.5c0.3,1.5,1.7,2.5,3.3,2.2c1.5-0.3,2.5-1.7,2.2-3.3
	c-0.2-1.3-1.4-2.2-2.7-2.3C452,320.9,451.1,321.3,450.5,322.1z"/>
<path class="st1" d="M509.2,294.5c0.5,1.5,1.9,2.4,3.5,2.3c1.8,0,3-0.9,3-2.3c0-1.1-0.6-1.7-2.2-2.1l-2.6-0.6
	c-2.1-0.5-3.8-1.6-3.8-4.1s2.1-4.5,5.2-4.5c3.3,0,5.3,1.7,5.8,4.2h-2.6c-0.5-1.3-1.8-2.2-3.2-2c-1.7,0-2.8,0.9-2.8,2.1
	c0,1,0.7,1.7,2,2l2.7,0.6c2.4,0.5,4,2,4,4.2c0,2.9-2.3,4.6-5.5,4.6s-5.6-1.6-6.1-4.5L509.2,294.5z"/>
<path class="st1" d="M535.8,283.4v2.3h-7.5v4h6.8v2.3h-6.8v4.4h7.5v2.3h-10v-15.3H535.8z"/>
<path class="st1" d="M550.8,283.4l5.9,15.3H554l-1.6-4.2h-5.9l-1.5,4.2h-2.6l5.9-15.3H550.8z M547.4,292.3h4.2l-2.1-5.7L547.4,292.3
	z"/>
<path class="st1" d="M561.4,283.4h12.8v2.3h-5.1v13h-2.6v-13h-5.1L561.4,283.4z"/>
<path class="st1" d="M526.2,328.8h-2.5v-12.2l-3.6,1.8v-2.6l4.6-2.3h1.5V328.8z"/>
<path class="st1" d="M539.5,328.8h-2.5v-12.2l-3.6,1.8v-2.6l4.6-2.3h1.5V328.8z"/>
<path class="st1" d="M555,313.4l5.9,15.3h-2.7l-1.6-4.2h-5.9l-1.6,4.2h-2.6l5.9-15.3H555z M551.6,322.3h4.2l-2.1-5.7L551.6,322.3z"
	/>
<rect x="202.7" y="57.4" class="st1" width="2.1" height="102.6"/>
<rect x="208.9" y="57.4" class="st1" width="2.1" height="102.6"/>
<rect x="213" y="57.4" class="st1" width="4.1" height="102.6"/>
<rect x="219.1" y="57.4" class="st1" width="4.1" height="102.6"/>
<rect x="225.3" y="57.4" class="st1" width="2.1" height="102.6"/>
<rect x="229.4" y="57.4" class="st1" width="4.1" height="102.6"/>
<rect x="235.5" y="57.4" class="st1" width="2.1" height="102.6"/>
<rect x="239.6" y="57.4" class="st1" width="2.1" height="102.6"/>
<rect x="49.5" y="57" class="st2" width="153" height="921"/>
<rect x="245.8" y="57.4" class="st1" width="2.1" height="102.6"/>
<rect x="249.9" y="57.4" class="st1" width="4.1" height="102.6"/>
<rect x="256.1" y="57.4" class="st1" width="2" height="102.6"/>
<rect x="260.2" y="57.4" class="st1" width="2" height="102.6"/>
<rect x="266.3" y="57.4" class="st1" width="4.1" height="102.6"/>
<rect x="272.5" y="57.4" class="st1" width="2" height="102.6"/>
<rect x="276.6" y="57.4" class="st1" width="4.1" height="102.6"/>
<rect x="282.8" y="57.4" class="st1" width="4.1" height="102.6"/>
<rect x="288.9" y="57.4" class="st1" width="2" height="102.6"/>
<rect x="295.1" y="57.4" class="st1" width="4.1" height="102.6"/>
<rect x="301.2" y="57.4" class="st1" width="2" height="102.6"/>
<rect x="305.3" y="57.4" class="st1" width="2" height="102.6"/>
<rect x="309.4" y="57.4" class="st1" width="4.1" height="102.6"/>
<rect x="315.6" y="57.4" class="st1" width="2" height="102.6"/>
<rect x="321.8" y="57.4" class="st1" width="2" height="102.6"/>
<rect x="325.9" y="57.4" class="st1" width="4.1" height="102.6"/>
<rect x="332" y="57.4" class="st1" width="2" height="102.6"/>
<rect x="336.1" y="57.4" class="st1" width="2" height="102.6"/>
<rect x="342.3" y="57.4" class="st1" width="2.1" height="102.6"/>
<rect x="348.4" y="57.4" class="st1" width="2" height="102.6"/>
<rect x="354.6" y="57.4" class="st1" width="2" height="102.6"/>
<rect x="358.7" y="57.4" class="st1" width="2" height="102.6"/>
<rect x="362.8" y="57.4" class="st1" width="2" height="102.6"/>
<rect x="366.9" y="57.4" class="st1" width="4.1" height="102.6"/>
<rect x="373.1" y="57.4" class="st1" width="2" height="102.6"/>
<rect x="379.2" y="57.4" class="st1" width="2" height="102.6"/>
<rect x="383.3" y="57.4" class="st1" width="4.1" height="102.6"/>
<rect x="389.5" y="57.4" class="st1" width="4.1" height="102.6"/>
<rect x="395.7" y="57.4" class="st1" width="2" height="102.6"/>
<rect x="401.8" y="57.4" class="st1" width="2" height="102.6"/>
<rect x="405.9" y="57.4" class="st1" width="2" height="102.6"/>
<rect x="410" y="57.4" class="st1" width="4.1" height="102.6"/>
<rect x="416.2" y="57.4" class="st1" width="2" height="102.6"/>
<rect x="420.3" y="57.4" class="st1" width="2" height="102.6"/>
<rect x="426.5" y="57.4" class="st1" width="4.1" height="102.6"/>
<rect x="432.6" y="57.4" class="st1" width="2" height="102.6"/>
<rect x="436.7" y="57.4" class="st1" width="4.1" height="102.6"/>
<rect x="442.9" y="57.4" class="st1" width="2" height="102.6"/>
<rect x="449" y="57.4" class="st1" width="2" height="102.6"/>
<rect x="453.1" y="57.4" class="st1" width="4.1" height="102.6"/>
<rect x="459.3" y="57.4" class="st1" width="4.1" height="102.6"/>
<rect x="465.5" y="57.4" class="st1" width="2" height="102.6"/>
<rect x="147.3" y="743.1" class="st1" width="3.7" height="185"/>
<rect x="154.7" y="743.1" class="st1" width="7.4" height="185"/>
<rect x="165.8" y="743.1" class="st1" width="3.7" height="185"/>
<rect x="184.3" y="743.1" class="st1" width="11.1" height="185"/>
<rect x="202.8" y="743.1" class="st1" width="7.4" height="185"/>
<rect x="213.9" y="743.1" class="st1" width="18.5" height="185"/>
<rect x="258.3" y="743.1" class="st1" width="3.7" height="185"/>
<rect x="265.7" y="743.1" class="st1" width="3.7" height="185"/>
<rect x="276.8" y="743.1" class="st1" width="11.1" height="185"/>
<rect x="291.6" y="743.1" class="st1" width="3.7" height="185"/>
<rect x="313.8" y="743.1" class="st1" width="3.7" height="185"/>
<rect x="321.2" y="743.1" class="st1" width="7.4" height="185"/>
<rect x="332.3" y="743.1" class="st1" width="11.1" height="185"/>
<rect x="350.8" y="743.1" class="st1" width="3.7" height="185"/>
<rect x="365.5" y="743.1" class="st1" width="3.7" height="185"/>
<rect x="376.6" y="743.1" class="st1" width="3.7" height="185"/>
<rect x="384.1" y="743.1" class="st1" width="25.9" height="185"/>
<rect x="421" y="743.1" class="st1" width="11.1" height="185"/>
<rect x="435.9" y="743.1" class="st1" width="3.7" height="185"/>
<rect x="458" y="743.1" class="st1" width="3.7" height="185"/>
<rect x="472.9" y="743.1" class="st1" width="11.1" height="185"/>
<rect x="487.6" y="743.1" class="st1" width="3.7" height="185"/>
<rect x="495" y="743.1" class="st1" width="3.7" height="185"/>
<path class="st1" d="M417.6,404.8l2.8,0.4l21-22.8c0.7-0.7,1.6-1.3,2.6-1.7l0,0c3.8,0,7.5-0.2,10.7-0.4c6-0.5,10.3-1.7,10.3-3l0,0
	c0-1.3-4.3-2.5-10.3-3c-3.2-0.2-6.9-0.4-10.7-0.4l0,0c-1-0.4-1.8-1-2.6-1.7l-21-22.8l-2.8,0.4L431,374l0,0
	c-8.1,0.1-14.7,0.4-15.8,0.4c-2.1,0.2-4.2,0.6-6.3,1l0,0l-5.2-7.2H402l1.2,8.5l0,0c-0.8,0.2-1.3,0.5-1.3,0.6s0.5,0.4,1.3,0.6l0,0
	l-1.2,8.5h1.6l5.2-7.2l0,0c2.1,0.5,4.2,0.8,6.3,1c1.1,0,7.7,0.3,15.8,0.4l0,0L417.6,404.8z"/>
<rect x="483" y="359.6" class="st2" width="62" height="36.2"/>
<text transform="matrix(1 0 0 1 143.3662 602.9164)" class="st3 st4">S</text>
<text transform="matrix(1 0 0 1 239.4413 602.9166)" class="st3 st4">W</text>
<text transform="matrix(1 0 0 1 372.5922 602.9164)" class="st3 st4">E</text>
<text transform="matrix(1 0 0 1 141.7361 718.3809)" class="st3 st4">D</text>
<text transform="matrix(1 0 0 1 244.8111 718.3811)" class="st3 st4">E</text>
<text transform="matrix(1 0 0 1 341.962 718.3809)" class="st3 st4">N</text>
<g id="DENMARK">
	<g>
		<defs>
			<rect id="SVGID_1_" x="482.6" y="359.8" width="62.6" height="36.5"/>
		</defs>
		<clipPath id="SVGID_2_">
			<use xlink:href="#SVGID_1_"  style="overflow:visible;"/>
		</clipPath>
		<g class="st5">
			<rect x="482.6" y="359.8" class="st6" width="62.6" height="36.5"/>
			<rect x="502.9" y="359.8" class="st7" width="6.8" height="36.5"/>
			<rect x="482.6" y="374.6" class="st7" width="62.6" height="6.8"/>
		</g>
	</g>
</g>
</svg>
