<svg id="Lag_1" data-name="Lag 1" xmlns="http://www.w3.org/2000/svg" viewBox="0 0 659 1036"><rect width="659" height="1036" style="fill:#fff"/><path d="M444.28,1009.53V1031H439.8v-9h-9.74v9h-4.48v-21.5h4.48v8.55h9.74v-8.55Z" transform="translate(-168 -58)"/><path d="M470,1009.53v3.93H459.81v4.68h9.25V1022h-9.25v5.11H470v4H455.4v-21.5Z" transform="translate(-168 -58)"/><path d="M494,1009.53h4.73L491,1022.87V1031h-4.44v-8.16l-7.74-13.34h4.87l5.21,9.1Z" transform="translate(-168 -58)"/><path d="M522.81,1009.53v3.93H512.63v4.68h9.24V1022h-9.24v5.11h10.18v4H508.22v-21.5Z" transform="translate(-168 -58)"/><path d="M537.72,1023v8h-4.44v-21.5h8.85c4.52,0,7.53,2.42,7.53,6.83a6.07,6.07,0,0,1-4.9,6.34l5.67,8.33h-5l-5.32-8Zm0-3.68h4.13c2.24,0,3.4-1.19,3.4-3s-1.16-3-3.4-3h-4.13Z" transform="translate(-168 -58)"/><rect x="345.83" y="188.89" width="254.93" height="73.89" style="fill:#4c4c4b"/><path d="M568,286.56v6.18h-3.68V274.93h7.25c3.77,0,6.27,2,6.27,5.83s-2.5,5.8-6.27,5.8Zm3.34-8.47H568v5.31h3.34a2.66,2.66,0,1,0,0-5.31Z" transform="translate(-168 -58)" style="fill:#fff"/><path d="M589.81,286.1v6.64h-3.68V274.93h7.34c3.74,0,6.23,2,6.23,5.66a5,5,0,0,1-4.06,5.25l4.7,6.9h-4.18l-4.41-6.64Zm0-3.05h3.42c1.86,0,2.82-1,2.82-2.46s-1-2.5-2.82-2.5h-3.42Z" transform="translate(-168 -58)" style="fill:#fff"/><path d="M612,292.74h-3.72V274.93H612Z" transform="translate(-168 -58)" style="fill:#fff"/><path d="M628.7,293c-5,0-8.41-3.89-8.41-9.2s3.45-9.19,8.41-9.19,8.44,3.86,8.44,9.19S633.66,293,628.7,293Zm0-15.08c-2.81,0-4.64,2.4-4.64,5.88s1.83,5.89,4.64,5.89,4.7-2.4,4.7-5.89S631.54,278,628.7,278Z" transform="translate(-168 -58)" style="fill:#fff"/><path d="M649.2,286.1v6.64h-3.68V274.93h7.34c3.74,0,6.23,2,6.23,5.66a5,5,0,0,1-4.06,5.25l4.7,6.9h-4.18l-4.4-6.64Zm0-3.05h3.43c1.85,0,2.81-1,2.81-2.46s-1-2.5-2.81-2.5H649.2Z" transform="translate(-168 -58)" style="fill:#fff"/><path d="M671.36,292.74h-3.72V274.93h3.72Z" transform="translate(-168 -58)" style="fill:#fff"/><path d="M679.59,274.93h15.2v3.25h-5.74v14.56h-3.74V278.18h-5.72Z" transform="translate(-168 -58)" style="fill:#fff"/><path d="M714.37,274.93h3.91L711.81,286v6.76h-3.68V286l-6.41-11.05h4l4.32,7.54Z" transform="translate(-168 -58)" style="fill:#fff"/><path d="M544.78,356.77V341.43h9.8v2.3h-7.2v4.55h6.72v2.27h-6.72v6.22Z" transform="translate(-168 -58)" style="fill:#4c4c4b"/><path d="M562.16,341.43h2.6v13h7.37v2.32h-10Z" transform="translate(-168 -58)" style="fill:#4c4c4b"/><path d="M582.38,356.77h-2.6V341.43h2.6Z" transform="translate(-168 -58)" style="fill:#4c4c4b"/><path d="M597.88,351.08v-2.23h5.82v1.2c0,4.25-2.77,7-6.52,7-4.13,0-7.22-3.19-7.22-7.92s3.12-7.92,7.12-7.92a6,6,0,0,1,6.3,5.05h-2.6a3.63,3.63,0,0,0-3.7-2.7c-2.73,0-4.5,2.32-4.5,5.57s1.75,5.63,4.6,5.63a3.93,3.93,0,0,0,4.05-3.65Z" transform="translate(-168 -58)" style="fill:#4c4c4b"/><path d="M624.2,341.43v15.34h-2.6v-6.72h-7.72v6.72h-2.6V341.43h2.6v6.32h7.72v-6.32Z" transform="translate(-168 -58)" style="fill:#4c4c4b"/><path d="M631.66,341.43h12.79v2.3h-5.1v13h-2.6v-13h-5.09Z" transform="translate(-168 -58)" style="fill:#4c4c4b"/><path d="M562.42,379.1c0-4.67,2.32-7.92,5.8-7.92s5.8,3.25,5.8,7.92-2.33,7.92-5.8,7.92S562.42,383.78,562.42,379.1Zm2.52,0c0,3.23,1,5.58,3.28,5.58s3.25-2.35,3.25-5.58-1-5.57-3.25-5.57S564.94,375.88,564.94,379.1Z" transform="translate(-168 -58)" style="fill:#4c4c4b"/><path d="M583.37,381.43h4.1v-3.6h2.4v3.6h2.52v2.15h-2.52v3.19h-2.4v-3.19h-6.93v-1.8l5.78-10.35h2.62Z" transform="translate(-168 -58)" style="fill:#4c4c4b"/><path d="M602.92,377.85h.9c1.47,0,2.57-.77,2.57-2.22a2.16,2.16,0,0,0-2.35-2.2,2.44,2.44,0,0,0-2.6,2.4h-2.55a5,5,0,0,1,5.13-4.65c3,0,4.8,1.8,4.8,4.3a3.62,3.62,0,0,1-2,3.45,3.65,3.65,0,0,1,2.3,3.47c0,2.6-1.9,4.62-5.08,4.62s-5.32-2-5.5-4.84h2.53A2.74,2.74,0,0,0,604,384.8a2.4,2.4,0,0,0,2.65-2.37c0-1.48-1.15-2.4-2.78-2.4h-1Z" transform="translate(-168 -58)" style="fill:#4c4c4b"/><path d="M618.47,380.08h-2v-8.65h8.65v2.3h-6.52v3.72a4.48,4.48,0,0,1,2.62-.8c2.88,0,4.85,2.1,4.85,5.18A4.92,4.92,0,0,1,621,387a5.06,5.06,0,0,1-5.38-4.84h2.53a2.78,2.78,0,1,0,2.8-3.3A3.16,3.16,0,0,0,618.47,380.08Z" transform="translate(-168 -58)" style="fill:#4c4c4b"/><path d="M677.2,352.53a3.32,3.32,0,0,0,3.47,2.3c1.8,0,3-.85,3-2.28,0-1.07-.63-1.7-2.23-2.07l-2.6-.63c-2.12-.5-3.82-1.65-3.82-4.12s2.12-4.55,5.22-4.55c3.33,0,5.28,1.7,5.82,4.25h-2.59a3.07,3.07,0,0,0-3.2-2.05c-1.65,0-2.78.85-2.78,2.12,0,1,.65,1.68,2,2l2.67.63c2.4.55,4,1.95,4,4.25,0,2.87-2.3,4.64-5.48,4.64s-5.57-1.64-6.12-4.49Z" transform="translate(-168 -58)" style="fill:#4c4c4b"/><path d="M703.75,341.43v2.3h-7.48v4h6.78v2.27h-6.78v4.4h7.48v2.32h-10V341.43Z" transform="translate(-168 -58)" style="fill:#4c4c4b"/><path d="M718.77,341.43l5.9,15.34H722l-1.57-4.24h-5.88L713,356.77h-2.63l5.9-15.34Zm-3.37,8.85h4.2l-2.1-5.68Z" transform="translate(-168 -58)" style="fill:#4c4c4b"/><path d="M729.42,341.43h12.8v2.3h-5.1v13h-2.6v-13h-5.1Z" transform="translate(-168 -58)" style="fill:#4c4c4b"/><path d="M694.23,386.77h-2.52V374.55l-3.6,1.83v-2.63l4.6-2.32h1.52Z" transform="translate(-168 -58)" style="fill:#4c4c4b"/><path d="M707.46,386.77h-2.53V374.55l-3.6,1.83v-2.63l4.6-2.32h1.53Z" transform="translate(-168 -58)" style="fill:#4c4c4b"/><path d="M723,371.43l5.9,15.34h-2.65l-1.57-4.24h-5.87l-1.58,4.24h-2.62l5.89-15.34Zm-3.37,8.85h4.2l-2.1-5.68Z" transform="translate(-168 -58)" style="fill:#4c4c4b"/><rect x="202.69" y="57.44" width="2.05" height="102.64" style="fill:#4c4c4b"/><rect x="208.85" y="57.44" width="2.05" height="102.64" style="fill:#4c4c4b"/><rect x="212.96" y="57.44" width="4.11" height="102.64" style="fill:#4c4c4b"/><rect x="219.12" y="57.44" width="4.11" height="102.64" style="fill:#4c4c4b"/><rect x="225.27" y="57.44" width="2.05" height="102.64" style="fill:#4c4c4b"/><rect x="229.38" y="57.44" width="4.11" height="102.64" style="fill:#4c4c4b"/><rect x="235.54" y="57.44" width="2.05" height="102.64" style="fill:#4c4c4b"/><rect x="239.64" y="57.44" width="2.06" height="102.64" style="fill:#4c4c4b"/><rect x="49.51" y="57" width="153" height="921" style="fill:#f5f5f5"/><rect x="245.8" y="57.44" width="2.05" height="102.64" style="fill:#4c4c4b"/><rect x="249.91" y="57.44" width="4.11" height="102.64" style="fill:#4c4c4b"/><rect x="256.07" y="57.44" width="2.05" height="102.64" style="fill:#4c4c4b"/><rect x="260.17" y="57.44" width="2.05" height="102.64" style="fill:#4c4c4b"/><rect x="266.33" y="57.44" width="4.1" height="102.64" style="fill:#4c4c4b"/><rect x="272.49" y="57.44" width="2.05" height="102.64" style="fill:#4c4c4b"/><rect x="276.59" y="57.44" width="4.11" height="102.64" style="fill:#4c4c4b"/><rect x="282.75" y="57.44" width="4.11" height="102.64" style="fill:#4c4c4b"/><rect x="288.91" y="57.44" width="2.05" height="102.64" style="fill:#4c4c4b"/><rect x="295.07" y="57.44" width="4.1" height="102.64" style="fill:#4c4c4b"/><rect x="301.23" y="57.44" width="2.05" height="102.64" style="fill:#4c4c4b"/><rect x="305.33" y="57.44" width="2.05" height="102.64" style="fill:#4c4c4b"/><rect x="309.44" y="57.44" width="4.11" height="102.64" style="fill:#4c4c4b"/><rect x="315.6" y="57.44" width="2.05" height="102.64" style="fill:#4c4c4b"/><rect x="321.76" y="57.44" width="2.05" height="102.64" style="fill:#4c4c4b"/><rect x="325.86" y="57.44" width="4.1" height="102.64" style="fill:#4c4c4b"/><rect x="332.02" y="57.44" width="2.05" height="102.64" style="fill:#4c4c4b"/><rect x="336.13" y="57.44" width="2.05" height="102.64" style="fill:#4c4c4b"/><rect x="342.28" y="57.44" width="2.06" height="102.64" style="fill:#4c4c4b"/><rect x="348.44" y="57.44" width="2.05" height="102.64" style="fill:#4c4c4b"/><rect x="354.6" y="57.44" width="2.05" height="102.64" style="fill:#4c4c4b"/><rect x="358.71" y="57.44" width="2.05" height="102.64" style="fill:#4c4c4b"/><rect x="362.81" y="57.44" width="2.05" height="102.64" style="fill:#4c4c4b"/><rect x="366.92" y="57.44" width="4.11" height="102.64" style="fill:#4c4c4b"/><rect x="373.08" y="57.44" width="2.05" height="102.64" style="fill:#4c4c4b"/><rect x="379.23" y="57.44" width="2.05" height="102.64" style="fill:#4c4c4b"/><rect x="383.34" y="57.44" width="4.11" height="102.64" style="fill:#4c4c4b"/><rect x="389.5" y="57.44" width="4.1" height="102.64" style="fill:#4c4c4b"/><rect x="395.66" y="57.44" width="2.05" height="102.64" style="fill:#4c4c4b"/><rect x="401.82" y="57.44" width="2.05" height="102.64" style="fill:#4c4c4b"/><rect x="405.92" y="57.44" width="2.05" height="102.64" style="fill:#4c4c4b"/><rect x="410.03" y="57.44" width="4.11" height="102.64" style="fill:#4c4c4b"/><rect x="416.19" y="57.44" width="2.05" height="102.64" style="fill:#4c4c4b"/><rect x="420.29" y="57.44" width="2.05" height="102.64" style="fill:#4c4c4b"/><rect x="426.45" y="57.44" width="4.11" height="102.64" style="fill:#4c4c4b"/><rect x="432.61" y="57.44" width="2.05" height="102.64" style="fill:#4c4c4b"/><rect x="436.71" y="57.44" width="4.11" height="102.64" style="fill:#4c4c4b"/><rect x="442.87" y="57.44" width="2.05" height="102.64" style="fill:#4c4c4b"/><rect x="449.03" y="57.44" width="2.05" height="102.64" style="fill:#4c4c4b"/><rect x="453.14" y="57.44" width="4.11" height="102.64" style="fill:#4c4c4b"/><rect x="459.29" y="57.44" width="4.11" height="102.64" style="fill:#4c4c4b"/><rect x="465.45" y="57.44" width="2.05" height="102.64" style="fill:#4c4c4b"/><rect x="147.28" y="743.08" width="3.69" height="184.98" style="fill:#4c4c4b"/><rect x="154.68" y="743.08" width="7.4" height="184.98" style="fill:#4c4c4b"/><rect x="165.78" y="743.08" width="3.7" height="184.98" style="fill:#4c4c4b"/><rect x="184.27" y="743.08" width="11.1" height="184.98" style="fill:#4c4c4b"/><rect x="202.78" y="743.08" width="7.4" height="184.98" style="fill:#4c4c4b"/><rect x="213.87" y="743.08" width="18.5" height="184.98" style="fill:#4c4c4b"/><rect x="258.27" y="743.08" width="3.7" height="184.98" style="fill:#4c4c4b"/><rect x="265.67" y="743.08" width="3.69" height="184.98" style="fill:#4c4c4b"/><rect x="276.77" y="743.08" width="11.1" height="184.98" style="fill:#4c4c4b"/><rect x="291.57" y="743.08" width="3.69" height="184.98" style="fill:#4c4c4b"/><rect x="313.75" y="743.08" width="3.7" height="184.98" style="fill:#4c4c4b"/><rect x="321.16" y="743.08" width="7.4" height="184.98" style="fill:#4c4c4b"/><rect x="332.26" y="743.08" width="11.09" height="184.98" style="fill:#4c4c4b"/><rect x="350.75" y="743.08" width="3.7" height="184.98" style="fill:#4c4c4b"/><rect x="365.55" y="743.08" width="3.69" height="184.98" style="fill:#4c4c4b"/><rect x="376.65" y="743.08" width="3.7" height="184.98" style="fill:#4c4c4b"/><rect x="384.06" y="743.08" width="25.89" height="184.98" style="fill:#4c4c4b"/><rect x="421.05" y="743.08" width="11.09" height="184.98" style="fill:#4c4c4b"/><rect x="435.85" y="743.08" width="3.71" height="184.98" style="fill:#4c4c4b"/><rect x="458.05" y="743.08" width="3.69" height="184.98" style="fill:#4c4c4b"/><rect x="472.85" y="743.08" width="11.09" height="184.98" style="fill:#4c4c4b"/><rect x="487.63" y="743.08" width="3.71" height="184.98" style="fill:#4c4c4b"/><rect x="495.03" y="743.08" width="3.69" height="184.98" style="fill:#4c4c4b"/><path d="M335.83,628.76c.66,7.45,4.65,11.84,12,11.84,8.65,0,12.64-5.06,12.64-15.56V573h17v52.13c0,20.75-12,30.86-29.52,30.86-18.49,0-28.6-11.31-29.66-27.27Z" transform="translate(-168 -58)"/><path d="M458.32,573l31.25,81.66H472.28L465,635H434.38L427.2,654.7h-17L441.43,573ZM439.7,620.65h19.95l-10-27.13Z" transform="translate(-168 -58)"/><path d="M542.91,626.37V654.7H526V573h33.24c17.29,0,28.73,9.31,28.73,26.73s-11.44,26.6-28.73,26.6Zm15.29-38.84H542.91v24.34H558.2c8.78,0,13-5,13-12.1C571.23,592.45,567,587.53,558.2,587.53Z" transform="translate(-168 -58)"/><path d="M366.42,693l31.25,81.66H380.38L373.06,755H342.48l-7.19,19.69h-17L349.52,693Zm-18.63,47.61h20l-10-27.13Z" transform="translate(-168 -58)"/><path d="M502.47,774.7H489l-38.57-54.4v54.4H434.11V693h16l36,51.6V693h16.36Z" transform="translate(-168 -58)"/><path d="M585.62,462.82l2.76.42,21-22.84a7.77,7.77,0,0,1,2.57-1.68h0c3.82-.05,7.52-.18,10.71-.43,6-.45,10.32-1.7,10.32-3h0c0-1.26-4.27-2.51-10.32-3-3.19-.24-6.89-.37-10.71-.43h0a7.77,7.77,0,0,1-2.57-1.68l-21-22.84-2.76.42L599,432h0c-8.09.14-14.73.42-15.81.42a57.44,57.44,0,0,0-6.26,1h0l-5.25-7.2H570l1.16,8.53h0c-.81.25-1.32.47-1.32.63s.51.37,1.32.62h0L570,444.48h1.63l5.25-7.2h0a55.79,55.79,0,0,0,6.26,1c1.08,0,7.72.28,15.82.41h0Z" transform="translate(-168 -58)" style="fill:#4c4c4b"/><rect x="482.96" y="359.56" width="62.04" height="36.19" style="fill:#f5f5f5"/><circle cx="513.98" cy="377.77" r="10.86" style="fill:#ad0018"/></svg>