<svg id="Lag_1" data-name="Lag 1" xmlns="http://www.w3.org/2000/svg" viewBox="0 0 42.72 40.59"><path d="M6.17,42.09H31A10,10,0,1,0,43.08,26.25v-21a.89.89,0,0,0-.89-.89H14.77l0,0h0l0,0,0,0,0,0,0,0,0,0,0,0,0,0,0,0-8.86,8.7h0l0,0,0,0-.05.07,0,.05v0l0,0v0l0,.05s0,0,0,0,0,0,0,0a.06.06,0,0,0,0,0s0,.06,0,.09v.08h0V41.2A.89.89,0,0,0,6.17,42.09Zm.89-1.78V14.84h8.43V28.56l2.34-1.63,1.8,1.63,1.76-1.7,2.75,1.7V14.84h8.3V26.5a10,10,0,0,0-2.95,13.81ZM33.72,42h0a8.28,8.28,0,0,1-1.27-.93,8.85,8.85,0,0,1-.74-.76,8.25,8.25,0,0,1,.73-11.58,7.77,7.77,0,0,1,1.78-1.21,8.21,8.21,0,0,1,3.73-.9,8.34,8.34,0,0,1,3.35.71,8.72,8.72,0,0,1,1.78,1.08A8.27,8.27,0,0,1,33.72,42ZM38,24.84a9.84,9.84,0,0,0-3.73.73V14.31L41.3,7.14V25.42A10.08,10.08,0,0,0,38,24.84ZM33,13.06H25.2L32,6.13H39.8ZM15.39,6.13h7.87l-7,6.93H8.34Z" transform="translate(-5.28 -4.35)" style="fill:#808284"/><path d="M17.48,33.14H8.13a.31.31,0,0,0-.31.31v5.37a.32.32,0,0,0,.31.32h9.35a.32.32,0,0,0,.32-.32V33.45A.31.31,0,0,0,17.48,33.14Zm-.31,5.36H8.45V33.77h8.72Z" transform="translate(-5.28 -4.35)" style="fill:#808284"/><rect x="3.7" y="29.98" width="0.5" height="3.66" style="fill:#808284"/><rect x="10.88" y="29.98" width="0.42" height="3.66" style="fill:#808284"/><rect x="4.56" y="29.98" width="0.5" height="3.66" style="fill:#808284"/><rect x="6.46" y="29.98" width="0.5" height="3.66" style="fill:#808284"/><rect x="8.22" y="29.98" width="0.42" height="3.66" style="fill:#808284"/><rect x="8.95" y="29.98" width="0.42" height="3.66" style="fill:#808284"/><rect x="7.29" y="29.98" width="0.7" height="3.66" style="fill:#808284"/><rect x="5.31" y="29.98" width="0.81" height="3.66" style="fill:#808284"/><rect x="9.72" y="29.98" width="0.81" height="3.66" style="fill:#808284"/><path d="M41.78,34.15l-.21,0H38.36l-1.91-2.26L34.7,29.79a.9.9,0,0,0-1.26-.1.89.89,0,0,0-.1,1.25l.88,1,3.05,3.61a1.18,1.18,0,0,0,.28.22.9.9,0,0,0,.4.09h3.62a.89.89,0,0,0,.21-1.75Z" transform="translate(-5.28 -4.35)" style="fill:#808284"/></svg>