<svg id="Lag_1" data-name="Lag 1" xmlns="http://www.w3.org/2000/svg" viewBox="0 0 54.59 54.59"><path d="M200.49,227a27.29,27.29,0,1,1,27.29-27.29A27.32,27.32,0,0,1,200.49,227Z" transform="translate(-173.2 -172.41)" style="fill:#3c5a99"/><path d="M196.21,199.83v15.82a.41.41,0,0,0,.41.41h5.88a.41.41,0,0,0,.41-.41V199.57h4.26a.41.41,0,0,0,.41-.37l.41-4.85a.41.41,0,0,0-.41-.44h-4.67v-3.44a1.46,1.46,0,0,1,1.46-1.46h3.28a.41.41,0,0,0,.41-.41v-4.84a.41.41,0,0,0-.41-.42H202.1a5.9,5.9,0,0,0-5.89,5.9v4.67h-2.94a.41.41,0,0,0-.41.41v4.84a.41.41,0,0,0,.41.41h2.94Z" transform="translate(-173.2 -172.41)" style="fill:#fff;fill-rule:evenodd"/></svg>