<svg id="Lag_1" data-name="Lag 1" xmlns="http://www.w3.org/2000/svg" viewBox="0 0 82.32 80.63"><path d="M240.05,193.05H229.87a1.36,1.36,0,0,0-.39-.27l-23.71-11.42a6.49,6.49,0,0,0,.46-2.37,6.29,6.29,0,0,0-4.69-6.08V170l5.88-8a1.6,1.6,0,0,0-1.29-2.55H193.76a1.6,1.6,0,0,0-1.3,2.55l5.88,8v4c0,.07,0,.13,0,.2v.11a1.6,1.6,0,0,0,1.6,1.6,3.08,3.08,0,1,1-1.72,5.63h0l-.2-.15a1.56,1.56,0,0,0-.35-.33,2.9,2.9,0,0,1-.39-.53,1.61,1.61,0,0,0-2.93,1.24l-22.86,11a1.36,1.36,0,0,0-.39.27H160.93a1.6,1.6,0,0,0-1.6,1.6v4.49a1.6,1.6,0,0,0,1.6,1.6h1.86v31.59h-1.86a1.6,1.6,0,0,0-1.6,1.6v4.49a1.6,1.6,0,0,0,1.6,1.6h79.12a1.6,1.6,0,0,0,1.6-1.6v-4.49a1.6,1.6,0,0,0-1.6-1.6h-1.86V200.74h1.86a1.6,1.6,0,0,0,1.6-1.6v-4.49A1.6,1.6,0,0,0,240.05,193.05Zm-43.14-30.46H203l-3,4.13Zm41.54,74.22H162.53v-1.28h75.92ZM166,200.74h3.72v31.57H166Zm61.57,31.57H223V200.74h4.55Zm-54.14-31.57H178v31.57h-4.55Zm45.87,31.57h-4.55V200.74h4.55Zm-8.26,0h-4.55V200.74H211Zm-8.27,0h-4.54V200.74h4.54Zm-8.26,0H190V200.74h4.55Zm-8.27,0h-4.54V200.74h4.54Zm48.75,0h-3.71V200.74H235Zm3.47-34.78H162.53v-1.28h75.92Zm-41.9-13.26a6.31,6.31,0,0,0,3.4,1,6.24,6.24,0,0,0,3.83-1.31l18.88,9.09H178.32Z" transform="translate(-159.33 -159.39)" style="fill:#7f8284"/></svg>