<?xml version="1.0" encoding="utf-8"?>
<!-- Generator: Adobe Illustrator 24.2.0, SVG Export Plug-In . SVG Version: 6.00 Build 0)  -->
<svg version="1.1" id="Lag_1" xmlns="http://www.w3.org/2000/svg" xmlns:xlink="http://www.w3.org/1999/xlink" x="0px" y="0px"
	 viewBox="0 0 117.8 19.6" style="enable-background:new 0 0 117.8 19.6;" xml:space="preserve">
<style type="text/css">
	.st0{clip-path:url(#SVGID_2_);}
	.st1{fill:#FFFFFF;}
	.st2{fill:#4C4C4B;}
	.st3{clip-path:url(#SVGID_4_);}
	.st4{clip-path:url(#SVGID_6_);}
</style>
<g id="UNITED_KINGDOM">
	<g>
		<defs>
			<rect id="SVGID_1_" x="42.2" y="0" width="33.6" height="19.6"/>
		</defs>
		<clipPath id="SVGID_2_">
			<use xlink:href="#SVGID_1_"  style="overflow:visible;"/>
		</clipPath>
		<g class="st0">
			<rect x="42.2" y="0" class="st1" width="33.6" height="19.6"/>
			<polygon class="st2" points="64.6,7.1 75.7,0.9 75.7,0 75,0 62.3,7.1 			"/>
			<polygon class="st2" points="64.1,12.9 75.7,19.4 75.7,18.1 66.4,12.9 			"/>
			<polygon class="st2" points="42.2,1.5 52.1,7.1 54.4,7.1 42.2,0.2 			"/>
			<polygon class="st2" points="53.9,12.9 42.2,19.5 42.2,19.6 44.3,19.6 56.2,12.9 			"/>
			<polygon class="st2" points="73.4,0 61.7,0 61.7,6.6 			"/>
			<polygon class="st2" points="56.5,0 44.8,0 56.5,6.6 			"/>
			<polygon class="st2" points="75.7,7.1 75.7,2.6 67.8,7.1 			"/>
			<polygon class="st2" points="75.7,17.4 75.7,12.9 67.8,12.9 			"/>
			<polygon class="st2" points="45.5,19.6 56.5,19.6 56.5,13.4 			"/>
			<polygon class="st2" points="61.7,19.6 72.8,19.6 61.7,13.4 			"/>
			<polygon class="st2" points="42.2,12.9 42.2,17.6 50.4,12.9 			"/>
			<polygon class="st2" points="42.2,7.1 50.4,7.1 42.2,2.5 			"/>
			<polygon class="st2" points="57.5,0 57.5,8.3 42.2,8.3 42.2,11.8 57.5,11.8 57.5,19.6 60.6,19.6 60.6,11.8 75.7,11.8 75.7,8.3 
				60.6,8.3 60.6,0 			"/>
		</g>
	</g>
</g>
<g id="USA">
	<g>
		<defs>
			<rect id="SVGID_3_" x="0.1" y="0" width="33.6" height="19.6"/>
		</defs>
		<clipPath id="SVGID_4_">
			<use xlink:href="#SVGID_3_"  style="overflow:visible;"/>
		</clipPath>
		<g class="st3">
			<rect x="0.1" y="18.1" class="st2" width="33.6" height="1.5"/>
			<rect x="0.1" y="16.6" class="st1" width="33.6" height="1.5"/>
			<rect x="0.1" y="15.1" class="st2" width="33.6" height="1.5"/>
			<rect x="0.1" y="13.6" class="st1" width="33.6" height="1.5"/>
			<rect x="0.1" y="12.1" class="st2" width="33.6" height="1.5"/>
			<rect x="0.1" y="10.6" class="st1" width="33.6" height="1.5"/>
			<rect x="0.1" y="9.1" class="st2" width="33.6" height="1.5"/>
			<rect x="0.1" y="7.6" class="st1" width="33.6" height="1.5"/>
			<rect x="0.1" y="6.1" class="st2" width="33.6" height="1.5"/>
			<rect x="0.1" y="4.6" class="st1" width="33.6" height="1.5"/>
			<rect x="0.1" y="3.1" class="st2" width="33.6" height="1.5"/>
			<rect x="0.1" y="1.6" class="st1" width="33.6" height="1.5"/>
			<rect x="0.1" y="0" class="st2" width="33.6" height="1.5"/>
			<rect x="0.1" y="0" class="st2" width="15.3" height="10.5"/>
			<polygon class="st1" points="1.5,1.2 1.6,1.6 2,1.6 1.7,1.9 1.8,2.3 1.5,2 1.1,2.3 1.2,1.9 0.9,1.6 1.3,1.6 			"/>
			<polygon class="st1" points="1.5,3 1.6,3.4 2,3.4 1.7,3.6 1.8,4 1.5,3.8 1.1,4 1.2,3.6 0.9,3.4 1.3,3.4 			"/>
			<polygon class="st1" points="1.5,4.7 1.6,5.1 2,5.1 1.7,5.4 1.8,5.8 1.5,5.5 1.1,5.8 1.2,5.4 0.9,5.1 1.3,5.1 			"/>
			<polygon class="st1" points="1.5,6.5 1.6,6.9 2,6.9 1.7,7.1 1.8,7.5 1.5,7.3 1.1,7.5 1.2,7.1 0.9,6.9 1.3,6.9 			"/>
			<polygon class="st1" points="1.5,8.2 1.6,8.6 2,8.6 1.7,8.9 1.8,9.3 1.5,9 1.1,9.3 1.2,8.9 0.9,8.6 1.3,8.6 			"/>
			<polygon class="st1" points="2.7,2.1 2.8,2.5 3.2,2.5 2.9,2.8 3,3.2 2.7,2.9 2.3,3.2 2.5,2.8 2.1,2.5 2.5,2.5 			"/>
			<polygon class="st1" points="2.7,3.9 2.8,4.3 3.2,4.3 2.9,4.5 3,4.9 2.7,4.7 2.3,4.9 2.5,4.5 2.1,4.3 2.5,4.3 			"/>
			<polygon class="st1" points="2.7,5.7 2.8,6.1 3.2,6.1 2.9,6.3 3,6.7 2.7,6.5 2.3,6.7 2.5,6.3 2.1,6.1 2.5,6.1 			"/>
			<polygon class="st1" points="2.7,7.4 2.8,7.8 3.2,7.8 2.9,8.1 3,8.5 2.7,8.2 2.3,8.5 2.5,8.1 2.1,7.8 2.5,7.8 			"/>
			<polygon class="st1" points="3.9,1.2 4,1.6 4.5,1.6 4.1,1.9 4.3,2.3 3.9,2 3.6,2.3 3.7,1.9 3.4,1.6 3.8,1.6 			"/>
			<polygon class="st1" points="3.9,3 4,3.4 4.5,3.4 4.1,3.6 4.3,4 3.9,3.8 3.6,4 3.7,3.6 3.4,3.4 3.8,3.4 			"/>
			<polygon class="st1" points="3.9,4.7 4,5.1 4.5,5.1 4.1,5.4 4.3,5.8 3.9,5.5 3.6,5.8 3.7,5.4 3.4,5.1 3.8,5.1 			"/>
			<polygon class="st1" points="3.9,6.5 4,6.9 4.5,6.9 4.1,7.1 4.3,7.5 3.9,7.3 3.6,7.5 3.7,7.1 3.4,6.9 3.8,6.9 			"/>
			<polygon class="st1" points="3.9,8.2 4,8.6 4.5,8.6 4.1,8.9 4.3,9.3 3.9,9 3.6,9.3 3.7,8.9 3.4,8.6 3.8,8.6 			"/>
			<polygon class="st1" points="5.1,2.1 5.3,2.5 5.7,2.5 5.4,2.8 5.5,3.2 5.1,2.9 4.8,3.2 4.9,2.8 4.6,2.5 5,2.5 			"/>
			<polygon class="st1" points="5.1,3.9 5.3,4.3 5.7,4.3 5.4,4.5 5.5,4.9 5.1,4.7 4.8,4.9 4.9,4.5 4.6,4.3 5,4.3 			"/>
			<polygon class="st1" points="5.1,5.7 5.3,6.1 5.7,6.1 5.4,6.3 5.5,6.7 5.1,6.5 4.8,6.7 4.9,6.3 4.6,6.1 5,6.1 			"/>
			<polygon class="st1" points="5.1,7.4 5.3,7.8 5.7,7.8 5.4,8.1 5.5,8.5 5.1,8.2 4.8,8.5 4.9,8.1 4.6,7.8 5,7.8 			"/>
			<polygon class="st1" points="6.4,1.2 6.5,1.6 6.9,1.6 6.6,1.9 6.7,2.3 6.4,2 6,2.3 6.2,1.9 5.8,1.6 6.3,1.6 			"/>
			<polygon class="st1" points="6.4,3 6.5,3.4 6.9,3.4 6.6,3.6 6.7,4 6.4,3.8 6,4 6.2,3.6 5.8,3.4 6.3,3.4 			"/>
			<polygon class="st1" points="6.4,4.7 6.5,5.1 6.9,5.1 6.6,5.4 6.7,5.8 6.4,5.5 6,5.8 6.2,5.4 5.8,5.1 6.3,5.1 			"/>
			<polygon class="st1" points="6.4,6.5 6.5,6.9 6.9,6.9 6.6,7.1 6.7,7.5 6.4,7.3 6,7.5 6.2,7.1 5.8,6.9 6.3,6.9 			"/>
			<polygon class="st1" points="6.4,8.2 6.5,8.6 6.9,8.6 6.6,8.9 6.7,9.3 6.4,9 6,9.3 6.2,8.9 5.8,8.6 6.3,8.6 			"/>
			<polygon class="st1" points="7.6,2.1 7.7,2.5 8.2,2.5 7.8,2.8 7.9,3.2 7.6,2.9 7.3,3.2 7.4,2.8 7.1,2.5 7.5,2.5 			"/>
			<polygon class="st1" points="7.6,3.9 7.7,4.3 8.2,4.3 7.8,4.5 7.9,4.9 7.6,4.7 7.3,4.9 7.4,4.5 7.1,4.3 7.5,4.3 			"/>
			<polygon class="st1" points="7.6,5.7 7.7,6.1 8.2,6.1 7.8,6.3 7.9,6.7 7.6,6.5 7.3,6.7 7.4,6.3 7.1,6.1 7.5,6.1 			"/>
			<polygon class="st1" points="7.6,7.4 7.7,7.8 8.2,7.8 7.8,8.1 7.9,8.5 7.6,8.2 7.3,8.5 7.4,8.1 7.1,7.8 7.5,7.8 			"/>
			<polygon class="st1" points="8.8,1.2 9,1.6 9.4,1.6 9.1,1.9 9.2,2.3 8.8,2 8.5,2.3 8.6,1.9 8.3,1.6 8.7,1.6 			"/>
			<polygon class="st1" points="8.8,3 9,3.4 9.4,3.4 9.1,3.6 9.2,4 8.8,3.8 8.5,4 8.6,3.6 8.3,3.4 8.7,3.4 			"/>
			<polygon class="st1" points="8.8,4.7 9,5.1 9.4,5.1 9.1,5.4 9.2,5.8 8.8,5.5 8.5,5.8 8.6,5.4 8.3,5.1 8.7,5.1 			"/>
			<polygon class="st1" points="8.8,6.5 9,6.9 9.4,6.9 9.1,7.1 9.2,7.5 8.8,7.3 8.5,7.5 8.6,7.1 8.3,6.9 8.7,6.9 			"/>
			<polygon class="st1" points="8.8,8.2 9,8.6 9.4,8.6 9.1,8.9 9.2,9.3 8.8,9 8.5,9.3 8.6,8.9 8.3,8.6 8.7,8.6 			"/>
			<polygon class="st1" points="10.1,2.1 10.2,2.5 10.6,2.5 10.3,2.8 10.4,3.2 10.1,2.9 9.7,3.2 9.9,2.8 9.5,2.5 9.9,2.5 			"/>
			<polygon class="st1" points="10.1,3.9 10.2,4.3 10.6,4.3 10.3,4.5 10.4,4.9 10.1,4.7 9.7,4.9 9.9,4.5 9.5,4.3 9.9,4.3 			"/>
			<polygon class="st1" points="10.1,5.7 10.2,6.1 10.6,6.1 10.3,6.3 10.4,6.7 10.1,6.5 9.7,6.7 9.9,6.3 9.5,6.1 9.9,6.1 			"/>
			<polygon class="st1" points="10.1,7.4 10.2,7.8 10.6,7.8 10.3,8.1 10.4,8.5 10.1,8.2 9.7,8.5 9.9,8.1 9.5,7.8 9.9,7.8 			"/>
			<polygon class="st1" points="11.3,1.2 11.4,1.6 11.9,1.6 11.5,1.9 11.7,2.3 11.3,2 11,2.3 11.1,1.9 10.8,1.6 11.2,1.6 			"/>
			<polygon class="st1" points="11.3,3 11.4,3.4 11.9,3.4 11.5,3.6 11.7,4 11.3,3.8 11,4 11.1,3.6 10.8,3.4 11.2,3.4 			"/>
			<polygon class="st1" points="11.3,4.7 11.4,5.1 11.9,5.1 11.5,5.4 11.7,5.8 11.3,5.5 11,5.8 11.1,5.4 10.8,5.1 11.2,5.1 			"/>
			<polygon class="st1" points="11.3,6.5 11.4,6.9 11.9,6.9 11.5,7.1 11.7,7.5 11.3,7.3 11,7.5 11.1,7.1 10.8,6.9 11.2,6.9 			"/>
			<polygon class="st1" points="11.3,8.2 11.4,8.6 11.9,8.6 11.5,8.9 11.7,9.3 11.3,9 11,9.3 11.1,8.9 10.8,8.6 11.2,8.6 			"/>
			<polygon class="st1" points="12.5,2.1 12.7,2.5 13.1,2.5 12.8,2.8 12.9,3.2 12.5,2.9 12.2,3.2 12.3,2.8 12,2.5 12.4,2.5 			"/>
			<polygon class="st1" points="12.5,3.9 12.7,4.3 13.1,4.3 12.8,4.5 12.9,4.9 12.5,4.7 12.2,4.9 12.3,4.5 12,4.3 12.4,4.3 			"/>
			<polygon class="st1" points="12.5,5.7 12.7,6.1 13.1,6.1 12.8,6.3 12.9,6.7 12.5,6.5 12.2,6.7 12.3,6.3 12,6.1 12.4,6.1 			"/>
			<polygon class="st1" points="12.5,7.4 12.7,7.8 13.1,7.8 12.8,8.1 12.9,8.5 12.5,8.2 12.2,8.5 12.3,8.1 12,7.8 12.4,7.8 			"/>
			<polygon class="st1" points="13.8,1.2 13.9,1.6 14.3,1.6 14,1.9 14.1,2.3 13.8,2 13.4,2.3 13.6,1.9 13.2,1.6 13.7,1.6 			"/>
			<polygon class="st1" points="13.8,3 13.9,3.4 14.3,3.4 14,3.6 14.1,4 13.8,3.8 13.4,4 13.6,3.6 13.2,3.4 13.7,3.4 			"/>
			<polygon class="st1" points="13.8,4.7 13.9,5.1 14.3,5.1 14,5.4 14.1,5.8 13.8,5.5 13.4,5.8 13.6,5.4 13.2,5.1 13.7,5.1 			"/>
			<polygon class="st1" points="13.8,6.5 13.9,6.9 14.3,6.9 14,7.1 14.1,7.5 13.8,7.3 13.4,7.5 13.6,7.1 13.2,6.9 13.7,6.9 			"/>
			<polygon class="st1" points="13.8,8.2 13.9,8.6 14.3,8.6 14,8.9 14.1,9.3 13.8,9 13.4,9.3 13.6,8.9 13.2,8.6 13.7,8.6 			"/>
		</g>
	</g>
</g>
<g id="DENMARK">
	<g>
		<defs>
			<rect id="SVGID_5_" x="84.2" y="0" width="33.6" height="19.6"/>
		</defs>
		<clipPath id="SVGID_6_">
			<use xlink:href="#SVGID_5_"  style="overflow:visible;"/>
		</clipPath>
		<g class="st4">
			<rect x="84.2" y="0" class="st2" width="33.6" height="19.6"/>
			<rect x="95.1" y="0" class="st1" width="3.6" height="19.6"/>
			<rect x="84.2" y="8" class="st1" width="33.6" height="3.6"/>
		</g>
	</g>
</g>
</svg>
