<?xml version="1.0" encoding="utf-8"?>
<!-- Generator: Adobe Illustrator 24.1.0, SVG Export Plug-In . SVG Version: 6.00 Build 0)  -->
<svg version="1.1" id="Layer_1" xmlns="http://www.w3.org/2000/svg" xmlns:xlink="http://www.w3.org/1999/xlink" x="0px" y="0px"
	 viewBox="0 0 400 200" style="enable-background:new 0 0 400 200;" xml:space="preserve">
<g>
	<path d="M200.3,127.8c-2.2,1.1-4.4,2.1-6.6,3c-2.2,0.9-4.5,1.9-6.8,2.3c-0.5,0.1-1.2,0.1-1.4,0c0,0,0,0,0-0.2
		c0-0.3,0.2-0.6,0.2-0.9c0-0.3,0.1-0.7-0.1-1.2c-0.1-0.2-0.3-0.5-0.6-0.6c-0.3-0.1-0.5-0.1-0.7-0.1c-0.8,0.1-1.4,0.4-1.9,0.6
		c-2.3,1.1-4.3,2.3-6.5,3.5c-0.5,0.3-1,0.5-1.5,0.8l0.1-0.1l0.9-1.6c0.6-1.1,1.2-2.1,1.7-3.4c0.1-0.3,0.3-0.6,0.2-1.3
		c0-0.2-0.1-0.4-0.3-0.6c-0.2-0.2-0.5-0.3-0.7-0.4c-0.4-0.1-0.6,0-0.8,0.1c-0.8,0.2-1.3,0.6-1.8,0.9c-2.1,1.3-4.1,2.7-6.2,3.9
		c-1,0.6-2.1,1.3-3,1.5c0,0,0,0-0.1,0c0-0.1,0-0.4,0.1-0.6c0.1-0.3,0.2-0.7,0.4-1c2.5-1.8,4.8-3.8,7-6c0,0,0,0,0,0
		c0.3-0.3,0.3-0.8,0-1.1c-0.3-0.3-0.8-0.3-1.1,0l0,0c-2.1,2.2-4.6,4.3-7.1,6.2c-1.3,0.9-2.6,1.8-3.9,2.7c-1.3,0.8-2.7,1.8-4,2.1
		c-0.7,0.2-1.3,0.1-1.6-0.3c-0.3-0.4-0.4-1.1-0.3-1.8c0,0,0-0.1,0-0.1c1.4-0.6,2.8-1.2,4.2-2c1.4-0.9,2.6-1.9,3.8-3
		c1.2-1.1,2.4-2.1,3.5-3.4c0.2-0.4,0.5-0.7,0.7-1.2c0.1-0.3,0-0.9-0.4-1c-0.3-0.2-0.6-0.2-0.8-0.2c-0.9,0-1.7,0.2-2.5,0.4
		c-3.2,0.8-6,3-7.8,5.8c-0.7,1.2-1.4,2.4-1.7,3.8c-4,1.4-8.1,2.5-12.2,3.5c2.5-1.4,5-2.9,7.4-4.4c1.5-0.9,2.9-1.9,4.4-3
		c1.4-1.1,2.8-2.1,4.1-3.5c0.2-0.2,0.3-0.4,0.5-0.7c0.1-0.2,0.4-0.7,0.1-1.3c-0.2-0.3-0.4-0.4-0.6-0.5c-0.2,0-0.4-0.1-0.5-0.1
		c-0.3,0-0.6,0-0.8,0c-1,0.1-1.8,0.3-2.7,0.5c-1.7,0.5-3.4,1-5,1.6l0,0l0,0c-1,0.5-2,1-2.9,1.5c0,0,0,0,0,0c0,0,0.1-0.1,0.1-0.2
		c0-0.1,0-0.1,0-0.3c0-0.2-0.3-0.7-0.5-0.8c-0.5-0.2-0.6-0.2-0.8-0.2c-0.7,0.1-1.2,0.2-1.8,0.4c-1.1,0.3-2.1,0.7-3.1,1.2
		c-2,0.8-4,1.7-6,2.6c-2,0.9-3.9,1.8-5.9,2.8c0.4-0.4,0.9-0.7,1.3-1.1c1-1,2-1.9,2.9-3.2c0.2-0.3,0.4-0.7,0.5-1.3
		c0-0.3-0.1-0.8-0.4-1c-0.3-0.3-0.6-0.4-0.8-0.4c-0.1,0-0.2,0-0.2,0c0.1-0.1,0.2-0.3,0.3-0.8c0-0.2,0-0.4-0.2-0.5
		c-0.1-0.1-0.3-0.3-0.5-0.3c-0.2,0-0.4-0.1-0.5,0c-0.5,0-0.7,0.1-1.1,0.2c-1.2,0.4-2.4,0.9-3.5,1.4c-2.3,1-4.5,2-6.8,2.9
		c-1.1,0.5-2.3,0.9-3.4,1.2c-0.3,0.1-0.6,0.1-0.8,0.2c0,0,0,0,0,0c0-0.1,0.1-0.2,0.2-0.3c0.1-0.2,0.3-0.5,0.5-0.7
		c1.5-1.9,3.3-3.6,5.2-5.2l0,0c0.2-0.2,0.2-0.5,0.1-0.7c-0.2-0.2-0.5-0.2-0.7-0.1c0,0,0,0,0,0l0,0l0,0c-2.3,1.9-4.6,3.8-7,5.6
		c-1.2,0.9-2.4,1.8-3.7,2.6c-0.6,0.4-1.2,0.8-1.9,1.2c-0.3,0.2-0.7,0.4-1.1,0.5c0.1-0.2,0.3-0.3,0.4-0.5c0.5-0.5,1-1.1,1.6-1.6
		c1.1-1,2.2-2,3.4-3c2.3-2,4.6-3.9,7-5.7l0,0l0,0c0,0,0,0,0,0c0.3-0.3,0.4-0.7,0.1-1c-0.3-0.3-0.7-0.4-1.1-0.1l0,0l0,0c0,0,0,0,0,0
		c-2.1,1.9-4.6,3.3-7.1,4.6c-1.7,0.8-3.5,1.6-5.2,2.3l0,0l2.4-1.8c1.6-1.2,3.2-2.4,4.7-3.8c0.7-0.7,1.5-1.3,2-2.6
		c0.1-0.3,0.1-0.8-0.2-1.1c-0.2-0.3-0.5-0.5-0.8-0.6c-0.5-0.2-1.1-0.3-1.6-0.4c-1.2-0.2-2.5-0.3-3.7-0.3c2.1-0.9,4.1-1.8,6.2-2.8
		c10-4.6,19.6-10.1,29-15.8c9.4-5.7,18.5-11.8,27.5-18.2c9-6.4,17.8-12.9,26.3-19.9l0,0c0.5-0.4,0.5-1.1,0.1-1.5
		c-0.4-0.5-1.1-0.5-1.5-0.1l0,0c-8.4,7-17.1,13.7-26,20.1c-8.9,6.4-17.9,12.6-27.2,18.4c-9.3,5.7-18.8,11.3-28.7,16
		c-2.9,1.4-5.8,2.7-8.7,3.9c-0.1,0-0.2,0-0.2,0c3.2-2.9,6.5-5.7,9.7-8.6c10.1-9.1,20-18.3,29.8-27.8c4.9-4.7,9.7-9.5,14.4-14.4
		c4.7-4.9,9.4-9.8,13.7-15.1c1.1-1.3,2.1-2.7,3.1-4.1c0.5-0.7,0.9-1.5,1.3-2.3c0.4-0.8,0.8-1.6,0.8-2.8c0-0.3-0.1-0.6-0.2-0.9
		c-0.1-0.2-0.2-0.3-0.3-0.5c-0.1-0.1-0.2-0.2-0.3-0.3c-0.4-0.3-0.8-0.6-1.3-0.8c-0.9-0.4-1.9-0.5-2.8-0.5c-1.8,0-3.6,0.5-5.2,1
		c-3.3,1.1-6.4,2.7-9.4,4.3c-3,1.7-5.9,3.5-8.7,5.5l0,0c-0.4,0.3-0.5,0.8-0.2,1.2c0.3,0.4,0.8,0.5,1.2,0.2l0,0
		c2.7-2,5.6-3.8,8.5-5.5c2.9-1.7,5.9-3.2,9-4.3c1.6-0.5,3.2-0.9,4.7-1c0.8,0,1.5,0.1,2.2,0.3c0.3,0.2,0.6,0.3,0.9,0.5
		c0.1,0.1,0.1,0.1,0.2,0.2c0,0,0,0.1,0,0.1c0,0.1,0.1,0.1,0,0.3c0,0.6-0.3,1.4-0.7,2.1c-0.3,0.7-0.8,1.4-1.2,2.1
		c-0.9,1.4-1.9,2.7-3,4.1c-4.2,5.3-8.8,10.2-13.5,15.1c-4.7,4.9-9.5,9.6-14.4,14.4c-9.7,9.4-19.7,18.6-29.8,27.7
		c-3.7,3.3-7.4,6.6-11.1,9.9c-2.9,0.5-5.8,1.4-8.6,2.4c-3.8,1.4-7.4,3-11,4.8l0,0c-0.2,0.1-0.3,0.3-0.2,0.4c0.1,0.2,0.3,0.3,0.5,0.3
		c5.3-1.2,10.5-2.8,15.7-4.7c-5.2,4.6-10.5,9.1-15.8,13.7c-0.1,0.1-0.1,0.3,0,0.4c0.1,0.1,0.3,0.2,0.4,0.1
		c6.5-4.9,12.7-10.1,18.8-15.5c1.2-0.5,2.3-0.9,3.5-1.4c1.9-0.1,3.9,0,5.8,0.2c0.9,0.1,2,0.5,1.7,1c-0.2,0.7-1,1.4-1.7,2.1
		c-1.4,1.3-3,2.5-4.6,3.8l-2.4,1.8l-1.2,0.9c-0.4,0.3-0.8,0.6-1.1,1l-0.1,0.2c-0.1,0.1-0.1,0.2,0,0.4c0.1,0.1,0.3,0.2,0.4,0.1l0,0
		c2.8-0.7,5.6-1.7,8.3-2.9c0,0,0.1,0,0.1,0c-0.1,0.1-0.2,0.2-0.3,0.2c-1.1,1-2.2,2-3.3,3.1c-0.5,0.5-1.1,1.1-1.6,1.7
		c-0.3,0.3-0.5,0.6-0.8,0.9c-0.1,0.1-0.1,0.2-0.2,0.3c-0.1,0.1-0.1,0.2-0.2,0.4c0,0.1-0.1,0.1,0,0.3c0,0.2,0.1,0.4,0.2,0.5
		c0.4,0.3,0.5,0.2,0.7,0.2c0.5-0.1,0.9-0.2,1.3-0.4c0.4-0.2,0.7-0.3,1.1-0.5c0.7-0.4,1.3-0.8,2-1.2c1.3-0.8,2.5-1.7,3.7-2.7
		c0.1-0.1,0.2-0.1,0.2-0.2c-0.1,0.2-0.3,0.5-0.3,1c0,0.1,0.1,0.4,0.2,0.5c0.1,0.2,0.3,0.3,0.4,0.3c0.3,0.1,0.5,0.1,0.7,0.1
		c0.4,0,0.7-0.1,1-0.2c1.3-0.3,2.4-0.8,3.6-1.2c2.3-0.9,4.6-1.9,6.9-2.8c0.9-0.4,1.8-0.7,2.7-1c-0.1,0.1-0.1,0.1-0.2,0.2
		c-0.2,0.2-0.3,0.5-0.2,0.7c0.1,0.4,0.5,0.6,0.9,0.5l0,0l0,0c0.6-0.1,1.3-0.2,1.7-0.2c0,0.1-0.1,0.3-0.2,0.5c-0.7,1-1.7,2-2.6,2.9
		c-2,1.8-4.1,3.5-6.3,5.2c-0.3,0.2-0.4,0.6-0.2,0.9c0.2,0.4,0.6,0.5,1,0.3c3.9-1.9,7.8-3.8,11.8-5.6c2-0.9,4-1.8,6-2.6
		c1-0.4,2-0.8,3-1.1c0.1,0,0.1,0,0.2-0.1l-2.3,2c-0.6,0.3-1.2,0.6-1.8,0.9l-4.6,2.5l-2.3,1.3l-2.2,1.4l-4.5,2.7
		c-1.5,0.9-2.9,1.9-4.3,2.9c-2.9,1.9-5.7,4.1-8.5,6.1c-5.5,4.3-10.7,8.9-15.6,13.9c-4.9,5-9.5,10.2-13.4,16.2l-0.1,0.1
		c-0.1,0.1-0.1,0.3-0.1,0.5c0.1,0.4,0.4,0.6,0.8,0.6l0,0c0.2,0,0.5-0.1,0.7-0.2c0.2-0.1,0.3-0.1,0.4-0.2c0.3-0.1,0.5-0.3,0.8-0.4
		c0.5-0.3,0.9-0.6,1.4-0.9c0.9-0.6,1.8-1.3,2.7-2c1.7-1.3,3.4-2.7,5.1-4.1c3.4-2.8,6.7-5.6,10-8.4c6.6-5.7,13.2-11.4,19.8-17.1
		l16.4-14.5c2.5-1.2,4.9-2.4,7.4-3.7c1.6-0.6,3.2-1.1,4.9-1.6c0.8-0.2,1.7-0.4,2.4-0.5c0.1,0,0.2,0,0.3,0c0,0.1-0.1,0.1-0.1,0.2
		c-1,1.2-2.5,2.2-3.8,3.3c-1.4,1-2.8,2-4.3,2.9c-2.9,1.8-5.9,3.5-9,5.2c-3.1,1.6-6.2,3.2-9.3,4.6l0,0c0,0,0,0,0,0
		c-0.5,0.2-0.7,0.8-0.4,1.3c0.2,0.5,0.8,0.7,1.3,0.4c2.1-1,4.1-2.1,6.1-3.2c5.7-1.3,11.3-2.8,16.8-4.8c0,0.7,0.1,1.5,0.6,2.2
		c0.3,0.4,0.9,0.7,1.4,0.8c0.5,0.1,1,0,1.4-0.1c1.8-0.5,3.1-1.4,4.4-2.2c1-0.6,1.9-1.2,2.8-1.9c-0.1,0.2-0.1,0.4-0.1,0.7
		c0,0.3,0.1,0.6,0.4,0.8c0.3,0.2,0.5,0.2,0.8,0.2c1.6-0.2,2.5-0.9,3.7-1.5c2.1-1.2,4.2-2.6,6.2-3.8c0.3-0.2,0.7-0.4,1-0.5
		c-0.4,1-1,2-1.6,3l-0.9,1.6c-0.2,0.3-0.3,0.5-0.5,0.8c-0.1,0.1-0.2,0.3-0.2,0.5c-0.1,0.2-0.2,0.3-0.1,0.9c0,0.1,0.2,0.4,0.3,0.5
		c0.1,0.1,0.2,0.1,0.3,0.2c0.1,0,0.1,0,0.2,0c0.3,0,0.4,0,0.5,0c0.2-0.1,0.4-0.1,0.5-0.2c0.3-0.1,0.6-0.3,0.9-0.4
		c0.6-0.3,1.1-0.6,1.6-0.9c2.1-1.2,4.2-2.5,6.3-3.6c0.5-0.3,1.1-0.5,1.5-0.6c0.1,0,0.1,0,0.2,0c0,0,0,0,0,0c0,0.1,0.1,0.3,0,0.6
		c0,0.3-0.1,0.5-0.1,0.9c0,0.2-0.1,0.4,0,0.7c0.1,0.3,0.3,0.5,0.5,0.6c0.5,0.2,0.8,0.2,1.2,0.2c0.3,0,0.7-0.1,1-0.1
		c2.5-0.6,4.7-1.6,6.9-2.6c2.2-1,4.4-2.1,6.6-3.3c0.1-0.1,0.2-0.2,0.1-0.4C200.6,127.8,200.4,127.7,200.3,127.8z M85.6,123.2
		c2.3-1,4.6-2,7-2.8c2.2-0.8,4.5-1.5,6.8-2c0,0,0,0-0.1,0.1C94.9,120.3,90.3,121.9,85.6,123.2z M123.2,143.9
		c-6.6,5.7-13.1,11.5-19.8,17.1c-3.3,2.8-6.7,5.6-10,8.4c-1.7,1.4-3.4,2.7-5.1,4.1c-0.8,0.6-1.6,1.2-2.5,1.8
		c3.4-4.7,7.2-9.1,11.3-13.2c4.9-4.9,10.1-9.5,15.5-13.8c2.8-2,5.5-4.2,8.4-6.1c1.4-1,2.9-2,4.3-2.9l4.4-2.7l2.2-1.4l2.3-1.3
		l0.6-0.3L123.2,143.9z M155.6,130.2c1.6-2.6,4.1-4.6,7.1-5.4c0.7-0.2,1.5-0.4,2.2-0.4c0.1,0,0.2,0,0.3,0c0,0,0,0,0,0
		c-0.1,0.2-0.3,0.5-0.5,0.8c-0.9,1.2-2.2,2.2-3.3,3.2c-1.2,1-2.5,2.1-3.7,2.9c-1,0.6-2.1,1.1-3.3,1.6
		C154.6,131.9,155.1,131,155.6,130.2z"/>
	<path d="M359.8,63c-0.3-0.3-0.8-0.3-1.1,0l-55.8,51.9c-5,3.3-10.1,6.6-15.2,9.6c-1.4,0.8-2.8,1.6-4.2,2.4c-1.4,0.8-2.9,1.6-4.3,1.9
		c-0.3,0.1-0.7,0-0.6,0c-0.1-0.1,0-0.5,0.1-0.8c0.3-0.7,0.7-1.4,1.1-2.1c0.8-1.3,1.8-2.5,2.8-3.6l3.5-2c0.2-0.1,0.2-0.3,0.1-0.5
		c-0.1-0.2-0.3-0.2-0.5-0.1l-6.2,3.3c-1,0.5-2.1,1.2-3.1,1.6c-0.1,0-0.2,0.1-0.3,0.1c0-0.1,0-0.2,0-0.4c0.1-0.5,0.2-1.1,0.3-1.7
		l0.4-1.7c0.1-0.5,0.4-1.3,0-2.1c-0.2-0.4-0.7-0.7-1.1-0.8c-0.4-0.1-0.7-0.1-1.1-0.1c-0.7,0.1-1.3,0.2-1.9,0.4c-1.6,0.5-3,1.2-4.5,2
		c0.1-0.2,0.2-0.4,0.2-0.6c0.1-0.3,0.1-0.6,0.1-0.9c0-0.4-0.3-0.9-0.7-1.2c-0.4-0.2-0.8-0.2-1.1-0.2c-0.3,0-0.6,0.1-0.8,0.1
		c-2,0.5-3.6,1.4-5.3,2.2c-1.7,0.8-3.3,1.7-5,2.3c-0.1,0-0.2,0.1-0.3,0.1c0.4-0.5,0.8-1.1,1.2-1.7c0.6-0.8,1.1-1.5,1.6-2.3
		c0.3-0.4,0.5-0.8,0.7-1.2c0.1-0.2,0.2-0.4,0.3-0.7c0.1-0.1,0.1-0.3,0.2-0.4c0-0.2,0.2-0.4-0.1-1c-0.2-0.3-0.6-0.4-0.7-0.4
		c-0.2,0-0.3,0-0.4,0c-0.2,0.1-0.3,0.1-0.5,0.2c-0.3,0.1-0.5,0.3-0.7,0.4c-0.4,0.3-0.8,0.5-1.2,0.8c-0.8,0.6-1.5,1.1-2.2,1.7
		c-2.9,2.3-5.7,4.8-8.6,7.1c-1.4,1.2-2.9,2.3-4.3,3.5l-2.2,1.7c-0.3,0.2-0.6,0.4-0.9,0.7c0.5-0.7,1-1.4,1.5-2.1
		c1.1-1.5,2.3-2.9,3.5-4.3c4.6-5.5,9.3-10.9,14.1-16.3c14.1-13.9,27.9-28.2,41.6-42.6l0,0c0.3-0.4,0.3-0.9,0-1.3
		c-0.4-0.3-0.9-0.3-1.3,0c-15.5,16.5-31.3,32.9-47.5,48.7l-6.1,5.9l-6.2,5.8c-4.2,3.8-8.5,7.5-13,10.7c-1.2,0.8-2.4,1.5-3.5,2
		c-0.3,0.1-0.6,0.2-0.8,0.2c0-0.1,0.1-0.4,0.1-0.5c0.1-0.3,0.2-0.6,0.3-0.9c1.2-2.4,2.8-4.8,4.4-7.1c3.1-4.3,6.4-8.6,9.8-12.7
		c3.8-3.8,7.6-7.5,11.4-11.3c12.2-12.3,24.4-24.6,36.5-37c0.3-0.3,0.3-0.8,0-1.1c-0.3-0.3-0.8-0.3-1.1,0
		c-12.1,12.3-24.3,24.6-36.6,36.9c-6.1,6.1-12.3,12.2-18.5,18.2c-3.1,3-6.2,6-9.4,8.9l-2.4,2.2l-2.4,2c-0.8,0.6-1.7,1.3-2.6,1.7
		c-0.2,0.1-0.3,0.2-0.5,0.2c0,0,0-0.1,0-0.1c0.6-1.8,1.8-3.7,2.9-5.5c1.2-1.8,2.3-3.7,3.6-5.3c2.7-3.4,5.5-6.7,8.3-10l4.2-4.9
		l2.1-2.4l2.3-2.3l9-9.3l36.1-37.4l0,0c0.4-0.4,0.4-1.1,0-1.6c-0.4-0.4-1.1-0.4-1.6,0l-36,37.5l-9,9.4l-2.2,2.3l-2.1,2.5l-4.2,5
		c-2.8,3.3-5.6,6.6-8.3,10c-1.4,1.8-2.5,3.6-3.7,5.5c-1.1,1.9-2.3,3.7-3,6c-0.1,0.3-0.2,0.6-0.2,1.1c0,0.2,0,0.5,0.2,0.8
		c0.2,0.3,0.6,0.6,0.9,0.7c0.4,0.1,0.5,0,0.8,0l0.5-0.2c0.3-0.1,0.6-0.3,0.8-0.4c1-0.6,1.9-1.2,2.8-1.9l2.5-2.1l2.4-2.2
		c2.8-2.6,5.6-5.2,8.3-7.9c-1,1.3-1.9,2.5-2.8,3.8c-1.6,2.3-3.3,4.7-4.6,7.3c-0.2,0.3-0.3,0.7-0.4,1.1c-0.1,0.4-0.3,0.8-0.2,1.4
		c0,0.3,0.3,0.8,0.7,1c0.4,0.2,0.7,0.2,0.9,0.2c0.5,0,0.9-0.2,1.3-0.3c1.4-0.6,2.6-1.4,3.8-2.2c4.7-3.3,9-7.1,13.2-10.9l6.1-5.6
		c-0.9,1.1-1.9,2.2-2.8,3.3c-1.2,1.4-2.4,2.9-3.5,4.4c-0.6,0.7-1.1,1.5-1.7,2.3c-0.3,0.4-0.5,0.8-0.8,1.3c-0.1,0.1-0.1,0.2-0.2,0.4
		c0,0.2-0.2,0.3,0,0.8c0,0.2,0.5,0.7,0.7,0.6c0.3,0.1,0.4,0,0.5,0c0.2-0.1,0.4-0.1,0.5-0.2c1-0.5,1.7-1.1,2.4-1.6l2.2-1.7
		c1.5-1.2,2.9-2.3,4.4-3.5c2.9-2.4,5.7-4.8,8.6-7.1c0.7-0.6,1.4-1.1,2.2-1.7c0.2-0.2,0.4-0.3,0.6-0.4c-0.1,0.2-0.3,0.5-0.4,0.7
		c-0.5,0.8-1,1.5-1.5,2.3c-0.5,0.8-1.1,1.5-1.7,2.3c-0.1,0.3-0.3,0.4-0.4,1c0,0.1,0.1,0.5,0.3,0.7c0.1,0.1,0.2,0.2,0.3,0.2
		c0.1,0,0.2,0,0.2,0.1c0.3,0,0.4,0,0.6,0c0.6-0.1,1-0.3,1.5-0.5c1.8-0.7,3.4-1.6,5.1-2.4c1.7-0.8,3.4-1.7,5-2.1
		c0.3-0.1,0.7-0.1,0.8-0.1c0,0.1,0,0.3-0.1,0.4c-0.2,0.7-0.6,1.6-1.1,2.3c-0.1,0.2-0.1,0.5,0,0.8c0.2,0.4,0.7,0.5,1,0.2l0,0
		c1.9-1.2,4-2.4,6.1-3.2c0.5-0.2,1.1-0.3,1.6-0.4c0.5-0.1,0.9,0,1,0.2c0.1,0.2,0.1,0.7-0.1,1.3l-0.4,1.7c-0.1,0.6-0.2,1.2-0.3,1.8
		c0,0.2,0,0.3,0,0.5c0,0.2,0.1,0.5,0.4,0.7c0.1,0.1,0.3,0.1,0.5,0.2c0.1,0,0.2,0,0.4,0c0.2,0,0.4-0.1,0.5-0.2
		c1.2-0.5,2.1-1.1,3.2-1.7l0.9-0.5c-0.6,0.7-1.2,1.4-1.7,2.2c-0.5,0.7-1,1.4-1.3,2.2c-0.1,0.4-0.4,0.9-0.1,1.6
		c0.2,0.3,0.6,0.5,0.8,0.5c0.3,0.1,0.5,0,0.8,0c1.8-0.4,3.2-1.1,4.7-1.9c1.5-0.7,2.9-1.5,4.3-2.4c3.1-1.8,6.1-3.6,9.1-5.5l-6.5,6
		c-0.3,0.3-0.3,0.8,0,1.1c0.1,0.2,0.3,0.2,0.5,0.2c0.2,0,0.4-0.1,0.5-0.2l12.5-11.6c0.2-0.1,0.3-0.2,0.5-0.3l4.1-2.6
		c0.3-0.2,0.7-0.4,1-0.6l0.5-0.3c0.2-0.1,0.3-0.1,0.4-0.2c0.7-0.2,1.5-0.4,2.3-0.5c0.4-0.1,0.8-0.1,1.1-0.1c0.3,0,0.7,0.1,0.7,0.1
		c0,0,0,0,0,0c0,0.1-0.1,0.2-0.1,0.3c-0.1,0.3-0.4,0.6-0.6,0.9c-1,1.2-2.3,2.2-3.5,3.3c-2.4,2.2-4.8,4.5-6.8,7.2
		c-0.2,0.4-0.5,0.7-0.7,1.2c-0.1,0.2-0.2,0.5-0.1,0.9c0.1,0.2,0.2,0.4,0.4,0.5c0.1,0,0.4,0.1,0.5,0.1c1-0.1,1.7-0.5,2.5-0.8
		c1.5-0.7,2.9-1.6,4.3-2.4c0,0,0.1-0.1,0-0.1c0-0.1-0.1-0.1-0.1,0c-1.5,0.7-3,1.4-4.5,2c-0.7,0.3-1.6,0.6-2.2,0.6c0,0,0,0-0.1,0
		c0,0,0-0.1,0.1-0.2c0.1-0.3,0.4-0.6,0.6-0.9c2-2.5,4.5-4.6,6.9-6.9c1.2-1.1,2.5-2.1,3.6-3.4c0.3-0.3,0.6-0.7,0.8-1.1
		c0.1-0.2,0.2-0.5,0.3-0.8c0.1-0.3-0.1-0.8-0.4-1.1c-0.6-0.5-1.1-0.4-1.6-0.5c-0.5,0-0.9,0-1.3,0.1c-0.9,0.1-1.7,0.3-2.5,0.6
		c-0.2,0.1-0.5,0.2-0.7,0.3l-0.3,0.2l50-46.5C360.1,63.7,360.1,63.3,359.8,63z M257.9,115.5C257.9,115.4,257.9,115.4,257.9,115.5
		L257.9,115.5z"/>
</g>
</svg>
