<svg id="Lag_1" data-name="Lag 1" xmlns="http://www.w3.org/2000/svg" viewBox="0 0 69.49 70.63"><path d="M202.28,212.49a1.61,1.61,0,0,0-2.06-.58s-4.16,2-6.9,3.13l-.09,0a.78.78,0,0,1-.22,0c-1.14,0-2.89-1.74-3.78-3L181.47,195c-.41-1.74-.49-4.35.41-5L182,190c.51-.26,1.08-.53,1.67-.81h0a1.71,1.71,0,0,0,.45-.22c2.31-1.07,4.73-2.08,4.77-2.09a1.62,1.62,0,0,0,.92-1.93l-5.62-19.36a1.59,1.59,0,0,0-.87-1,1.55,1.55,0,0,0-1.33,0l-5.17,2.34h0a1.71,1.71,0,0,0-.23.13h0a1.73,1.73,0,0,0-.21.17h0l-8,8a1.67,1.67,0,0,0-.41.69c-.15.52-3.59,13,5.54,33.09,9.95,22,20.92,25.83,21.38,26a1.75,1.75,0,0,0,.51.08h.1l11.28-.76a1.54,1.54,0,0,0,.55-.14l.12,0a1.59,1.59,0,0,0,.61-.24l.15-.11,4.29-1.94a1.62,1.62,0,0,0,.87-1,1.58,1.58,0,0,0-.18-1.32Zm-20.67-44.25,4.7,16.22-2.11.93-4.81-16.15Zm14,63.58a22.38,22.38,0,0,1-5.93-4.22c-6.12-5.75-10.61-14-13.3-19.94-4.49-9.91-5.71-17.79-5.94-22.65a31.48,31.48,0,0,1,.48-7.86l5.78-5.76,4.57,15.36-.75.38a2.91,2.91,0,0,0-.42.25c-1,.67-2.19,2.15-2.11,5.36a15.33,15.33,0,0,0,.42,3.17,1.14,1.14,0,0,0,.09.26l7.89,17.41a1.49,1.49,0,0,0,.14.24c.31.46,3.17,4.48,6.49,4.48a4.06,4.06,0,0,0,1-.13,4.11,4.11,0,0,0,.46-.15l1.06-.44,8.83,13.65Zm12.1-1.39-9.17-14.17,1.82-.85,9.09,14.23Z" transform="translate(-167.16 -164.41)" style="fill:#7f8284"/><path d="M204,180.39a18.9,18.9,0,0,0,1.43-2.46,10.9,10.9,0,0,0,.85-2.35,10.41,10.41,0,0,0,.28-2.48,6.24,6.24,0,0,0-1.55-4.51,5.69,5.69,0,0,0-4.32-1.62,6.94,6.94,0,0,0-3,.68,10.58,10.58,0,0,0-3,2.55l2.38,2.5a8.48,8.48,0,0,1,1.75-1.58,2.92,2.92,0,0,1,1.54-.44,1.93,1.93,0,0,1,1.52.66,2.88,2.88,0,0,1,.59,2,7.9,7.9,0,0,1-.3,2.17,9.84,9.84,0,0,1-.92,2.2,39.1,39.1,0,0,1-2.29,3.52L194.83,187v3.17h12.24v-3.78h-7.48v-.12C202,183.18,203.45,181.23,204,180.39Z" transform="translate(-167.16 -164.41)" style="fill:#7f8284"/><path d="M216,167.29l-6.9,14.59v3.45h7.45v4.79h4v-4.79h2.32v-3.52h-2.32V167.29Zm.63,7.59L216.5,177v4.8h-3.87l2.74-5.88a25.12,25.12,0,0,0,1.19-3.08h.13Z" transform="translate(-167.16 -164.41)" style="fill:#7f8284"/><polygon points="32.46 36.21 32.46 28.47 31.02 28.47 31.02 31.55 29.12 31.55 29.12 28.47 27.68 28.47 27.68 36.21 29.12 36.21 29.12 32.81 31.02 32.81 31.02 36.21 32.46 36.21" style="fill:#7f8284"/><path d="M203.54,192.76a2.38,2.38,0,0,0-2.07,1,6.44,6.44,0,0,0,0,5.92,2.38,2.38,0,0,0,2.06,1,2.35,2.35,0,0,0,2.06-1,5.1,5.1,0,0,0,.72-2.95,5.2,5.2,0,0,0-.71-3A2.35,2.35,0,0,0,203.54,192.76Zm0,6.69a1.06,1.06,0,0,1-1-.69,6.35,6.35,0,0,1,0-4,1.08,1.08,0,0,1,1-.69c.86,0,1.3.9,1.3,2.71S204.4,199.45,203.53,199.45Z" transform="translate(-167.16 -164.41)" style="fill:#7f8284"/><path d="M207.41,192.88v5A3.26,3.26,0,0,0,208,200a2.14,2.14,0,0,0,1.76.73,2.24,2.24,0,0,0,1.8-.73,3.15,3.15,0,0,0,.63-2.11v-5h-1.43V198a1.93,1.93,0,0,1-.25,1.07.78.78,0,0,1-.7.37c-.66,0-1-.49-1-1.48v-5.09Z" transform="translate(-167.16 -164.41)" style="fill:#7f8284"/><path d="M218.25,200.62l-1.49-3.39a2.18,2.18,0,0,0,1-2,2.34,2.34,0,0,0-.57-1.73,2.39,2.39,0,0,0-1.76-.57h-1.89v7.74H215v-3h.52l1.22,3Zm-2.18-4.54a.86.86,0,0,1-.73.29H215v-2.24h.36a1,1,0,0,1,.73.25,1.19,1.19,0,0,1,.24.84A1.38,1.38,0,0,1,216.07,196.08Z" transform="translate(-167.16 -164.41)" style="fill:#7f8284"/><path d="M220.22,199.47a3,3,0,0,1-1.59-.56v1.42a3.53,3.53,0,0,0,1.72.4,2.08,2.08,0,0,0,1.58-.58,2.29,2.29,0,0,0,.55-1.66,2.41,2.41,0,0,0-.3-1.21,3.28,3.28,0,0,0-1.06-1,3.08,3.08,0,0,1-.78-.66,1.07,1.07,0,0,1-.23-.68,1,1,0,0,1,.19-.63.68.68,0,0,1,.54-.23,1.45,1.45,0,0,1,.59.12,3.36,3.36,0,0,1,.54.26l.47-1.15a3.23,3.23,0,0,0-1.71-.5,1.94,1.94,0,0,0-1.48.58,2.21,2.21,0,0,0-.56,1.58,2.52,2.52,0,0,0,.15.91,2.34,2.34,0,0,0,.39.71,3.48,3.48,0,0,0,.76.66,3.62,3.62,0,0,1,.82.71,1.16,1.16,0,0,1,.25.71.85.85,0,0,1-.21.61A.79.79,0,0,1,220.22,199.47Z" transform="translate(-167.16 -164.41)" style="fill:#7f8284"/><path d="M236.65,199.63a27.89,27.89,0,0,0-10.6-22,1.6,1.6,0,1,0-2,2.54,24.66,24.66,0,0,1,9.36,19.51,24.25,24.25,0,0,1-12,21.26l2.76-5.86a1.6,1.6,0,1,0-2.9-1.36l-4.53,9.61a1.6,1.6,0,0,0,1.14,2.25l11.12,2.2.31,0a1.6,1.6,0,0,0,.31-3.17l-6.11-1.21A27.52,27.52,0,0,0,236.65,199.63Z" transform="translate(-167.16 -164.41)" style="fill:#7f8284"/></svg>