<svg id="Layer_1" data-name="Layer 1" xmlns="http://www.w3.org/2000/svg" viewBox="0 0 399.32 590.8"><path d="M1.5,180.8C.9,206.4.4,231.9.2,257.5s-.3,51.1-.1,76.7c.1,14.4.2,28.8.5,43.2a22.07,22.07,0,0,0,6.2,15,16,16,0,0,0,6.8,4.4,16.44,16.44,0,0,0,8.2,1.8c5.5-.2,11.2-2.1,15-6.2,1.1-1.4,2.2-2.9,3.3-4.3A21.22,21.22,0,0,0,43,377.4c2.9-27.3,4.7-54.7,6-82.2,1.2-27.3,1.8-54.6,2.1-81.9.2-15.4.3-30.9.5-46.3H9.1c.4,25.7.9,51.4,1.3,77.1s.9,51.4,1.3,77.1c.2,14.4.5,28.8.7,43.3a22.07,22.07,0,0,0,6.2,15,16,16,0,0,0,6.8,4.4,16.44,16.44,0,0,0,8.2,1.8c5.5-.2,11.2-2.1,15-6.2,1.1-1.4,2.2-2.9,3.3-4.3a21.22,21.22,0,0,0,2.9-10.7c2.1-23.3,4.2-46.7,6.3-70s4.2-46.5,6.3-69.7c1.2-13.1,2.4-26.3,3.5-39.4H28.4l-.6,80.7-.6,80.1c-.1,15.2-.2,30.3-.3,45.5a22.07,22.07,0,0,0,6.2,15,16,16,0,0,0,6.8,4.4,16.44,16.44,0,0,0,8.2,1.8c5.5-.2,11.2-2.1,15-6.2,1.1-1.4,2.2-2.9,3.3-4.3a21.22,21.22,0,0,0,2.9-10.7c1.7-26.2,3.3-52.4,5-78.6s3.3-52.4,5-78.6c.9-14.8,1.9-29.5,2.8-44.3H39.6c.9,25.2,1.8,50.5,2.8,75.7s1.8,50.5,2.8,75.7c.5,14.2,1,28.5,1.6,42.7a22.07,22.07,0,0,0,6.2,15,16,16,0,0,0,6.8,4.4,16.44,16.44,0,0,0,8.2,1.8c5.5-.2,11.2-2.1,15-6.2,1.1-1.4,2.2-2.9,3.3-4.3a21.22,21.22,0,0,0,2.9-10.7q3.3-40.05,6.6-80c2.2-26.8,4.4-53.5,6.6-80.3,1.2-15,2.5-30.1,3.7-45.1l-36.3,15a10.7,10.7,0,0,1,1.4,1.6c-1.1-1.4-2.2-2.9-3.3-4.3a20.18,20.18,0,0,1,2.5,4.3l-2.1-5.1a31.42,31.42,0,0,1,1.9,7.3c-.3-1.9-.5-3.8-.8-5.7a136.39,136.39,0,0,1,.6,16.9c.1,6.4.1,12.9.2,19.3.1,13.1.3,26.2.4,39.3.3,26.2.5,52.4.8,78.5.2,14.8.3,29.6.5,44.4a22.07,22.07,0,0,0,6.2,15,16,16,0,0,0,6.8,4.4,16.44,16.44,0,0,0,8.2,1.8c5.5-.2,11.2-2.1,15-6.2,1.1-1.4,2.2-2.9,3.3-4.3a21.22,21.22,0,0,0,2.9-10.7q1.8-37.2,3.5-74.4t3.5-74.4c.7-14,1.3-28,2-42H80.8c0,27,.1,54,.1,81s.1,54,.1,81c0,15.2,0,30.3.1,45.5a21.88,21.88,0,0,0,6.2,15,16,16,0,0,0,6.8,4.4,16.44,16.44,0,0,0,8.2,1.8c5.5-.2,11.2-2.1,15-6.2,1.1-1.4,2.2-2.9,3.3-4.3a21.22,21.22,0,0,0,2.9-10.7c2.2-26.4,4.3-52.9,6.5-79.3s4.3-52.9,6.5-79.3c1.2-14.9,2.4-29.8,3.6-44.8H97.6c.4,28.1.7,56.3,1.1,84.4s.7,56.1,1.1,84.1l.6,47.4a22.07,22.07,0,0,0,6.2,15,16,16,0,0,0,6.8,4.4,16.44,16.44,0,0,0,8.2,1.8c5.5-.2,11.2-2.1,15-6.2,1.1-1.4,2.2-2.9,3.3-4.3a21.22,21.22,0,0,0,2.9-10.7c1.6-29,3.1-57.9,4.7-86.9s3.1-57.9,4.7-86.9c.9-16.3,1.8-32.6,2.6-48.9l-21.3,21.3h.3c-1.9-.3-3.8-.5-5.7-.8a3.18,3.18,0,0,1,.9.3l-5.1-2.1a3.51,3.51,0,0,1,.8.5c-1.4-1.1-2.9-2.2-4.3-3.3a5.73,5.73,0,0,1,1.1,1.1c-1.1-1.4-2.2-2.9-3.3-4.3a7.14,7.14,0,0,1,.8,1.5l-2.1-5.1a13.86,13.86,0,0,1,.9,3.5c-.3-1.9-.5-3.8-.8-5.7.4,3.1.3,6.2.4,9.3.1,3.4.2,6.8.2,10.2.1,7,.3,14,.4,21,.2,13.9.4,27.9.6,41.8.3,28,.4,55.9.3,83.9-.1,15.7-.2,31.5-.4,47.2a21.62,21.62,0,0,0,6.2,15,16,16,0,0,0,6.8,4.4,16.44,16.44,0,0,0,8.2,1.8c5.5-.2,11.2-2.1,15-6.2,1.1-1.4,2.2-2.9,3.3-4.3a21.22,21.22,0,0,0,2.9-10.7c2.5-28.7,4.9-57.3,7.4-86s4.9-57.3,7.4-86c1.4-16.1,2.8-32.2,4.1-48.2-10.7,6.1-21.3,12.2-32,18.4a8.34,8.34,0,0,1,1.2.8c-1.4-1.1-2.9-2.2-4.3-3.3a4.89,4.89,0,0,1,1.2,1.3c-1.1-1.4-2.2-2.9-3.3-4.3a9.41,9.41,0,0,1,1.2,2.2l-2.1-5.1a18.9,18.9,0,0,1,1,4.1c-.3-1.9-.5-3.8-.8-5.7.7,5.5.4,11.3.5,16.8.1,6.4.2,12.7.3,19.1.2,12.6.5,25.2.7,37.8.5,25,.9,50,1.4,75.1.3,14.2.5,28.4.8,42.7a22.07,22.07,0,0,0,6.2,15,16,16,0,0,0,6.8,4.4,16.44,16.44,0,0,0,8.2,1.8c5.5-.2,11.2-2.1,15-6.2,1.1-1.4,2.2-2.9,3.3-4.3a21.22,21.22,0,0,0,2.9-10.7c2-27.9,4.1-55.8,6.1-83.6s4.1-55.8,6.1-83.6c1.1-15.7,2.3-31.4,3.4-47.1-13.2,3.6-26.4,7.2-39.6,10.7a22.88,22.88,0,0,1,1,2.3l-2.1-5.1a62.75,62.75,0,0,1,4.1,16c-.3-1.9-.5-3.8-.8-5.7a167.51,167.51,0,0,1,1.1,18.7c.1,6.9.3,13.8.4,20.7.3,13.9.6,27.8.9,41.8.6,27.8,1.2,55.5,1.7,83.3.3,15.6.7,31.3,1,46.9a22.07,22.07,0,0,0,6.2,15,16,16,0,0,0,6.8,4.4,16.44,16.44,0,0,0,8.2,1.8c5.5-.2,11.2-2.1,15-6.2,1.1-1.4,2.2-2.9,3.3-4.3a21.22,21.22,0,0,0,2.9-10.7c1.7-25.6,3.3-51.2,5-76.7s3.3-51.2,5-76.7c.9-14.4,1.9-28.8,2.8-43.2H184c.8,24.2,1.5,48.4,2.3,72.7s1.5,48.4,2.3,72.7c.4,13.6.8,27.3,1.3,40.9a22.34,22.34,0,0,0,6.2,15,16,16,0,0,0,6.8,4.4,16.44,16.44,0,0,0,8.2,1.8c5.5-.2,11.2-2.1,15-6.2,1.1-1.4,2.2-2.9,3.3-4.3a21.22,21.22,0,0,0,2.9-10.7c1.4-22.3,2.8-44.7,4.3-67s2.8-44.5,4.2-66.7l2.4-37.8H200.7l1.8,65.1,1.8,64.8c.3,12.2.7,24.4,1,36.7a22.54,22.54,0,0,0,6.2,15,16,16,0,0,0,6.8,4.4,16.44,16.44,0,0,0,8.2,1.8c5.5-.2,11.2-2.1,15-6.2a22.54,22.54,0,0,0,6.2-15c.9-25.4,1.7-50.8,2.6-76.3.9-25.3,1.7-50.7,2.6-76,.5-14.3,1-28.6,1.5-43H211.9l-.6,83.7-.6,83.7c-.1,15.7-.2,31.5-.3,47.2a22.07,22.07,0,0,0,6.2,15,16,16,0,0,0,6.8,4.4,16.44,16.44,0,0,0,8.2,1.8c5.5-.2,11.2-2.1,15-6.2,1.1-1.4,2.2-2.9,3.3-4.3a21.22,21.22,0,0,0,2.9-10.7c1.3-27,2.5-54,3.8-81s2.5-54,3.8-81c.7-15.2,1.4-30.3,2.1-45.5H220c.6,29.9,1.3,59.7,1.9,89.6s1.3,59.5,1.9,89.3c.4,16.8.7,33.6,1.1,50.3a22.07,22.07,0,0,0,6.2,15,16,16,0,0,0,6.8,4.4,16.44,16.44,0,0,0,8.2,1.8c5.5-.2,11.2-2.1,15-6.2a22.07,22.07,0,0,0,6.2-15c.6-27.1,1.2-54.3,1.8-81.4s1.1-54.2,1.8-81.2c.4-14.6,1-29.1,2.9-43.6-.3,1.9-.5,3.8-.8,5.7a196.89,196.89,0,0,1,5.1-25.4l-41.8-5.7c.7,29.6,1.4,59.1,2.1,88.7s1.4,59.1,2.1,88.7c.4,16.7.8,33.3,1.2,50a22.07,22.07,0,0,0,6.2,15,16,16,0,0,0,6.8,4.4,16.44,16.44,0,0,0,8.2,1.8c5.5-.2,11.2-2.1,15-6.2a22.54,22.54,0,0,0,6.2-15q.6-41.25,1.1-82.5t1.1-82.5c.2-15.6.4-31.1.6-46.7H244.4c1.5,27.9,2.9,55.7,4.4,83.6s2.9,55.7,4.4,83.6c.8,15.7,1.6,31.5,2.5,47.2a22.54,22.54,0,0,0,6.2,15,16,16,0,0,0,6.8,4.4,16.44,16.44,0,0,0,8.2,1.8c5.5-.2,11.2-2.1,15-6.2a21.62,21.62,0,0,0,6.2-15c-.1-26.2-.3-52.4-.4-78.6-.1-25.8-.6-51.6-.2-77.4a357.08,357.08,0,0,1,2.8-42.6c-.3,1.9-.5,3.8-.8,5.7.7-5.5,1.7-10.9,2.8-16.3l-41.8-5.7q2.4,43.8,4.7,87.6c1.6,29.1,3.1,58.2,4.7,87.3l2.7,49.2a22.54,22.54,0,0,0,6.2,15,16,16,0,0,0,6.8,4.4,16.44,16.44,0,0,0,8.2,1.8c5.5-.2,11.2-2.1,15-6.2a21.62,21.62,0,0,0,6.2-15c-.3-25.9-.7-51.7-1-77.6s-.7-51.7-1-77.6l-.6-43.8H269.9q1.5,35.1,3.7,70.1,2.25,34.8,5.4,69.4c1.2,13.2,2.5,26.3,3.8,39.4a16.44,16.44,0,0,0,1.8,8.2A19.33,19.33,0,0,0,295.8,445a16.44,16.44,0,0,0,8.2,1.8c5.5-.2,11.2-2.1,15-6.2s6.4-9.4,6.2-15c-1.1-28.2-2.2-56.3-3.3-84.5s-2.2-56.1-3.2-84.2c-.6-15.8-1.2-31.7-1.8-47.5a22.07,22.07,0,0,0-6.2-15,16,16,0,0,0-6.8-4.4,16.44,16.44,0,0,0-8.2-1.8c-5.5.2-11.2,2.1-15,6.2a21.62,21.62,0,0,0-6.2,15c.4,21.6.7,43.2,1.1,64.9s.7,43.2,1.1,64.9c.2,12.1.4,24.3.6,36.4a22.07,22.07,0,0,0,6.2,15,16,16,0,0,0,6.8,4.4,16.44,16.44,0,0,0,8.2,1.8c5.5-.2,11.2-2.1,15-6.2a21.62,21.62,0,0,0,6.2-15c-.4-21.6-.7-43.2-1.1-64.9s-.7-43.2-1.1-64.9c-.2-12.1-.4-24.3-.6-36.4H274.4c1.1,28.2,2.2,56.3,3.3,84.5s2.2,56.1,3.2,84.2c.6,15.8,1.2,31.7,1.8,47.5h42.5c-2.4-23.3-4.6-46.6-6.4-69.9q-2.7-34.65-4.7-69.5c-.7-13.2-1.4-26.4-1.9-39.6a22.07,22.07,0,0,0-6.2-15,16,16,0,0,0-6.8-4.4,16.44,16.44,0,0,0-8.2-1.8c-5.5.2-11.2,2.1-15,6.2a21.62,21.62,0,0,0-6.2,15c.3,25.9.7,51.7,1,77.6s.7,51.7,1,77.6l.6,43.8h42.5q-2.4-43.8-4.7-87.6c-1.6-29.1-3.1-58.2-4.7-87.3l-2.7-49.2c-.3-5.4-2.1-11.3-6.2-15-1.4-1.1-2.9-2.2-4.3-3.3a15,15,0,0,0-7.9-2.5,11,11,0,0,0-5.7,0,16,16,0,0,0-7.9,2.5c-4.5,2.9-8.6,7.3-9.8,12.7-6,28.8-6.6,58.1-6.4,87.4q.15,42.6.5,85.3c.1,15.9.2,31.9.3,47.8h42.5c-1.5-27.9-2.9-55.7-4.4-83.6s-2.9-55.7-4.4-83.6c-.8-15.7-1.6-31.5-2.5-47.2a22.54,22.54,0,0,0-6.2-15,16,16,0,0,0-6.8-4.4,16.44,16.44,0,0,0-8.2-1.8c-5.5.2-11.2,2.1-15,6.2a22.54,22.54,0,0,0-6.2,15q-.6,41.25-1.1,82.5T242,387c-.2,15.6-.4,31.1-.6,46.7h42.5c-.7-29.6-1.4-59.1-2.1-88.7s-1.4-59.1-2.1-88.7c-.4-16.7-.8-33.3-1.2-50-.1-5.3-2.2-11.4-6.2-15-1.4-1.1-2.9-2.2-4.3-3.3a15,15,0,0,0-7.9-2.5,11,11,0,0,0-5.7,0,16,16,0,0,0-7.9,2.5,22.2,22.2,0,0,0-9.8,12.7c-4.4,15.7-6.5,32.1-7.7,48.3-1.1,14.9-1.3,29.8-1.6,44.7q-1.05,46.2-2.1,92.5c-.4,17.3-.8,34.5-1.2,51.8h42.5c-.6-29.9-1.3-59.7-1.9-89.6s-1.3-59.5-1.9-89.3c-.4-16.8-.7-33.6-1.1-50.3a22.07,22.07,0,0,0-6.2-15,16,16,0,0,0-6.8-4.4,16.44,16.44,0,0,0-8.2-1.8c-5.5.2-11.2,2.1-15,6.2-1.1,1.4-2.2,2.9-3.3,4.3a21.22,21.22,0,0,0-2.9,10.7c-1.3,27-2.5,54-3.8,81s-2.5,54-3.8,81c-.7,15.2-1.4,30.3-2.1,45.5h42.5l.6-83.7.6-83.7c.1-15.7.2-31.5.3-47.2a22.07,22.07,0,0,0-6.2-15,16,16,0,0,0-6.8-4.4,16.44,16.44,0,0,0-8.2-1.8c-5.5.2-11.2,2.1-15,6.2a22.54,22.54,0,0,0-6.2,15c-.9,25.4-1.7,50.8-2.6,76.3-.9,25.3-1.7,50.7-2.6,76-.5,14.3-1,28.6-1.5,43H247l-1.8-65.1-1.8-64.8c-.3-12.2-.7-24.4-1-36.7a22.54,22.54,0,0,0-6.2-15,16,16,0,0,0-6.8-4.4,16.44,16.44,0,0,0-8.2-1.8c-5.5.2-11.2,2.1-15,6.2-1.1,1.4-2.2,2.9-3.3,4.3a21.22,21.22,0,0,0-2.9,10.7c-1.4,22.3-2.8,44.7-4.3,67s-2.8,44.5-4.2,66.7l-2.4,37.8h42.5c-.8-24.2-1.5-48.4-2.3-72.7s-1.5-48.4-2.3-72.7c-.4-13.6-.8-27.3-1.3-40.9a22.34,22.34,0,0,0-6.2-15,16,16,0,0,0-6.8-4.4,16.44,16.44,0,0,0-8.2-1.8c-5.5.2-11.2,2.1-15,6.2-1.1,1.4-2.2,2.9-3.3,4.3a21.22,21.22,0,0,0-2.9,10.7c-1.7,25.6-3.3,51.2-5,76.7s-3.3,51.2-5,76.7c-.9,14.4-1.9,28.8-2.8,43.2H213c-.6-30.8-1.3-61.6-1.9-92.4s-1.3-61.6-1.9-92.4c-.2-7.9-.2-15.8-.9-23.6a116.93,116.93,0,0,0-2.6-16.6,77.68,77.68,0,0,0-5.9-15.4c-1.1-1.4-2.2-2.9-3.3-4.3a16,16,0,0,0-6.8-4.4,11.23,11.23,0,0,0-5.4-1.5,16.39,16.39,0,0,0-8.5.4,24.82,24.82,0,0,0-9.4,5.5,16,16,0,0,0-4.4,6.8,16.44,16.44,0,0,0-1.8,8.2c-2,27.9-4.1,55.8-6.1,83.6s-4.1,55.8-6.1,83.6c-1.1,15.7-2.3,31.4-3.4,47.1h42.5l-1.5-82.5-1.5-82.2c-.1-7.6-.2-15.2-.4-22.8a25.61,25.61,0,0,0-.3-3.9,49.34,49.34,0,0,0-1.5-9.1c-2.5-7.3-6.8-14-13.8-17.7-6.8-3.6-14.7-4-21.5,0a21.2,21.2,0,0,0-10.5,18.3c-2.5,28.7-4.9,57.3-7.4,86s-4.9,57.3-7.4,86c-1.4,16.1-2.8,32.2-4.1,48.2h42.5q.6-45.6.4-91.3c-.1-30.4-.5-60.8-1-91.3-.2-8.5-.3-17.1-.5-25.6a41.8,41.8,0,0,0-.2-5c-.3-3-.5-6.3-1.6-9.2-1.7-4.5-3.4-8.5-7-11.9a25.64,25.64,0,0,0-5.6-4.2c-5-2.6-6.3-2.5-12-3.2a16.44,16.44,0,0,0-8.2,1.8,16,16,0,0,0-6.8,4.4c-1.1,1.4-2.2,2.9-3.3,4.3a21.22,21.22,0,0,0-2.9,10.7c-1.6,29-3.1,57.9-4.7,86.9s-3.1,57.9-4.7,86.9c-.9,16.3-1.8,32.6-2.6,48.9h42.5c-.4-28.1-.7-56.3-1.1-84.4s-.7-56.1-1.1-84.1l-.6-47.4a22.07,22.07,0,0,0-6.2-15,16,16,0,0,0-6.8-4.4,16.44,16.44,0,0,0-8.2-1.8c-5.5.2-11.2,2.1-15,6.2-1.1,1.4-2.2,2.9-3.3,4.3a21.22,21.22,0,0,0-2.9,10.7c-2.2,26.4-4.3,52.9-6.5,79.3s-4.3,52.9-6.5,79.3c-1.2,14.9-2.4,29.8-3.6,44.8h42.5c0-27-.1-54-.1-81s-.1-54-.1-81c0-15.2,0-30.3-.1-45.5a21.88,21.88,0,0,0-6.2-15,16,16,0,0,0-6.8-4.4,16.44,16.44,0,0,0-8.2-1.8c-5.5.2-11.2,2.1-15,6.2-1.1,1.4-2.2,2.9-3.3,4.3a21.22,21.22,0,0,0-2.9,10.7q-1.8,37.2-3.5,74.4c-1.1,24.8-2.4,49.6-3.5,74.4-.7,14-1.3,28-2,42H113q-.45-43.5-.9-87.1c-.3-29.1-.6-58-.9-87.1-.1-7.3.2-14.8-.5-22.1a61.28,61.28,0,0,0-2.4-14c-2.2-6.3-5-11.6-9.8-16.3-1.4-1.1-2.9-2.2-4.3-3.3l-5.1-2.1c-1.9-.3-3.8-.5-5.7-.8a16.44,16.44,0,0,0-8.2,1.8,10.56,10.56,0,0,0-4.7,2.7,9.91,9.91,0,0,0-3.8,3.8,10.56,10.56,0,0,0-2.7,4.7,16.44,16.44,0,0,0-1.8,8.2q-3.3,40-6.6,80c-2.2,26.8-4.4,53.5-6.6,80.3-1.2,15-2.5,30.1-3.7,45.1H87.8c-.9-25.2-1.8-50.5-2.8-75.7s-1.8-50.5-2.8-75.7c-.5-14.2-1-28.5-1.6-42.7a22.07,22.07,0,0,0-6.2-15,16,16,0,0,0-6.8-4.4,16.44,16.44,0,0,0-8.2-1.8c-5.5.2-11.2,2.1-15,6.2-1.1,1.4-2.2,2.9-3.3,4.3a21.22,21.22,0,0,0-2.9,10.7c-1.7,26.2-3.3,52.4-5,78.6s-3.3,52.4-5,78.6c-.9,14.8-1.9,29.5-2.8,44.3H67.9l.6-80.7.6-80.1c.1-15.2.2-30.3.3-45.5a22.07,22.07,0,0,0-6.2-15,16,16,0,0,0-6.8-4.4,16.44,16.44,0,0,0-8.2-1.8c-5.5.2-11.2,2.1-15,6.2-1.1,1.4-2.2,2.9-3.3,4.3A21.22,21.22,0,0,0,27,185c-2.1,23.3-4.2,46.7-6.3,70s-4.2,46.5-6.3,69.7c-1.2,13.1-2.4,26.3-3.5,39.4H53.4c-.4-25.7-.9-51.4-1.3-77.1s-.9-51.4-1.3-77.1c-.2-14.4-.5-28.8-.7-43.3a22.07,22.07,0,0,0-6.2-15,16,16,0,0,0-6.8-4.4,16.44,16.44,0,0,0-8.2-1.8c-5.5.2-11.2,2.1-15,6.2a22.26,22.26,0,0,0-6.2,15c-.2,27.5-.5,55-1.1,82.5-.6,27.3-1.7,54.6-3.5,81.8-1,15.4-2.3,30.8-4,46.1H41.6c-.4-25.6-.6-51.1-.6-76.7s.2-51.1.6-76.7q.3-21.6.9-43.2a21.88,21.88,0,0,0-6.2-15,16,16,0,0,0-6.8-4.4,16.44,16.44,0,0,0-8.2-1.8c-5.5.2-11.2,2.1-15,6.2C3.9,170,1.7,175,1.5,180.8Z" transform="translate(0.9)" style="fill:#bab5aa"/><path d="M363.8,61.1c.7,6.9,0,13.9.8,20.8.7,5.7,3.2,11,9.6,11.3" transform="translate(0.9)" style="fill:none;stroke:#010202;stroke-linecap:round;stroke-linejoin:round;stroke-width:3px"/><path d="M380.5,57.6c-1.8-5.3-.5-11.6-.6-17.1" transform="translate(0.9)" style="fill:none;stroke:#010202;stroke-linecap:round;stroke-linejoin:round;stroke-width:3px"/><path d="M377.1,80.3c-.4,5-1,11.2-1.1,12.9" transform="translate(0.9)" style="fill:none;stroke:#010202;stroke-linecap:round;stroke-linejoin:round;stroke-width:3px"/><path d="M386.2,59.5c1.3,2.6,5.4,3.3,7.1,3.9s3.2.8,2.6,2.9-2.9,4.6-4.8,4.9" transform="translate(0.9)" style="fill:none;stroke:#010202;stroke-linecap:round;stroke-linejoin:round;stroke-width:3px"/><path d="M391.1,75.5c.5,11.4,3,30.2,4.3,39.7s2.3,11.7.7,14.6-6.5,2.6-11.9,11.2-5.9,12.3-8.2,15" transform="translate(0.9)" style="fill:none;stroke:#010202;stroke-linecap:round;stroke-linejoin:round;stroke-width:3px"/><path d="M312.5,96.4c-3.7,15.2-15.1,58.8-19.9,76.3s-4.6,21.1-4.8,21.6" transform="translate(0.9)" style="fill:none;stroke:#010202;stroke-linecap:round;stroke-linejoin:round;stroke-width:3px"/><path d="M368.9,108.2c-.8,9.3-1.3,29.1-1.4,34.9s-1.3,40.3-2.6,52.9-6.6,66.4-8.3,78.6-7.1,57.3-9.5,68.2a188.8,188.8,0,0,0-3.6,20.3" transform="translate(0.9)" style="fill:none;stroke:#010202;stroke-linecap:round;stroke-linejoin:round;stroke-width:3px"/><path d="M321.9,211.3c.1,17,.9,50.2,1.2,56s3.2,60.2,3.8,73.8,5.7,50.2,6.1,54.6" transform="translate(0.9)" style="fill:none;stroke:#010202;stroke-linecap:round;stroke-linejoin:round;stroke-width:3px"/><path d="M207.5,93.2c0,6.4.6,7.5,1.9,11.2a44.61,44.61,0,0,1,2,12.4c-.1,2.4-2.6,3.3-3.9,3.9" transform="translate(0.9)" style="fill:none;stroke:#010202;stroke-linecap:round;stroke-linejoin:round;stroke-width:3px"/><path d="M190.9,55.2A38.86,38.86,0,0,0,196,67.8c2.5,4.2,9.7,14.6,9.7,14.6" transform="translate(0.9)" style="fill:none;stroke:#010202;stroke-linecap:round;stroke-linejoin:round;stroke-width:3px"/><path d="M193,57.4c4.7-2,8-3.2,10-5.1s4.5-1.5.9-2.6-18-1.3-23,0-36.9,8.9-40,10.4" transform="translate(0.9)" style="fill:none;stroke:#010202;stroke-linecap:round;stroke-linejoin:round;stroke-width:3px"/><path d="M159.6,56.4c.8,7.4.9,13.4,0,17.5s-8.9,18.2-7.8,28.9,5.4,11.4,5.4,11.4" transform="translate(0.9)" style="fill:none;stroke:#010202;stroke-linecap:round;stroke-linejoin:round;stroke-width:3px"/><path d="M169.5,120.8c.2,4,1.4,5,3.8,5.7s9.4,2.6,13.9,2a26.93,26.93,0,0,1,8,.1" transform="translate(0.9)" style="fill:none;stroke:#010202;stroke-linecap:round;stroke-linejoin:round;stroke-width:3px"/><path d="M197.3,94.1a35.75,35.75,0,0,0-4.7,9.6,25.67,25.67,0,0,0-.2,14.1l2.8,10.8" transform="translate(0.9)" style="fill:none;stroke:#010202;stroke-linecap:round;stroke-linejoin:round;stroke-width:3px"/><path d="M200.2,113c-1.7-3.5-2.2-.8-2.9-4.9s.3-4.5,0-5.5-4.7,1.1-4.7,1.1" transform="translate(0.9)" style="fill:none;stroke:#010202;stroke-linecap:round;stroke-linejoin:round;stroke-width:3px"/><path d="M149.1,63.2c2.6,2.9,4,4.2,8.2,2.6" transform="translate(0.9)" style="fill:none;stroke:#010202;stroke-linecap:round;stroke-linejoin:round;stroke-width:3px"/><path d="M209.5,69.6c7.8,1.1,15.2,4.4,22.9,6a98.33,98.33,0,0,0,31.1,1.3c7.5-.8,15.3-1.7,22.2-5.1,7.5-3.7,12.7-10.2,16.3-17.7s6.1-15.9,8.4-24.1" transform="translate(0.9)" style="fill:none;stroke:#010202;stroke-linecap:round;stroke-linejoin:round;stroke-width:3px"/><path d="M209.4,1.5c.5,14,.2,28.8,2.9,42.5" transform="translate(0.9)" style="fill:none;stroke:#010202;stroke-linecap:round;stroke-linejoin:round;stroke-width:3px"/><path d="M151.7,114.2c-5.1,9.3-15.3,29.4-21.2,45.5s-14,43.9-14,66.6c0,12.4,2.8,10.2,7.9,2" transform="translate(0.9)" style="fill:none;stroke:#010202;stroke-linecap:round;stroke-linejoin:round;stroke-width:3px"/><path d="M156,116.4c-6.2,11-17.7,31.9-24.2,53.6s-10.3,49.8-10.2,56.2,0,4.9,0,4.9" transform="translate(0.9)" style="fill:none;stroke:#010202;stroke-linecap:round;stroke-linejoin:round;stroke-width:3px"/><path d="M160.2,117.4c-1.2,2.3-2.4-.6-2.7,4.6s-4.6,26.9-5.9,30.9-6.4,23.2-4.8,30.6" transform="translate(0.9)" style="fill:none;stroke:#010202;stroke-linecap:round;stroke-linejoin:round;stroke-width:3px"/><path d="M162.2,124.7c.3,7.2-1,5.7-1.9,11.8s-9,38-6.8,50.6" transform="translate(0.9)" style="fill:none;stroke:#010202;stroke-linecap:round;stroke-linejoin:round;stroke-width:3px"/><path d="M188.5,132.4c.8,11.6,1.5,33.3,0,44.2s-2.8,15.7-2.6,17.6" transform="translate(0.9)" style="fill:none;stroke:#010202;stroke-linecap:round;stroke-linejoin:round;stroke-width:3px"/><path d="M192.6,113c3.9-.6,5.8-1.4,5.7,13.3s1.6,28.3,1.9,37-3.8,59.6-3.8,64.3-2.3,7.3-3.8,9.2" transform="translate(0.9)" style="fill:none;stroke:#010202;stroke-linecap:round;stroke-linejoin:round;stroke-width:3px"/><path d="M195.2,130.9a461.33,461.33,0,0,1-1.6,56.2c-2.3,25.4-2.5,48.3-2.6,54.9" transform="translate(0.9)" style="fill:none;stroke:#010202;stroke-linecap:round;stroke-linejoin:round;stroke-width:3px"/><path d="M200.2,116.4c4.8,5.7,8.2,11.2,13,24.5s15.4,42.3,17.1,46.2" transform="translate(0.9)" style="fill:none;stroke:#010202;stroke-linecap:round;stroke-linejoin:round;stroke-width:3px"/><path d="M226.5,194.2c-6.5-18.9-15.3-38.6-17-46s-9.3-25-9.3-25" transform="translate(0.9)" style="fill:none;stroke:#010202;stroke-linecap:round;stroke-linejoin:round;stroke-width:3px"/><path d="M312.5,201.6c-35.5-2.7-112.3-11.5-112.3-11.5" transform="translate(0.9)" style="fill:none;stroke:#010202;stroke-linecap:round;stroke-linejoin:round;stroke-width:3px"/><path d="M191.5,190.1c-18.4-1.1-49.5-6.5-62.9-8.2" transform="translate(0.9)" style="fill:none;stroke:#010202;stroke-linecap:round;stroke-linejoin:round;stroke-width:3px"/><path d="M121.6,181.9c-14.2-2.5-48.8-9-59.4-10.7s-12.5-1.8-14.6-3.1" transform="translate(0.9)" style="fill:none;stroke:#010202;stroke-linecap:round;stroke-linejoin:round;stroke-width:3px"/><path d="M49.2,180.4c-.6-5.2,0-14.6,0-14.6" transform="translate(0.9)" style="fill:none;stroke:#010202;stroke-linecap:round;stroke-linejoin:round;stroke-width:3px"/><path d="M44.1,168.2c-7.9,3.1-15.2,3.9-22.2,6.5s-12.8,4.9-15.6,4.5" transform="translate(0.9)" style="fill:none;stroke:#010202;stroke-linecap:round;stroke-linejoin:round;stroke-width:3px"/><path d="M6.3,181.9c9.4-.9,19.9,0,25.8,1.6s57.7,11.9,69.2,14,17.9,3.1,17.9,3.1" transform="translate(0.9)" style="fill:none;stroke:#010202;stroke-linecap:round;stroke-linejoin:round;stroke-width:3px"/><path d="M124.6,201.6c8.9,1.8,24.7,3.2,33.1,4.3s27.8,2.5,33.9,3.1" transform="translate(0.9)" style="fill:none;stroke:#010202;stroke-linecap:round;stroke-linejoin:round;stroke-width:3px"/><path d="M197.5,209.6c13.8.3,77.7,4.6,86,4.4s19.3,1.1,20.6,0,7.4-4.3,11.7-6.6" transform="translate(0.9)" style="fill:none;stroke:#010202;stroke-linecap:round;stroke-linejoin:round;stroke-width:3px"/><path d="M301.7,217.5a81.65,81.65,0,0,0-1.5,17.7c.1,6.5-1.3,48.5-1.3,61.2s.1,66.4,0,78.9-4.2,66.5-5.4,72.8" transform="translate(0.9)" style="fill:none;stroke:#010202;stroke-linecap:round;stroke-linejoin:round;stroke-width:3px"/><path d="M295.6,456.4c1.1-3.8-.5-2.2,3.1-5.6s20.8-18.1,26.3-22.2,11.4-7.4,12.5-8.4" transform="translate(0.9)" style="fill:none;stroke:#010202;stroke-linecap:round;stroke-linejoin:round;stroke-width:3px"/><path d="M281.8,453.5c-7,.3-20.4.4-27.6-1.5s-9.3-2-9.3-2" transform="translate(0.9)" style="fill:none;stroke:#010202;stroke-linecap:round;stroke-linejoin:round;stroke-width:3px"/><path d="M236.8,446.1c-7.7-.4-18.8-3.4-46.5-10s-60.6-16.5-80.7-23.7-35-11.7-44.4-15.3-44.4-11.4-48.5-14a12.69,12.69,0,0,0-8.4-2" transform="translate(0.9)" style="fill:none;stroke:#010202;stroke-linecap:round;stroke-linejoin:round;stroke-width:3px"/><path d="M8.3,377.3c-.3-22-.1-57.8,0-64.9s.3-30.8,0-39.6-1.2-76.5-.1-88.1" transform="translate(0.9)" style="fill:none;stroke:#010202;stroke-linecap:round;stroke-linejoin:round;stroke-width:3px"/><path d="M259.1,460.9c-1.5,1.9-2.8,4.7-3.6,9.7s-3.2,14.2,1.8,16.7,19.7,2.4,26.8,3.2,14.3,1.1,14.3,1.1" transform="translate(0.9)" style="fill:none;stroke:#010202;stroke-linecap:round;stroke-linejoin:round;stroke-width:3px"/><path d="M254.2,501.3c-2.5,3.3-7.2,15.4-8.1,23" transform="translate(0.9)" style="fill:none;stroke:#010202;stroke-linecap:round;stroke-linejoin:round;stroke-width:3px"/><path d="M279,517.4c-4.5,4.3-8,5.8-12.6,1.5s-9.4-13.4-9.4-13.4c3.6-1.8,3.3-.6,4.5-4.3s2.7-11.6,2.7-11.6" transform="translate(0.9)" style="fill:none;stroke:#010202;stroke-linecap:round;stroke-linejoin:round;stroke-width:3px"/><path d="M283.1,522.8c-.4-6.3-1.4-9.1-1.3-11.1s9.3-9.7,22.2-7.8" transform="translate(0.9)" style="fill:none;stroke:#010202;stroke-linecap:round;stroke-linejoin:round;stroke-width:3px"/><path d="M294.7,491.4c.1,3.4,1.5,11.3,2.9,13.4" transform="translate(0.9)" style="fill:none;stroke:#010202;stroke-linecap:round;stroke-linejoin:round;stroke-width:3px"/><path d="M305.9,491.4c1-3.5,3.4-4.8,6.8-1.8s5.4,6.3,7,5.4,2-3.8,2.2-7,2-16.2,4.2-26.6,1.1-20.6,1.3-22.1" transform="translate(0.9)" style="fill:none;stroke:#010202;stroke-linecap:round;stroke-linejoin:round;stroke-width:3px"/><path d="M308,512.8c2.6,6.7,5.8,14,16.3,19s23.7,12.3,27.1,16,4.3,4.5,7.3,10" transform="translate(0.9)" style="fill:none;stroke:#010202;stroke-linecap:round;stroke-linejoin:round;stroke-width:3px"/><path d="M160.3,502.5c.5,3.1.2,3.1,1.8,4.7s13,7.9,22.2,8.3,21.6.4,23.5,0,6.7-2.7,6.4-7.7" transform="translate(0.9)" style="fill:none;stroke:#010202;stroke-linecap:round;stroke-linejoin:round;stroke-width:3px"/><path d="M158.3,437.6c.4,8,.6,26.7,0,31.3s-3.4,14-4.6,24.4" transform="translate(0.9)" style="fill:none;stroke:#010202;stroke-linecap:round;stroke-linejoin:round;stroke-width:3px"/><path d="M213.3,503.6c1.5-4.2,3.8-8.7,4.6-13.3a220.35,220.35,0,0,0,2.7-26.7c.1-8.3-.3-17.9,0-18.3" transform="translate(0.9)" style="fill:none;stroke:#010202;stroke-linecap:round;stroke-linejoin:round;stroke-width:3px"/><path d="M181.9,533c-1-1.5-.8-8.5-.9-12.5" transform="translate(0.9)" style="fill:none;stroke:#010202;stroke-linecap:round;stroke-linejoin:round;stroke-width:3px"/><path d="M162.1,514a37.35,37.35,0,0,0-.5,7.5,26.45,26.45,0,0,1-1.3,8.6c-.9,3-2.5,4.3-2.7,5.2" transform="translate(0.9)" style="fill:none;stroke:#010202;stroke-linecap:round;stroke-linejoin:round;stroke-width:3px"/><path d="M190.9,547.5c-.2-5.9.3-8.4-1-10.2s-3-3.9-11.6-3.4-25-.1-26.8-.1-3-.3-4,1.5-3.8,6.4-3.6,9.2" transform="translate(0.9)" style="fill:none;stroke:#010202;stroke-linecap:round;stroke-linejoin:round;stroke-width:3px"/><path d="M141.6,553.9c1.7.9,3.7,1.5,1.4,6.8s-6.1,11.4-7.5,14-12.1,12.7-12.9,14.6" transform="translate(0.9)" style="fill:none;stroke:#010202;stroke-linecap:round;stroke-linejoin:round;stroke-width:3px"/><path d="M156.8,560.1c4.4-.3,13.1-2,16.5-2s9.4.2,10,0" transform="translate(0.9)" style="fill:none;stroke:#010202;stroke-linecap:round;stroke-linejoin:round;stroke-width:3px"/><path d="M177,568c-4-.3-19.3,0-19.3,0" transform="translate(0.9)" style="fill:none;stroke:#010202;stroke-linecap:round;stroke-linejoin:round;stroke-width:3px"/><path d="M123.8,302.3c0,3.3-.4,10.1-.6,10.8" transform="translate(0.9)" style="fill:none;stroke:#010202;stroke-linecap:round;stroke-linejoin:round;stroke-width:2px"/><path d="M128.8,303.1c-.1,2.3-.1,10.3,0,10.7" transform="translate(0.9)" style="fill:none;stroke:#010202;stroke-linecap:round;stroke-linejoin:round;stroke-width:2px"/><path d="M123.8,307.3a16.45,16.45,0,0,0,4.5.4" transform="translate(0.9)" style="fill:none;stroke:#010202;stroke-linecap:round;stroke-linejoin:round;stroke-width:2px"/><path d="M133.9,305.5c-.2,2.5-.5,6.9-.4,7.6s4.6.7,5,.7" transform="translate(0.9)" style="fill:none;stroke:#010202;stroke-linecap:round;stroke-linejoin:round;stroke-width:2px"/><path d="M138,305.9a34.18,34.18,0,0,1-3.6-.4" transform="translate(0.9)" style="fill:none;stroke:#010202;stroke-linecap:round;stroke-linejoin:round;stroke-width:2px"/><path d="M134.5,309.6c.6.1,2.6.3,2.6.3" transform="translate(0.9)" style="fill:none;stroke:#010202;stroke-linecap:round;stroke-linejoin:round;stroke-width:2px"/><path d="M143.3,306.4c.4,1.4,1,3.8,1.5,4.1h.3a38.65,38.65,0,0,0,3.7-2.8" transform="translate(0.9)" style="fill:none;stroke:#010202;stroke-linecap:round;stroke-linejoin:round;stroke-width:2px"/><path d="M145.3,316.7a46.89,46.89,0,0,0-.2-6.2" transform="translate(0.9)" style="fill:none;stroke:#010202;stroke-linecap:round;stroke-linejoin:round;stroke-width:2px"/><path d="M156.4,309.6a8.76,8.76,0,0,0-4.1-.4c-.4.2-.8,8.3-.6,8.5a30.82,30.82,0,0,0,4.3,0" transform="translate(0.9)" style="fill:none;stroke:#010202;stroke-linecap:round;stroke-linejoin:round;stroke-width:2px"/><path d="M155.7,313.8c-.6-.1-3.7-.2-3.7-.2" transform="translate(0.9)" style="fill:none;stroke:#010202;stroke-linecap:round;stroke-linejoin:round;stroke-width:2px"/><path d="M160.2,319.3c.3-1.4,1-5.7,1.1-7s1.9-1.5,2.7-1.3a3.68,3.68,0,0,1,2,2.8c-.1,1-2.6,3.2-3.8,2.4s5.1,4.9,5.1,4.9" transform="translate(0.9)" style="fill:none;stroke:#010202;stroke-linecap:round;stroke-linejoin:round;stroke-width:2px"/></svg>