<?xml version="1.0" encoding="utf-8"?>
<!-- Generator: Adobe Illustrator 24.3.0, SVG Export Plug-In . SVG Version: 6.00 Build 0)  -->
<svg version="1.1" id="Layer_1" xmlns="http://www.w3.org/2000/svg" xmlns:xlink="http://www.w3.org/1999/xlink" x="0px" y="0px"
	 viewBox="0 0 431.6 147.4" style="enable-background:new 0 0 431.6 147.4;" xml:space="preserve">
<style type="text/css">
	.st0{fill:#FFFFFF;}
</style>
<path class="st0" d="M64.6,0v74.3H49.1V43.1H15.5v31.2H0V0h15.5v29.5h33.6V0H64.6L64.6,0z"/>
<path class="st0" d="M153.6,0v13.5h-35.2v16.2h31.9V43h-31.9v17.7h35.2v13.7h-50.5V0H153.6L153.6,0z"/>
<path class="st0" d="M236.7,0H253l-27,46.1v28.2h-15.3V46.1L183.9,0h16.8l18,31.5L236.7,0z"/>
<path class="st0" d="M336.1,0v13.5h-35.2v16.2h31.9V43h-31.9v17.7h35.2v13.7h-50.5V0H336.1L336.1,0z"/>
<path class="st0" d="M387.7,46.6v27.7h-15.4V0h30.6c15.6,0,26,8.3,26,23.6c0,11.9-6.5,19.4-16.9,21.9l19.6,28.8h-17.4l-18.4-27.7
	C395.8,46.6,387.7,46.6,387.7,46.6z M387.7,33.9H402c7.7,0,11.7-4.1,11.7-10.3s-4-10.4-11.7-10.4h-14.3V33.9L387.7,33.9z"/>
<g>
	<path class="st0" d="M146.7,107.2h5.1v35.3h20.4v4.6h-25.5L146.7,107.2L146.7,107.2z"/>
	<path class="st0" d="M197.6,147.2h-5.1v-39.9h5.1V147.2z"/>
	<path class="st0" d="M220.1,147.2v-39.9h24.5v4.6h-19.3v13.5h18v4.6h-18v17.4h-5.2V147.2z"/>
	<path class="st0" d="M290.2,107.2v4.6h-20.4v12.7h18.5v4.6h-18.5v13.6h20.4v4.6h-25.5v-39.9h25.5V107.2z"/>
</g>
<rect x="332.4" y="202.3" class="st0" width="0" height="2"/>
</svg>
