<svg id="Lag_1" data-name="Lag 1" xmlns="http://www.w3.org/2000/svg" xmlns:xlink="http://www.w3.org/1999/xlink" viewBox="0 0 54.23 54.23"><defs><linearGradient id="Degradado_sin_nombre_2" x1="229.64" y1="218.36" x2="296.92" y2="161.08" gradientUnits="userSpaceOnUse"><stop offset="0" stop-color="#fbe18a"/><stop offset="0.21" stop-color="#fcbb45"/><stop offset="0.38" stop-color="#f75274"/><stop offset="0.52" stop-color="#d53692"/><stop offset="0.74" stop-color="#8f39ce"/><stop offset="1" stop-color="#5b4fe9"/></linearGradient></defs><circle cx="27.09" cy="26.88" r="23.75" style="fill:#fff"/><path d="M251.55,226.82a27.12,27.12,0,1,1,27.12-27.12A27.15,27.15,0,0,1,251.55,226.82Zm9.15-38.12a2,2,0,1,0,2,2A2,2,0,0,0,260.7,188.7Zm-8.92,2.57a8.43,8.43,0,1,0,8.42,8.43A8.44,8.44,0,0,0,251.78,191.27Zm0,13.83a5.4,5.4,0,1,1,5.39-5.4A5.4,5.4,0,0,1,251.78,205.1Zm17-12.4a10.28,10.28,0,0,0-10.28-10.28H244.93a10.28,10.28,0,0,0-10.28,10.28v13.57a10.29,10.29,0,0,0,10.28,10.28H258.5a10.28,10.28,0,0,0,10.28-10.28Zm-3.22,13.57a7.06,7.06,0,0,1-7.06,7.06H244.93a7.06,7.06,0,0,1-7.06-7.06V192.7a7.06,7.06,0,0,1,7.06-7.06H258.5a7.06,7.06,0,0,1,7.06,7.06Z" transform="translate(-224.44 -172.59)" style="fill:url(#Degradado_sin_nombre_2)"/></svg>