<svg id="Layer_1" data-name="Layer 1" xmlns="http://www.w3.org/2000/svg" viewBox="0 0 38.06 38.06"><path d="M421.89,317.43h0a19,19,0,0,1-19-19h0a19,19,0,0,1,19-19h0a19,19,0,0,1,19,19h0A19,19,0,0,1,421.89,317.43Z" transform="translate(-402.86 -279.37)" style="fill:#232221"/><path d="M421.89,289.85c2.78,0,3.11,0,4.21.06a5.45,5.45,0,0,1,1.94.36,3.45,3.45,0,0,1,2,2,5.38,5.38,0,0,1,.36,1.93c.05,1.1.06,1.43.06,4.22s0,3.12-.06,4.22a5.38,5.38,0,0,1-.36,1.93,3.45,3.45,0,0,1-2,2,5.45,5.45,0,0,1-1.94.36c-1.1.05-1.43.06-4.21.06s-3.12,0-4.22-.06a5.45,5.45,0,0,1-1.94-.36,3.28,3.28,0,0,1-1.2-.78,3.24,3.24,0,0,1-.78-1.2,5.88,5.88,0,0,1-.36-1.93c-.05-1.1-.06-1.43-.06-4.22s0-3.12.06-4.22a5.88,5.88,0,0,1,.36-1.93,3.24,3.24,0,0,1,.78-1.2,3.28,3.28,0,0,1,1.2-.78,5.45,5.45,0,0,1,1.94-.36c1.1-.05,1.43-.06,4.22-.06m0-1.88c-2.84,0-3.19,0-4.3.06a8,8,0,0,0-2.54.48,5.33,5.33,0,0,0-1.85,1.21,5.12,5.12,0,0,0-1.2,1.85,7.57,7.57,0,0,0-.48,2.53c0,1.11-.07,1.47-.07,4.3s0,3.19.07,4.3a7.57,7.57,0,0,0,.48,2.53,5.12,5.12,0,0,0,1.2,1.85,5.33,5.33,0,0,0,1.85,1.21,8,8,0,0,0,2.54.48c1.11.05,1.46.06,4.3.06s3.19,0,4.3-.06a7.83,7.83,0,0,0,2.53-.48,5.15,5.15,0,0,0,1.85-1.21,5,5,0,0,0,1.2-1.85,7.54,7.54,0,0,0,.49-2.53c.05-1.11.06-1.47.06-4.3s0-3.19-.06-4.3a7.54,7.54,0,0,0-.49-2.53,5,5,0,0,0-1.2-1.85,5.15,5.15,0,0,0-1.85-1.21,7.83,7.83,0,0,0-2.53-.48c-1.11,0-1.47-.06-4.3-.06" transform="translate(-402.86 -279.37)" style="fill:#fff"/><path d="M421.89,293a5.36,5.36,0,1,0,5.36,5.36,5.36,5.36,0,0,0-5.36-5.36m0,8.84a3.48,3.48,0,1,1,3.48-3.48,3.48,3.48,0,0,1-3.48,3.48" transform="translate(-402.86 -279.37)" style="fill:#fff"/><path d="M428.71,292.83a1.25,1.25,0,1,1-1.25-1.25,1.25,1.25,0,0,1,1.25,1.25" transform="translate(-402.86 -279.37)" style="fill:#fff"/></svg>