<svg id="Lag_1" data-name="Lag 1" xmlns="http://www.w3.org/2000/svg" viewBox="0 0 659.67 108.68"><path d="M168.63,231.37V340.05H146V294.38H96.77v45.67H74.11V231.37H96.77v43.19H146V231.37Z" transform="translate(-74.11 -231.37)" style="fill:#070304"/><path d="M305.8,231.37v19.82H254.29v23.72H301v19.3H254.29v25.84H305.8v20H232V231.37Z" transform="translate(-74.11 -231.37)" style="fill:#070304"/><path d="M434.48,231.37h23.9L418.9,298.81v41.24H396.42V298.81l-39.11-67.44h24.6l26.37,46Z" transform="translate(-74.11 -231.37)" style="fill:#070304"/><path d="M587.05,231.37v19.82H535.54v23.72h46.73v19.3H535.54v25.84h51.51v20H513.24V231.37Z" transform="translate(-74.11 -231.37)" style="fill:#070304"/><path d="M669.53,299.52v40.53H647.05V231.37h44.78c22.84,0,38.06,12.21,38.06,34.51,0,17.35-9.56,28.33-24.78,32l28.67,42.13H708.29l-26.9-40.53Zm0-18.59h20.89c11.33,0,17.17-6,17.17-15.05,0-9.2-5.84-15.22-17.17-15.22H669.53Z" transform="translate(-74.11 -231.37)" style="fill:#070304"/></svg>