<?xml version="1.0" encoding="utf-8"?>
<!-- Generator: Adobe Illustrator 24.2.0, SVG Export Plug-In . SVG Version: 6.00 Build 0)  -->
<svg version="1.1" id="Layer_1" xmlns="http://www.w3.org/2000/svg" xmlns:xlink="http://www.w3.org/1999/xlink" x="0px" y="0px"
	 viewBox="0 0 512.4 512.4" style="enable-background:new 0 0 512.4 512.4;" xml:space="preserve">
<style type="text/css">
	.st0{fill:#808284;}
</style>
<g>
	<g>
		<path class="st0" d="M451.1,384.2l-62.4-48.6c-17.5-13.7-42-13.5-59.3,0.2l-13.9,11c-10.7,8.4-25.9,7.6-35.4-2L168.6,232.8
			c-9.6-9.6-10.5-25-2-35.6l11-13.9c13.8-17.4,13.9-41.9,0.2-59.4l-48.5-62.5C113,40.5,82.8,36.7,61.9,52.9
			c-1.6,1.3-3.1,2.6-4.6,4.1l-40,40c-22.1,22.1-54,93,125.8,273.2c117.2,117.4,188.7,142.1,228.1,142.1c23.6,0,37.3-8.7,44.7-16.1
			l39.9-39.9c18.8-18.9,18.8-49.4-0.1-68.2C454.1,386.6,452.7,385.4,451.1,384.2z M442.6,438.6c-0.6,1-1.4,1.8-2.1,2.6L400.6,481
			c-4.5,4.5-13.2,9.8-29.5,9.8c-28.9,0-94.9-17.6-212.9-135.9C22.2,218.9,5.5,139,32.4,112l39.9-39.9c5-5,11.8-7.8,18.9-7.8
			c0.5,0,1.1,0,1.6,0c7.7,0.5,14.7,4.3,19.4,10.2l48.5,62.5c7.6,9.7,7.6,23.4-0.1,33.1l-11,13.9c-15.1,19.2-13.5,46.6,3.7,63.9
			L265,359.7c17.2,17.3,44.7,18.9,63.8,3.7l13.9-11c9.6-7.7,23.3-7.7,33-0.1l62.4,48.6C449.8,410.1,451.8,427,442.6,438.6z"/>
		<path class="st0" d="M267,0.2c-5.9,0-10.7,4.8-10.7,10.7s4.8,10.7,10.7,10.7c123.5,0,224,100.5,224,224c0,5.9,4.8,10.7,10.7,10.7
			s10.7-4.8,10.7-10.7C512.4,110.3,402.3,0.2,267,0.2z"/>
		<path class="st0" d="M437.7,245.5c0,5.9,4.8,10.7,10.7,10.7s10.7-4.8,10.7-10.7c0-105.9-86.2-192-192-192
			c-5.9,0-10.7,4.8-10.7,10.7s4.7,10.7,10.7,10.7C361.1,74.9,437.7,151.4,437.7,245.5z"/>
		<path class="st0" d="M267,128.3c64.6,0,117.3,52.6,117.3,117.1c0,5.9,4.8,10.7,10.7,10.7s10.7-4.8,10.7-10.7
			c0-76.4-62.2-138.6-138.7-138.6c-5.9,0-10.7,4.8-10.7,10.7C256.4,123.4,261.1,128.3,267,128.3z"/>
		<path class="st0" d="M267.1,160.4c-5.9,0-10.7,4.8-10.7,10.7s4.8,10.7,10.7,10.7c35.1,0,63.5,28.5,63.5,63.5
			c0,5.9,4.8,10.7,10.7,10.7s10.7-4.8,10.7-10.7C351.9,198.4,314,160.4,267.1,160.4z"/>
	</g>
</g>
</svg>
