<svg id="Lag_1" data-name="Lag 1" xmlns="http://www.w3.org/2000/svg" viewBox="0 0 54.49 54.49"><path d="M227.74,199.7A27.28,27.28,0,0,1,200.49,227" transform="translate(-173.24 -172.46)" style="fill:red"/><path d="M200.49,227a27.25,27.25,0,1,1,27.25-27.25" transform="translate(-173.24 -172.46)" style="fill:red"/><path d="M202.57,208.44c-1.95-.15-2.77-1.11-4.3-2-.68,3.57-1.48,7-3.38,9.38a1,1,0,0,1-1.71-.54c-.29-5.69,1.67-10.21,2.64-15-1.83-3.09.22-9.3,4.09-7.77,4.76,1.88-4.12,11.48,1.84,12.68,6.23,1.25,8.77-10.8,4.91-14.73-5.58-5.66-16.24-.12-14.93,8,.25,1.54,1.54,2.25,1.38,3.77a1.36,1.36,0,0,1-1.94,1.09c-2.47-1.16-3.24-3.69-3.12-6.9.22-6.15,5.52-10.45,10.84-11,6.72-.75,13,2.47,13.91,8.8,1,7.14-3,14.87-10.23,14.31Z" transform="translate(-173.24 -172.46)" style="fill:#fff"/></svg>