<svg id="Layer_1" data-name="Layer 1" xmlns="http://www.w3.org/2000/svg" viewBox="0 0 38.06 38.06"><path d="M422,317.35h0a19,19,0,0,1-19-19h0a19,19,0,0,1,19-19h0a19,19,0,0,1,19,19h0A19,19,0,0,1,422,317.35Z" transform="translate(-402.92 -279.29)" style="fill:#232221"/><path d="M415.86,300.09a.45.45,0,0,0,.65-.32c.06-.23.2-.81.27-1a.64.64,0,0,0-.19-.72,3.75,3.75,0,0,1-.86-2.54,6.15,6.15,0,0,1,6.39-6.22c3.49,0,5.41,2.13,5.41,5,0,3.75-1.66,6.91-4.12,6.91a2,2,0,0,1-2.05-2.5c.39-1.65,1.15-3.42,1.15-4.61a1.74,1.74,0,0,0-1.75-1.95c-1.39,0-2.51,1.44-2.51,3.36a4.93,4.93,0,0,0,.42,2.05L417,304.55a14.33,14.33,0,0,0,0,4.93.17.17,0,0,0,.31.08,14.06,14.06,0,0,0,2.34-4.25c.16-.58.91-3.57.91-3.57a3.72,3.72,0,0,0,3.17,1.62c4.18,0,7-3.81,7-8.9,0-3.85-3.26-7.44-8.22-7.44-6.17,0-9.28,4.42-9.28,8.11C413.2,297.37,414.05,299.35,415.86,300.09Z" transform="translate(-402.92 -279.29)" style="fill:#fff"/></svg>