<svg id="Lag_1" data-name="Lag 1" xmlns="http://www.w3.org/2000/svg" viewBox="0 0 45.61 39.55"><path d="M42.22,21.94v-3s0-.06,0-.09a13.93,13.93,0,0,0-5.44-9.48,19.3,19.3,0,0,0-12-3.9A17.87,17.87,0,0,0,13.24,9.2a17.29,17.29,0,0,0-5.81,9.5.76.76,0,0,0,0,.21v3c-3,.3-5.4,2.34-5.4,4.82v2.65C2,31.92,4.43,34,7.53,34.24a7,7,0,0,0,2.64,4.6v4.49a.88.88,0,0,0,1.75,0h0v-3.5a7,7,0,0,0,2.51.47h1.19a12.55,12.55,0,0,0,3.5,3.08,11.66,11.66,0,0,0,11.67.07,12.78,12.78,0,0,0,6.33-11.14v-7h0v-.09s0,0,0-.05v0a.09.09,0,0,0,0,0,.06.06,0,0,0,0,0v0l0-.05v0a.08.08,0,0,1,0,0l0,0,0,0,0,0,0,0,0,0,0,0,0,0,0,0,0,0,0,0,0,0,0,0,0,0-.05,0h0l0,0h-.09a17.4,17.4,0,0,1-3.36-1.15c-3.44-1.48-7.48-3.78-7.53-3.81a.88.88,0,0,0-1,.07,25.76,25.76,0,0,1-7.26,3.82,23.25,23.25,0,0,1-3.28.88.85.85,0,0,0-.44.2.88.88,0,0,0-.66.85v7a13,13,0,0,0,1.57,6.24h-.05a5.17,5.17,0,0,1-2.51-.64V23c0-6.53,5.86-11.85,13.07-11.85S38.07,16.5,38.07,23V43.49h0a.87.87,0,0,0,1.74,0V23c0-7.5-6.65-13.6-14.82-13.6S10.17,15.53,10.17,23V36.35a5.2,5.2,0,0,1-.95-3A.78.78,0,0,0,9.13,33V23.61a.88.88,0,0,0,0-.16h0V19a15.52,15.52,0,0,1,5.19-8.45A16.18,16.18,0,0,1,24.81,7.18a17.6,17.6,0,0,1,10.88,3.53A12.21,12.21,0,0,1,40.47,19v4.32h0s0,.07,0,.11v10a.86.86,0,0,0,.86.87h.12c3.39,0,6.15-2.18,6.15-4.86V26.76C47.61,24.29,45.25,22.24,42.22,21.94ZM14.65,32.31V25.93a24.55,24.55,0,0,0,2.88-.76,29.3,29.3,0,0,0,4.27-1.79,26.27,26.27,0,0,0,3.35-2.07c.73.41,2.18,1.2,3.84,2,1.38.69,2.91,1.41,4.3,2a19.39,19.39,0,0,0,2.09.72v6.29c0,6-4.65,10.93-10.37,10.93A10.05,10.05,0,0,1,18,40.3h1.32a2.17,2.17,0,0,0,1.9,1.13h2.48a2.16,2.16,0,0,0,0-4.31H21.17a2.17,2.17,0,0,0-2,1.43H16.51A11.29,11.29,0,0,1,14.65,32.31Zm31.22-2.9c0,1.53-1.58,2.81-3.65,3.06V23.7c2.07.26,3.65,1.53,3.65,3.06ZM3.74,26.76c0-1.53,1.58-2.8,3.65-3.06v8.77c-2.07-.25-3.65-1.53-3.65-3.06Z" transform="translate(-2 -5.44)" style="fill:#808284"/></svg>