<?xml version="1.0" encoding="utf-8"?>
<!-- Generator: Adobe Illustrator 24.1.0, SVG Export Plug-In . SVG Version: 6.00 Build 0)  -->
<svg version="1.1" id="Layer_1" xmlns="http://www.w3.org/2000/svg" xmlns:xlink="http://www.w3.org/1999/xlink" x="0px" y="0px"
	 viewBox="0 0 400 200" style="enable-background:new 0 0 400 200;" xml:space="preserve">
<g>
	<path d="M92.5,121.5c2.3-1.8,4.6-3.8,6.7-5.8c0,0,0-0.1,0-0.1c0,0-0.1,0-0.1,0c-9.2,7.3-19.2,13.7-29.4,19.3
		c-2.6,1.4-5.2,2.7-7.8,4c-2.6,1.2-5.3,2.7-8,3.4c-0.3,0.1-0.7,0.2-1,0.2c-0.3,0.1-0.6,0-0.6-0.1c0,0-0.1,0,0-0.3
		c0-0.3,0.2-0.6,0.3-0.9c0.6-1.2,1.5-2.4,2.4-3.5c1.8-2.3,3.8-4.4,5.8-6.6c8.1-8.5,16.8-16.5,25.6-24.3c2.2-1.9,4.4-3.9,6.7-5.8
		c2.2-1.9,4.6-3.6,6.9-5.4c4.7-3.6,9.4-7.1,14.1-10.7c9.5-7,19-13.9,28.8-20.5c9.7-6.6,19.6-13,29.8-18.8c2.5-1.5,5.1-2.9,7.7-4.2
		c0.1-0.1,0.3-0.1,0.4-0.2c-0.9,0.8-1.8,1.7-2.7,2.4c-4.5,3.7-9.2,7.3-13.9,10.9c-9.4,7.1-18.9,14-28.5,20.9l0,0
		c-0.4,0.3-0.5,0.8-0.2,1.2c0.3,0.4,0.8,0.5,1.2,0.2c9.5-6.9,19-13.9,28.4-21c4.7-3.6,9.4-7.2,13.9-11c1.1-1,2.3-1.9,3.3-3
		c0.3-0.3,0.5-0.6,0.8-0.9c0.1-0.1,0.1-0.2,0.2-0.4c0-0.1,0.1-0.2,0.1-0.4c0-0.1,0-0.2,0-0.3c0-0.1-0.1-0.3-0.2-0.4
		c-0.5-0.3-0.6-0.2-0.8-0.2c-0.1,0-0.3,0-0.4,0.1c-0.8,0.2-1.5,0.6-2.2,0.9c-2.7,1.3-5.2,2.8-7.8,4.3c-20.4,12-39.8,25.4-58.7,39.4
		c-4.7,3.5-9.4,7.1-14.1,10.6l-3.5,2.7c-1.2,0.9-2.4,1.8-3.5,2.8c-2.3,1.9-4.5,3.8-6.7,5.8c-8.8,7.9-17.5,15.9-25.6,24.4
		c-2,2.2-4,4.3-5.9,6.7c-0.9,1.2-1.8,2.4-2.5,3.8c-0.2,0.4-0.3,0.8-0.4,1.2c0,0.2-0.1,0.5,0,0.8c0.1,0.3,0.3,0.6,0.6,0.8
		c0.6,0.3,1.1,0.3,1.5,0.3c0.4,0,0.8-0.1,1.2-0.2c3-0.8,5.6-2.3,8.2-3.5c2.6-1.3,5.3-2.7,7.9-4.1c5.2-2.8,10.3-5.9,15.1-9.3
		C87.9,125.2,90.2,123.4,92.5,121.5z M182.4,40.7C182.4,40.7,182.4,40.7,182.4,40.7C182.4,40.7,182.4,40.7,182.4,40.7z"/>
	<path d="M192.9,123.7c-1.9,0.6-3.8,1.1-5.6,1.5c-0.9,0.2-1.9,0.4-2.8,0.5c-0.5,0-0.9,0.1-1.3,0c-0.2,0-0.4-0.1-0.4-0.2l-0.2-0.2
		c-0.1-0.1-0.2-0.2-0.4-0.3c-1-0.7-2.2-0.8-3.2-0.7c-1,0.1-2,0.3-3,0.5c-0.5,0.1-1,0.3-1.4,0.3c-0.4,0.1-0.8,0-1.3,0
		c-0.8-0.1-1.7-0.5-2.3-1l0,0l0,0c-0.2-0.2-0.5-0.2-0.7-0.1l-3.4,1.8l0.8-0.7c0.1-0.1,0.2-0.4,0.2-0.6c-0.1-0.3-0.4-0.5-0.7-0.5
		l-8.1,1.7l0.2-0.7c0-0.2,0-0.4-0.2-0.6c-0.2-0.2-0.6-0.2-0.9,0l0,0c-1,1.1-2.6,2.1-4,3c-1.5,0.9-3,1.7-4.5,2.4
		c-0.4,0.2-0.8,0.3-1.1,0.4c0,0,0,0,0,0c0.2-0.6,0.7-1.3,1.1-1.9c1-1.4,2.1-2.7,3.3-3.9c0.2-0.2,0.2-0.5,0.1-0.7c0,0,0,0,0,0
		l5.2-3.6l0,0c0.3-0.2,0.3-0.5,0.2-0.8c-0.2-0.3-0.5-0.4-0.8-0.2c-5.2,3-10.5,5.9-15.7,8.9l-3.9,2.2c-0.7,0.4-1.3,0.7-2,1
		c-0.6,0.3-1.1,0.5-1.7,0.7c0.1-0.1,0.2-0.3,0.3-0.4c0.4-0.6,0.9-1.1,1.4-1.7c1-1.1,2.1-2.1,3.2-3.2c4.4-4.1,8.9-8,13.6-11.8
		l14-11.5l5.1-4.2c2.5-0.3,5.1-0.5,7.6-0.6l0,0c0,0,0,0,0,0c0.4,0,0.6-0.4,0.6-0.7c0-0.4-0.4-0.6-0.7-0.6c-2,0.2-4,0.4-6,0.7
		l49.5-40.2l0,0c0.3-0.2,0.3-0.6,0.1-0.9c-0.2-0.3-0.6-0.3-0.9-0.1l-49.6,38.6l-4.4,3.4c-2.3,0.4-4.6,0.7-6.8,1.1
		c-0.1,0-0.2,0.1-0.2,0.3c0,0.1,0.1,0.2,0.3,0.2c1.8-0.2,3.7-0.4,5.6-0.7l-19.2,14.9l-12.4,9.6c-0.9,0.7-1.8,1.4-2.6,2.1l-0.7-0.6
		l-9.5,3.4l1.3-1.6c0.1-0.2,0.2-0.4,0.1-0.6c-0.1-0.4-0.5-0.6-0.9-0.5l0,0l0,0l-9.6,3.1c-0.1-0.1-0.2-0.1-0.3-0.2
		c-0.1,0-0.2,0-0.3-0.1c-0.2,0-0.4,0-0.5,0c-0.3,0-0.6,0-0.9,0.1c-0.6,0.1-1.1,0.2-1.7,0.3c-1.1,0.3-2.2,0.7-3.2,1.2
		c-2.1,0.9-4,2-6,3.1c-1,0.5-2,1-3,1.5c-0.3,0.1-0.7,0.3-1,0.4c0.1-0.1,0.2-0.3,0.3-0.5c1.4-1.6,3.2-3.1,4.9-4.5
		c3.4-2.9,7-5.5,10.5-8.3c0.4-0.4,0.9-0.7,1.3-1.2c0.1-0.1,0.1-0.1,0.2-0.2c0-0.1,0.1-0.1,0.1-0.3c0-0.1,0.1-0.2,0-0.4
		c0-0.3-0.4-0.5-0.5-0.5c-0.3-0.1-0.3,0-0.4,0c-0.1,0-0.1,0-0.2,0c-0.1,0-0.2,0.1-0.3,0.1c-0.3,0.1-0.6,0.2-0.8,0.4
		c-1,0.5-2,1.1-3,1.6c-1.9,1.1-3.9,2.3-5.8,3.5c-3.8,2.3-7.6,4.8-11.4,7c-1.9,1.1-3.8,2.3-5.8,3.3c-1,0.5-2,1-3,1.4c0,0,0,0,0,0
		c0,0,0,0,0,0c0.3-0.4,0.7-0.8,1.1-1.2c1.6-1.5,3.4-2.9,5.1-4.3l5.2-4.2l10.4-8.5l41.6-33.8c13.9-11.3,27.7-22.6,41.7-33.7
		c0,0,0,0,0,0c0.4-0.3,0.4-0.8,0.1-1.2c-0.3-0.4-0.8-0.4-1.2-0.1C172.9,61.7,159,73,145.2,84.3l-41.5,34l-10.4,8.5l-5.2,4.2
		c-1.7,1.4-3.5,2.8-5.1,4.4c-0.4,0.4-0.8,0.8-1.2,1.3c-0.1,0.1-0.2,0.2-0.3,0.4c0,0.1-0.1,0.2-0.1,0.3c0,0.1-0.1,0.3,0.1,0.6
		c0.2,0.2,0.4,0.3,0.5,0.3c0.1,0,0.2,0,0.3,0c0.2,0,0.3-0.1,0.5-0.1c1.1-0.4,2.1-0.9,3.1-1.4c2-1.1,3.9-2.2,5.8-3.3l11.6-6.8l5-2.9
		c-2.6,2-5.2,4.1-7.6,6.3c-1.7,1.5-3.4,3-4.9,4.7c-0.2,0.2-0.4,0.5-0.5,0.8c-0.1,0.2-0.2,0.3-0.2,0.6c0,0.2,0,0.4,0.3,0.6
		c0.2,0.1,0.4,0.1,0.5,0.1c0.8-0.1,1.2-0.3,1.8-0.5c1-0.5,2-1,3-1.6c1.9-1.1,3.9-2.2,5.9-3.1c1-0.5,2-0.9,3.1-1.2
		c0.5-0.1,1.1-0.3,1.6-0.3c0.2,0,0.4,0,0.6,0l-0.1,0.1l0,0c-0.2,0.2-0.2,0.4-0.2,0.6c0.1,0.3,0.4,0.5,0.8,0.4l0,0l8.7-2.7l-1.3,1.7
		l0,0c-0.1,0.2-0.2,0.4-0.1,0.6c0.1,0.3,0.5,0.5,0.8,0.4l10.4-3.7c0,0.1,0,0.1,0,0.2c-2.7,2.2-5.4,4.3-8.1,6.5
		c-0.2,0.1-0.2,0.4-0.1,0.6c0.1,0.2,0.4,0.2,0.6,0.1c4.2-3.1,8.4-6.2,12.5-9.5l12.4-9.7L169,99.4c0.1,0,0.3,0,0.4,0l-3.7,3l-14,11.5
		c-4.6,3.8-9.3,7.7-13.7,11.9c-1.1,1-2.2,2.1-3.2,3.2c-0.5,0.6-1,1.1-1.5,1.8c-0.2,0.3-0.5,0.6-0.7,1.1c0,0.1-0.1,0.2-0.1,0.5
		c-0.1,0.2,0.2,0.6,0.4,0.7c0.1,0.1,0.3,0.1,0.4,0.1l0.2,0c0.2,0,0.3,0,0.4,0c0.9-0.2,1.6-0.5,2.3-0.9c0.7-0.3,1.4-0.7,2-1.1
		l3.9-2.2c1.1-0.7,2.3-1.3,3.4-1.9c-0.1,0.2-0.1,0.4,0,0.6c0.2,0.3,0.5,0.4,0.8,0.2l3.1-1.7c-0.4,0.5-0.7,0.9-1.1,1.4
		c-0.5,0.8-1.1,1.4-1.4,2.5c0,0.2-0.1,0.3,0,0.6c0,0.2,0.2,0.6,0.5,0.7c0.5,0.2,0.8,0.1,1,0.1c0.5-0.1,0.9-0.3,1.4-0.5
		c1.6-0.8,3.1-1.6,4.7-2.5c0.8-0.5,1.5-0.9,2.2-1.4c0.2-0.2,0.4-0.3,0.7-0.5c0,0,0,0.1,0,0.1c0.1,0.3,0.4,0.5,0.7,0.5l7-1.5
		l-2.3,2.2c-0.2,0.2-0.2,0.5-0.1,0.7c0.2,0.3,0.5,0.4,0.8,0.3l6.8-3.6c0.8,0.6,1.6,1,2.6,1.2c0.5,0.1,1.1,0.1,1.7,0
		c0.6-0.1,1-0.2,1.5-0.3c0.9-0.2,1.9-0.4,2.8-0.5c0.9-0.1,1.8,0,2.5,0.4c0.1,0,0.2,0.1,0.2,0.2l0.3,0.3c0.3,0.2,0.7,0.3,0.9,0.3
		c0.6,0.1,1.1,0,1.6-0.1c1-0.1,2-0.4,2.9-0.7c1.9-0.6,3.7-1.3,5.5-2.1c0.1,0,0.1-0.1,0.1-0.2C193.1,123.7,193,123.6,192.9,123.7z
		 M112.3,120.3C112.3,120.3,112.3,120.3,112.3,120.3C112.3,120.3,112.3,120.3,112.3,120.3z M170.4,98.4l2.6-2l3.6-2.8l-5.9,4.8
		C170.6,98.3,170.5,98.3,170.4,98.4z"/>
	<circle cx="125.7" cy="122.7" r="0.8"/>
	<path d="M348.3,122.4c-1.5-0.3-2.9-0.3-4.4-0.3c-1.5,0-2.9,0-4.4,0.1c-0.7,0-1.5,0.1-2.1,0c-0.7,0-1.3-0.2-2-0.5
		c-0.7-0.3-1.3-0.6-2.1-0.8c-0.7-0.2-1.5-0.3-2.3-0.3c-1.6,0.1-3,0.7-4.3,1.1c-0.2,0.1-0.4,0.1-0.5,0.1c0,0,0,0,0-0.1
		c0-0.2-0.1-0.4-0.1-0.7c-0.3-0.8-0.8-1.5-1.4-2c-0.7-0.5-1.4-0.9-2.4-0.9c-0.8,0-1.5,0.2-2.3,0.3c-1.5,0.3-2.9,0.6-4.3,1l-0.1,0
		l0,0c-0.8,0.3-1.6,0.6-2.4,0.8c-0.4,0.1-0.8,0.2-1.1,0.2c0,0-0.1,0-0.1,0l0-0.2c0-0.2-0.1-0.5-0.3-0.9c-0.2-0.3-0.6-0.5-0.9-0.6
		c-0.6-0.2-1.1-0.1-1.6,0c-0.9,0.2-1.8,0.4-2.6,0.7c-0.7,0.2-1.4,0.5-2.1,0.8c1-1.1,2.2-2,3.4-3c0.1,0,0.1-0.1,0.2-0.1
		c0.1,0,0.1-0.1,0.2-0.1l0.1-0.1c0,0,0.1,0,0.2-0.2l0-0.1c0.1-0.2,0.1-0.4-0.1-0.6c-0.2-0.3-0.6-0.3-0.9-0.1l0,0
		c-0.2,0.1-0.3,0.3-0.5,0.4c0,0,0,0,0,0c-0.2,0.1-0.4,0.2-0.6,0.3c-0.4,0.2-0.8,0.4-1.2,0.6c-0.8,0.4-1.7,0.8-2.5,1.2
		c-1.7,0.8-3.4,1.5-5.1,2.2c-0.5,0.2-1,0.4-1.4,0.5c0.1-0.1,0.2-0.2,0.3-0.2c1.4-1.1,2.9-2.2,4.5-3.2l0,0c0,0,0,0,0,0
		c0.3-0.2,0.3-0.6,0.2-0.8c-0.2-0.3-0.6-0.4-0.9-0.2l0,0c0,0,0,0-0.1,0c-2.1,1.5-4.4,2.8-6.7,3.9c-1.2,0.5-2.4,1-3.7,1.3l-0.2,0.1
		c1-0.7,2.1-1.4,3.2-2.2c0.6-0.4,1.1-0.8,1.6-1.3c0.3-0.3,0.5-0.5,0.7-1.1c0-0.2,0-0.4-0.1-0.6c-0.1-0.2-0.3-0.4-0.4-0.4
		c-0.3-0.2-0.5-0.2-0.7-0.2c-1.5-0.2-2.9,0.1-4.2,0.5c-1.3,0.4-2.5,1-3.7,1.7c-1,0.6-2,1.2-3,1.8c0.2-0.4,0.4-0.7,0.6-1.1
		c0.1-0.2,0.2-0.3,0.3-0.5c0-0.1,0-0.1,0.1-0.2c0,0,0-0.1,0-0.2c0,0-0.1-0.4-0.3-0.5c-0.1-0.1-0.2-0.1-0.3-0.1c-0.1,0-0.1,0-0.1,0
		c-0.1,0-0.2,0-0.2,0c-0.1,0-0.2,0-0.2,0.1c-0.4,0.2-0.7,0.3-1,0.5l-1.8,0.9c-1.1,0.6-2.3,1.1-3.5,1.6c0.3-0.3,0.5-0.6,0.8-0.9
		l1.4-1.4l0.7-0.7c0.1-0.1,0.2-0.3,0.4-0.4c0.1-0.2,0.3-0.3,0.4-0.8c0-0.1,0-0.1,0-0.2c0-0.1,0-0.2-0.1-0.3
		c-0.1-0.2-0.2-0.3-0.4-0.3c-0.2-0.1-0.4-0.1-0.5-0.1c-0.3,0-0.4,0-0.6,0.1c-0.4,0.1-0.7,0.2-1,0.3c-0.7,0.2-1.3,0.4-1.9,0.7
		c-1.2,0.5-2.3,0.9-3.4,1.5l-0.1,0c-0.1,0-0.2,0-0.3,0c-0.1,0-0.3,0.1-0.4,0.1c-0.2,0.1-0.5,0.1-0.7,0.2c-0.4,0.2-0.9,0.3-1.3,0.5
		c-0.9,0.3-1.7,0.7-2.5,1.1l-3.8,1.7c1.3-1,2.6-1.9,4-2.8l9-6.2c0.8-0.5,1.5-1.1,2.2-1.6c0.4-0.3,0.7-0.5,1.1-1.1
		c0-0.1,0.2-0.2,0.1-0.7c0-0.1-0.1-0.2-0.3-0.3c-0.1-0.1-0.1-0.1-0.2-0.1c-0.1,0-0.2,0-0.3,0c-0.2,0-0.3,0.1-0.5,0.1
		c-0.3,0.1-0.5,0.2-0.7,0.2c-1.8,0.7-3.4,1.5-5,2.4c-6.5,3.3-12.9,6.9-19.2,10.7c-1.4,0.8-2.8,1.8-4.2,2.4c0.2-0.3,0.4-0.5,0.7-0.8
		c0.6-0.7,1.3-1.3,1.9-1.9c2.2-2.1,4.5-4.2,6.8-6.2c1.7-1.2,3.4-2.4,5.1-3.7c8.1-5.8,16.2-11.8,24.2-17.7c8-6,16.1-12,24-18
		l11.9-9.1l5.9-4.6c2-1.6,3.9-3,5.9-4.8l0,0c0.3-0.2,0.3-0.6,0-0.9c-0.2-0.3-0.6-0.3-0.9,0l0,0c-1.8,1.6-3.8,3.2-5.8,4.7l-5.9,4.6
		l-11.9,9.1c-8,6.1-16,12.1-24,18.1c-8,6-16.1,11.9-24.2,17.8c-4.1,2.9-8.1,5.8-12.2,8.7c-2.1,1.4-4.2,2.8-6.3,4
		c-0.3,0.2-0.5,0.3-0.8,0.4c-0.2,0.1-0.5,0.2-0.8,0.2c0,0-0.1,0-0.1,0c0.8-0.7,1.8-1.3,2.7-1.8l0,0c0.1-0.1,0.2-0.2,0.2-0.3
		c0.1-0.3,0-0.7-0.3-0.8l0,0c-0.9-0.3-1.5-0.1-2.2-0.1c-0.7,0-1.3,0.1-1.9,0.2l-1.9,0.2c1.5-1.2,2.8-2.6,4.1-4.2c0,0,0,0,0,0
		c0.3-0.3,0.2-0.8-0.1-1.1c-0.3-0.3-0.8-0.2-1.1,0.1l0,0c-1.5,1.9-3.3,3.7-5.2,5.1c0,0,0,0-0.1,0c-0.1,0-0.1,0.1-0.2,0.2
		c-2,1.5-4.2,2.6-6.5,3.3c-0.2,0.1-0.5,0.1-0.7,0.2c0.2-0.2,0.3-0.4,0.5-0.6c0.8-0.9,1.8-1.7,2.8-2.6c1.9-1.6,4-3.2,6-4.7l0.1,0
		c0.2-0.1,0.3-0.4,0.2-0.7c-0.1-0.3-0.4-0.5-0.7-0.4l0,0c-1.3,0.4-2.3,0.9-3.4,1.4c-1.1,0.5-2.1,1-3.2,1.5l-6.3,3.1
		c-0.6,0.2-1.2,0.5-1.8,0.6c-0.3,0.1-0.6,0.1-0.7,0.1c0-0.1,0.1-0.2,0.1-0.2c0.7-1,1.7-1.8,2.7-2.7c1.9-1.7,4-3.4,6-5
		c4.1-3.2,8.2-6.4,12.4-9.5c2.1-1.5,4.2-3.1,6.3-4.6c2.1-1.5,4.3-2.9,6.4-4.5c4.2-3.1,8.3-6.3,12.5-9.5
		c16.5-12.8,32.9-25.7,49.3-38.7c0.3-0.2,0.3-0.6,0.1-0.9c-0.2-0.3-0.6-0.3-0.9-0.1l0,0c-25.3,18.7-50.6,37.2-76.2,55.4
		c-2.6,1.9-5.2,3.7-7.8,5.5c-0.8-0.4-1.6-0.5-2.4-0.6c-1-0.1-2.1,0-3,0.2c-2,0.3-3.9,1.1-5.7,2c-3.6,1.8-6.8,4.1-9.9,6.5
		c-3.1,2.4-6.2,4.9-9.1,7.5c-1.5,1.3-2.9,2.7-4.2,4.2c-0.3,0.4-0.6,0.8-0.9,1.4c-0.1,0.2-0.1,0.4-0.1,0.7c0,0.4,0.4,0.7,0.7,0.8
		c0.5,0.1,0.8,0,1,0c1.1-0.3,2-0.7,2.9-1.1c3.6-1.8,6.9-4,10.2-6.1c3.3-2.1,6.5-4.4,9.8-6.6c6.5-4.4,12.9-9,19.3-13.5
		C259,91.9,275,80.3,291,68.6c-7.3,5.7-14.6,11.5-22,17.2c-4.1,3.2-8.3,6.4-12.4,9.5c-2.1,1.5-4.3,3-6.4,4.5
		c-2.1,1.5-4.2,3.1-6.3,4.6c-4.2,3.1-8.4,6.3-12.5,9.5c-2,1.6-4.1,3.3-6,5.1c-0.9,0.9-1.9,1.8-2.7,3c-0.1,0.2-0.2,0.3-0.2,0.6
		c0,0.1,0,0.3,0.1,0.5c0.1,0.2,0.3,0.2,0.4,0.2c0.5,0.1,0.8-0.1,1.1-0.1c0.7-0.2,1.3-0.4,1.9-0.7l0,0c2.1-1,4.2-2,6.4-3
		c0.9-0.4,1.8-0.8,2.8-1.2c-1,0.8-2,1.5-2.9,2.3c-1,0.8-2,1.7-2.9,2.6c-0.2,0.2-0.5,0.5-0.7,0.8c-0.1,0.2-0.2,0.3-0.3,0.5
		c-0.1,0.2-0.2,0.5-0.1,1c0.1,0.3,0.3,0.5,0.5,0.6c0.2,0.1,0.3,0.1,0.5,0.1c0.3,0,0.4,0,0.7,0c0.4-0.1,0.7-0.1,1-0.2
		c2.6-0.7,5-2,7.1-3.5c0.2-0.1,0.4-0.3,0.6-0.4c0.4-0.1,0.8-0.2,1.1-0.2c0.6-0.1,1.3-0.1,1.9-0.1c0.6,0,1.3,0,1.9,0
		c0.1,0,0.3,0,0.4,0c-0.7,0.5-1.3,1-2,1.6c-0.1,0.1-0.3,0.3-0.4,0.5c-0.1,0.1-0.2,0.4,0,0.7c0.2,0.3,0.4,0.4,0.5,0.4
		c0.5,0.1,0.8,0,1.2,0c0.3-0.1,0.6-0.1,1-0.3c0.4-0.1,0.7-0.3,0.9-0.5c2.2-1.3,4.3-2.7,6.3-4.1c0.7-0.5,1.3-0.9,2-1.4
		c-0.7,0.7-1.5,1.3-2.2,2c-0.7,0.6-1.3,1.3-2,2c-0.3,0.3-0.6,0.7-0.9,1.1c-0.1,0.2-0.3,0.4-0.4,0.8c0,0.1,0,0.4,0.2,0.6
		c0.2,0.2,0.4,0.1,0.5,0.1c0.2,0,0.3,0,0.5-0.1c1.9-0.7,3.3-1.7,4.9-2.6c6.3-3.7,12.7-7.2,19.2-10.5c1-0.5,1.9-0.9,2.9-1.4
		c-0.2,0.2-0.4,0.3-0.7,0.5l-9.1,6.2c-1.5,1-3,2.1-4.5,3.2c-0.8,0.6-1.5,1-2.2,1.8c-0.1,0.1-0.1,0.1-0.2,0.2l-0.1,0.2
		c0,0-0.1,0.4,0,0.6c0,0.2,0.3,0.4,0.5,0.5c0.1,0,0.2,0,0.2,0c0.2,0,0.2,0,0.3,0c0.3-0.1,0.5-0.1,0.7-0.2c0.5-0.2,0.9-0.4,1.3-0.5
		l5-2.3c0.8-0.4,1.7-0.7,2.5-1.1c0.4-0.2,0.8-0.3,1.3-0.5c0.2-0.1,0.4-0.1,0.6-0.2c0.1,0,0.2-0.1,0.3-0.1c0,0,0.1,0,0.1,0
		c0,0,0,0-0.1,0c0,0,0,0-0.2-0.1c-0.1-0.1-0.2-0.1-0.3-0.4c0-0.3,0-0.3,0.1-0.4l0.8,0.9l0,0c1.2-0.5,2.4-1.1,3.6-1.6
		c0.6-0.2,1.2-0.5,1.8-0.7c0.2,0,0.3-0.1,0.4-0.1l-0.5,0.5l-1.4,1.4c-0.5,0.5-0.9,1-1.4,1.6c-0.1,0.2-0.2,0.3-0.3,0.7
		c-0.1,0.1,0,0.7,0.4,0.9c0.3,0.1,0.4,0.1,0.6,0.1c0.5-0.1,0.8-0.2,1.1-0.3c1.3-0.5,2.5-1.1,3.7-1.7l1.4-0.7
		c-0.2,0.3-0.3,0.6-0.5,0.9c-0.1,0.2-0.2,0.3-0.2,0.5l-0.1,0.2c0,0.1,0,0.1,0,0.3c0,0.1,0,0.1,0,0.2c0,0.1,0.1,0.2,0.2,0.3
		c0.2,0.2,0.4,0.2,0.6,0.2c0.1,0,0.2,0,0.3,0l0.2-0.1c0.1,0,0.2-0.1,0.3-0.1c0.2-0.1,0.3-0.2,0.5-0.3c1.2-0.7,2.3-1.4,3.4-2
		c1.1-0.6,2.3-1.2,3.5-1.6c1.2-0.4,2.5-0.6,3.6-0.5c0,0,0,0,0,0c-0.1,0.1-0.2,0.2-0.3,0.3c-0.4,0.4-1,0.8-1.5,1.2
		c-1.1,0.8-2.2,1.5-3.3,2.2c-0.3,0.2-0.6,0.4-0.8,0.6c-0.1,0.1-0.3,0.2-0.4,0.4c-0.1,0.1-0.2,0.2-0.3,0.6c0,0.1,0,0.3,0.1,0.4
		c0.1,0.1,0.2,0.2,0.2,0.3c0.2,0.1,0.3,0.1,0.3,0.1c0.6,0.1,0.8,0,1.2-0.1l1-0.2c1.3-0.3,2.6-0.8,3.9-1.4c0,0,0.1,0,0.1-0.1
		c0,0,0,0.1-0.1,0.2c0,0.1,0,0.2,0,0.4c0,0.2,0.2,0.4,0.3,0.4c0.2,0.1,0.4,0.2,0.5,0.2c0.2,0,0.4,0,0.5,0c1-0.2,1.9-0.6,2.8-0.9
		c1.7-0.7,3.4-1.5,5.1-2.2c0,0,0,0,0.1,0c-0.1,0.1-0.2,0.2-0.3,0.4c-0.1,0.2-0.3,0.3-0.4,0.9c0,0.1,0,0.2,0,0.3
		c0,0.1,0.1,0.2,0.2,0.4c0.1,0.2,0.4,0.3,0.5,0.3c0.1,0,0.2,0,0.3,0l0.2,0c0.3,0,0.5-0.1,0.8-0.2c0.9-0.3,1.7-0.6,2.5-0.9
		c0.8-0.3,1.6-0.5,2.4-0.7c0.4-0.1,0.8-0.1,1,0c0.1,0,0.1,0.1,0.2,0.1c0,0.1,0.1,0.2,0.1,0.4l0.1,0.3c0,0,0,0,0,0.1
		c0,0.1,0.1,0.2,0.1,0.2c0.1,0.2,0.2,0.3,0.3,0.3c0.5,0.3,0.8,0.2,1,0.2c0.5,0,1-0.1,1.4-0.3c0.9-0.2,1.7-0.5,2.5-0.9
		c1.4-0.4,2.8-0.7,4.2-1c0.7-0.1,1.4-0.3,2-0.3c0.5,0,1.1,0.3,1.6,0.6c0.5,0.4,0.9,0.9,1.1,1.4c0,0.1,0.1,0.3,0.1,0.4
		c0,0.2,0.1,0.6,0.4,0.9c0.4,0.3,0.7,0.2,0.9,0.2c0.2,0,0.4-0.1,0.6-0.1c1.5-0.5,2.7-1.1,4.1-1.2c0.7-0.1,1.4,0,2,0.2
		c0.7,0.2,1.3,0.5,2,0.7c0.7,0.3,1.5,0.5,2.2,0.5c0.8,0,1.5-0.1,2.2-0.1c2.9-0.1,5.8-0.5,8.7-0.1l0,0c0.1,0,0.1,0,0.2-0.1
		C348.5,122.5,348.4,122.4,348.3,122.4z M222.9,116c-3.2,2.2-6.5,4.4-9.8,6.6c-1.6,1-3.3,2.2-5,3.1c-1.7,1-3.4,2-5.1,2.8
		c-0.9,0.4-1.8,0.8-2.6,1c0,0,0,0,0,0c0.1-0.2,0.3-0.5,0.5-0.8c1.2-1.5,2.6-2.8,4.1-4.1c2.9-2.6,5.9-5.1,9-7.5
		c1.6-1.2,3.1-2.3,4.7-3.4c1.6-1.1,3.2-2.1,5-3c1.7-0.9,3.5-1.6,5.3-2c1.5-0.3,3.2-0.5,4.6-0.2C230.1,111,226.5,113.5,222.9,116z
		 M288.4,122.8C288.4,122.8,288.4,122.8,288.4,122.8L288.4,122.8z M307.4,115.9C307.4,115.9,307.4,115.9,307.4,115.9L307.4,115.9z
		 M312,120.5C312,120.5,312,120.6,312,120.5C312,120.6,312,120.6,312,120.5z"/>
</g>
</svg>
