<svg id="Lag_1" data-name="Lag 1" xmlns="http://www.w3.org/2000/svg" viewBox="0 0 36.35 42.95"><path d="M38.78,16.15a2.26,2.26,0,0,0,.82.16,2.19,2.19,0,0,0,1.7-.8A2.22,2.22,0,0,0,41,12.37l-1.73-1.46a2.23,2.23,0,0,0-3.67,1.89,2.19,2.19,0,0,0,.32,1l-.47.55a17.94,17.94,0,0,0-8.67-3.7V9.35a2.76,2.76,0,0,0,1.6-2.49V6.24a2.75,2.75,0,0,0-2.75-2.75H23.08a2.75,2.75,0,0,0-2.74,2.75v.62A2.74,2.74,0,0,0,21.9,9.33v1.29a18,18,0,0,0-9.2,4.13l-.83-1a2.19,2.19,0,0,0,.32-1A2.23,2.23,0,0,0,10,10.38a2.22,2.22,0,0,0-1.44.53L6.79,12.37a2.22,2.22,0,0,0-.26,3.14,2.19,2.19,0,0,0,1.7.8,2.3,2.3,0,0,0,.82-.16l1.09,1.29a18,18,0,1,0,28-.54ZM24.36,44.8A16.35,16.35,0,0,1,11.23,18.71l.38-.49a16.36,16.36,0,0,1,1.71-1.82l.44-.39a16.26,16.26,0,0,1,8.14-3.72l.58-.08.59-.06c.43,0,.85-.05,1.29-.05s.86,0,1.28.05l.59.06.59.08a16.27,16.27,0,0,1,7.61,3.29l.46.37.44.39c.33.3.65.61,1,.94l.4.44.39.46A16.34,16.34,0,0,1,24.36,44.8ZM8.23,15.13a1.06,1.06,0,0,1-.68-1.87l1.73-1.45a1.06,1.06,0,0,1,1.49.12,1,1,0,0,1,.24.77,1,1,0,0,1-.14.45,1.18,1.18,0,0,1-.23.27L8.91,14.88a.92.92,0,0,1-.3.18A1.22,1.22,0,0,1,8.23,15.13Zm2.82-.51.78.93c-.32.31-.63.63-.93,1l-.87-1ZM21.52,6.24a1.56,1.56,0,0,1,1.56-1.57h2.59a1.57,1.57,0,0,1,1.57,1.57v.62a1.57,1.57,0,0,1-.58,1.21,1.55,1.55,0,0,1-1,.35H23.08a1.57,1.57,0,0,1-1-.37,1.55,1.55,0,0,1-.55-1.19ZM23.07,9.6h2.57v.9c-.42,0-.85-.05-1.28-.05s-.86,0-1.29.05Zm13.32,5.48.39-.46,1,.86-.45.53Q36.89,15.53,36.39,15.08Zm4-.33a1,1,0,0,1-.8.38,1.22,1.22,0,0,1-.38-.07,1.09,1.09,0,0,1-.31-.18l-1.72-1.46a1,1,0,0,1-.23-.27,1.14,1.14,0,0,1-.15-.45,1.09,1.09,0,0,1,.25-.77,1.06,1.06,0,0,1,1.49-.12l1.73,1.45A1.06,1.06,0,0,1,40.4,14.75Z" transform="translate(-6 -3.49)" style="fill:#808284"/><path d="M26.05,14.44a13.46,13.46,0,0,0-1.69-.1,13.62,13.62,0,0,0-1.7.1,14.12,14.12,0,1,0,3.39,0ZM24.36,40.92A12.47,12.47,0,1,1,36.82,28.45,12.49,12.49,0,0,1,24.36,40.92Z" transform="translate(-6 -3.49)" style="fill:#808284"/><path d="M24.36,20.53a.82.82,0,0,0,.82-.82V17.09a.83.83,0,1,0-1.65,0v2.62A.82.82,0,0,0,24.36,20.53Z" transform="translate(-6 -3.49)" style="fill:#808284"/><path d="M24.36,36.37a.83.83,0,0,0-.83.82v2.62a.83.83,0,1,0,1.65,0V37.19A.82.82,0,0,0,24.36,36.37Z" transform="translate(-6 -3.49)" style="fill:#808284"/><path d="M19.39,18.2A.82.82,0,0,0,18,19l1.31,2.27a.83.83,0,0,0,.72.42.87.87,0,0,0,.41-.11.83.83,0,0,0,.3-1.13Z" transform="translate(-6 -3.49)" style="fill:#808284"/><path d="M29.44,35.61a.81.81,0,0,0-1.12-.3A.82.82,0,0,0,28,36.43l1.32,2.27a.82.82,0,0,0,.71.42.87.87,0,0,0,.41-.11.82.82,0,0,0,.3-1.13Z" transform="translate(-6 -3.49)" style="fill:#808284"/><path d="M17.2,23.37l-2.27-1.31a.82.82,0,0,0-1.13.3.83.83,0,0,0,.3,1.12l2.28,1.31a.77.77,0,0,0,.41.11.81.81,0,0,0,.71-.41A.82.82,0,0,0,17.2,23.37Z" transform="translate(-6 -3.49)" style="fill:#808284"/><path d="M34.61,33.42l-2.27-1.31a.82.82,0,1,0-.83,1.42l2.28,1.32a.87.87,0,0,0,.41.11.83.83,0,0,0,.41-1.54Z" transform="translate(-6 -3.49)" style="fill:#808284"/><path d="M16.44,28.45a.82.82,0,0,0-.82-.82H13a.82.82,0,1,0,0,1.64h2.63A.82.82,0,0,0,16.44,28.45Z" transform="translate(-6 -3.49)" style="fill:#808284"/><path d="M35.72,27.63H33.1a.82.82,0,1,0,0,1.64h2.62a.82.82,0,0,0,0-1.64Z" transform="translate(-6 -3.49)" style="fill:#808284"/><path d="M16.38,32.11,14.1,33.42A.83.83,0,0,0,14.52,35a.87.87,0,0,0,.41-.11l2.27-1.32a.82.82,0,0,0-.82-1.42Z" transform="translate(-6 -3.49)" style="fill:#808284"/><path d="M31.21,24.49a.82.82,0,0,0,.72.41.77.77,0,0,0,.41-.11l2.27-1.31a.82.82,0,0,0,.3-1.12.81.81,0,0,0-1.12-.3l-2.28,1.31A.83.83,0,0,0,31.21,24.49Z" transform="translate(-6 -3.49)" style="fill:#808284"/><path d="M20.4,35.31a.82.82,0,0,0-1.13.3L18,37.88a.84.84,0,0,0,.3,1.13.91.91,0,0,0,.42.11.82.82,0,0,0,.71-.42l1.31-2.27A.82.82,0,0,0,20.4,35.31Z" transform="translate(-6 -3.49)" style="fill:#808284"/><path d="M28.32,21.6a.87.87,0,0,0,.41.11.82.82,0,0,0,.71-.42L30.75,19a.82.82,0,0,0-1.42-.82L28,20.47A.83.83,0,0,0,28.32,21.6Z" transform="translate(-6 -3.49)" style="fill:#808284"/><path d="M32.15,21.22a.58.58,0,0,0-.75-.09l-7.17,4.69A2.63,2.63,0,1,0,27,28.67L32.18,22A.58.58,0,0,0,32.15,21.22Zm-7.79,8.21a1,1,0,1,1,1-1A1,1,0,0,1,24.36,29.43Zm2.29-2.26a2.59,2.59,0,0,0-.89-.94l3.32-2.18Z" transform="translate(-6 -3.49)" style="fill:#808284"/></svg>