<svg id="Lag_1" data-name="Lag 1" xmlns="http://www.w3.org/2000/svg" viewBox="0 0 46.62 32"><path d="M14.35,31.21a4.9,4.9,0,1,0,4.89,4.9A4.91,4.91,0,0,0,14.35,31.21Zm0,8.3a3.41,3.41,0,1,1,3.4-3.4A3.41,3.41,0,0,1,14.35,39.51Z" transform="translate(-2.53 -9)" style="fill:#808284"/><path d="M14.35,34.06a2,2,0,1,0,2,2A2.05,2.05,0,0,0,14.35,34.06Z" transform="translate(-2.53 -9)" style="fill:#808284"/><path d="M39.36,31.21a4.9,4.9,0,1,0,4.89,4.9A4.9,4.9,0,0,0,39.36,31.21Zm0,8.3a3.41,3.41,0,1,1,3.41-3.4A3.41,3.41,0,0,1,39.36,39.51Z" transform="translate(-2.53 -9)" style="fill:#808284"/><path d="M39.36,34.06a2,2,0,1,0,2,2A2,2,0,0,0,39.36,34.06Z" transform="translate(-2.53 -9)" style="fill:#808284"/><path d="M48.69,21.45l-4.1-1.72c-.52-.93-2.51-4.38-4.07-5.74a.74.74,0,0,0-.49-.18H34V9.74A.75.75,0,0,0,33.2,9H3.27a.74.74,0,0,0-.74.74V27.89a.74.74,0,0,0,.74.75H4.56v5.42a.76.76,0,0,0,.75.75H8.58a.73.73,0,0,0,.7-.5,5.38,5.38,0,0,1,10.13,0,.73.73,0,0,0,.7.5H33.6a.75.75,0,0,0,.7-.5,5.37,5.37,0,0,1,10.12,0,.75.75,0,0,0,.7.5h3.29a.75.75,0,0,0,.74-.75V22.13A.73.73,0,0,0,48.69,21.45ZM34,15.3h5.78a30.53,30.53,0,0,1,3.67,5.37.75.75,0,0,0,.37.33l3.88,1.63v4.6H34ZM4,12.66H5.89V25H4Zm2.83,0h2V25h-2Zm3,0h2V25h-2Zm3,0h2V25h-2Zm3,0h2V25h-2Zm2.95,0h2V25h-2Zm3,0h2V25h-2Zm2.95,0h2V25h-2Zm2.95,0h2V25h-2Zm3,0h2V25h-2ZM4,10.49H32.46V11.6H4ZM4,27.15v-1H32.46v1Zm43.64,6.17h-2a6.86,6.86,0,0,0-12.53,0H20.61a6.86,6.86,0,0,0-12.53,0h-2v-4.6H47.66Z" transform="translate(-2.53 -9)" style="fill:#808284"/><path d="M38.78,16.58H34.86v4.64h7.23l0-.07A33.22,33.22,0,0,0,38.78,16.58Z" transform="translate(-2.53 -9)" style="fill:#808284"/><rect x="33.39" y="13.98" width="2.35" height="0.86" style="fill:#808284"/></svg>