<svg id="Lag_1" data-name="Lag 1" xmlns="http://www.w3.org/2000/svg" xmlns:xlink="http://www.w3.org/1999/xlink" viewBox="0 0 33.56 19.58"><defs><clipPath id="clip-path" transform="translate(-183.71 -189.91)"><rect x="183.71" y="189.91" width="33.56" height="19.58" style="fill:none"/></clipPath></defs><g id="UNITED_KINGDOM" data-name="UNITED KINGDOM"><g style="clip-path:url(#clip-path)"><rect width="33.56" height="19.58" style="fill:#fff"/><polygon points="22.47 7.08 33.56 0.87 33.56 0 32.8 0 20.15 7.08 22.47 7.08" style="fill:#bd0034"/><polygon points="21.95 12.89 33.56 19.39 33.56 18.09 24.27 12.89 21.95 12.89" style="fill:#bd0034"/><polygon points="0 1.49 9.94 7.08 12.26 7.08 0 0.19 0 1.49" style="fill:#bd0034"/><polygon points="11.73 12.89 0 19.46 0 19.58 2.12 19.58 14.05 12.89 11.73 12.89" style="fill:#bd0034"/><polygon points="31.27 0 19.52 0 19.52 6.58 31.27 0" style="fill:#1a237b"/><polygon points="14.33 0 2.62 0 14.33 6.58 14.33 0" style="fill:#1a237b"/><polygon points="33.56 7.08 33.56 2.59 25.59 7.08 33.56 7.08" style="fill:#1a237b"/><polygon points="33.56 17.34 33.56 12.89 25.59 12.89 33.56 17.34" style="fill:#1a237b"/><polygon points="3.29 19.58 14.33 19.58 14.33 13.39 3.29 19.58" style="fill:#1a237b"/><polygon points="19.52 19.58 30.59 19.58 19.52 13.39 19.52 19.58" style="fill:#1a237b"/><polygon points="0 12.89 0 17.54 8.25 12.89 0 12.89" style="fill:#1a237b"/><polygon points="0 7.08 8.25 7.08 0 2.43 0 7.08" style="fill:#1a237b"/><polygon points="15.36 0 15.36 8.24 0 8.24 0 11.73 15.36 11.73 15.36 19.58 18.48 19.58 18.48 11.73 33.56 11.73 33.56 8.24 18.48 8.24 18.48 0 15.36 0" style="fill:#bd0034"/></g></g></svg>