<svg id="Lag_1" data-name="Lag 1" xmlns="http://www.w3.org/2000/svg" viewBox="0 0 317.73 373.88"><path d="M347.68,302.78s0-.1,0-.15a.51.51,0,0,0-.52-.59c-6.3-9.55-8.16-20-7-31.4.62-6.26,3.27-14.42,1.65-20.61a.69.69,0,0,0-.21-.32c1.93-3.23,3.1-7,4.56-10.94,2.37-6.45,7.15-14.7,4.17-21.38,1.54-3,3.22-6,5.14-9.1,3.19-5.06,4.33-9.36-.4-13.71a25.94,25.94,0,0,0-6.33-3.91.38.38,0,0,0-.54-.27c-.84-.41-1.68-.83-2.47-1.26-4.54-2.49-9.22-5.44-14-7.44-4.12-1.73-8.55-2.3-12.83-3.4,1.19.31-11.6-3.4-11-2.21a.79.79,0,0,0-.66-.46c-1.34-1.53-3.24-3-5.26-3.26h-.26a6.74,6.74,0,0,0,.24-.88c1-5.53-3.85-13.47-5.94-18.29-5-11.49-10.68-23.19-14.34-35.2-8.18-26.8-17.12-55.9-34.78-78.26C239,29.75,230.27,18.62,217.4,15c-11.37-3.2-23.05-1.68-31.83,6.41-17.76,16.35-27.5,39.9-37.35,61.43-3.39,7.43-5.21,14.62-7.69,22.39-2.32,7.26-5.41,14.2-7.41,21.55-2.32,8.54-4.72,17.09-7.11,25.61-1.88,6.67-3.36,14.63-6.17,21.34h0c-10.12,2-20.5,2-30.48,4.72-9.76,2.67-22.25,4.34-30.46,10.7-6.85,5.31-5.05,11.16-.09,17.08q3,3.61,5.7,7.39a3.86,3.86,0,0,0,.15.72s0,.06.06.1a43,43,0,0,0-1.38,4.1,36.77,36.77,0,0,0-1.49,6c-.27,1.69-.43,3.41-.72,5.06-.13.71-.18,2.5-.57,3a.59.59,0,0,0-.11.48c-5.86.47-8,5.83-9.77,11.77A53.44,53.44,0,0,0,50,269.78c-3.66.37-7,1.85-8.46,5.38a14.44,14.44,0,0,0,1.26,12.93c-.39,4.25-1.38,21.14-1.3,22.78.39,8.08,1.22,16.21,1.85,24.29,1.21,15.74,6,33.43,19.11,43.4,5.21,3.95,11.72,4,17.88,5.44,5.54,1.27,10.23.44,15.24-1.71l0,0c1.77,1.33,5.13.26,7.13-.89a2.82,2.82,0,0,0,1.26.07,1.54,1.54,0,0,0,1,0c5.63-1.55,11.33,1.28,17.09,1,5-.21,9.78-.7,14.85-.68,11.59.06,23,.91,34.65.81,2.7,0,5.36.18,8,.41-.09.46.25,1,.79.83a10.84,10.84,0,0,0,1.32-.66c2.35.2,4.71.39,7.1.41.66,0,1.32,0,2,0a.73.73,0,0,0,.56.29,4.55,4.55,0,0,0,1.32-.3c4.13-.08,8.27-.27,12.38-.15q18.7.56,37.53.57c12.2,0,24.57.17,36.68.92,5.42.34,10.74,1.61,16.13,2.12,4.76.44,9.53-.21,14.36.07,5,.29,9.65-.52,14.58-.7,3.82-.14,7,.24,9.83-2.73a28.62,28.62,0,0,0,6.53-13.17,7.8,7.8,0,0,0,1.69,2.43,1.94,1.94,0,0,0,1.94.51c4.76-1.91,7.22-6.74,8.13-11.64.61-3.31-.31-6.12-.87-9.34a86,86,0,0,1-.79-11.37,1.31,1.31,0,0,0,.82-.23c2.76-2,3-6.51,2.55-10.07C361.11,325.07,351.87,308.94,347.68,302.78Zm-1.43,4a25,25,0,0,1,2.43,4.63c-.67,1.07-1.23,2.21-1.81,3.36-.48.93-1,1.82-1.58,2.7q-1.34-2.26-2.56-4.56c.51-1.1,1-2.19,1.63-3.26s1.21-2,1.79-3A1.3,1.3,0,0,0,346.25,306.74Zm-57.17-36a193.42,193.42,0,0,1-.95-20c0-2.9.21-5.77-.07-8.6,4.44.66,9.36.71,12.71-2,2.94.76,6.31,1.6,7.16,3.09s-.08,5.92-.09,7.91q0,4.6,0,9.21c0,5.87-.11,11.74-.12,17.61,0,.44.07,1.19.14,2a35.09,35.09,0,0,1-2.85,3.52c-.58.62.31,1.39.88.88l0,0a27.7,27.7,0,0,0,2.07-2.27,6.35,6.35,0,0,1-.28,2.33c-2.15,4.91-2.61,1.33-5.17,2.05-4.27,1.19-10,2.34-12.31-1.91C288.39,281.32,289.52,274.58,289.08,270.73Zm11.21-74.06c.18,2,.76,3.79.55,5.8-.24,2.49-.46,5.39-.82,7.83-.85,5.75-3.86,2.06-7,2.16-2.15.06-5.06,2.32-6.72-.26.46.72-.23-3.25-.24-3.25a36.55,36.55,0,0,1-.5-6.07c0-1.15-.2-2.49-.28-3.84,0,0,0-.06,0-.1a.47.47,0,0,0-.06-.37c-.08-2.24.2-4.43,2.07-5.72,3.42-2.35,8.21-.66,12.15-1.54a4.2,4.2,0,0,0,.51,1.76,5.75,5.75,0,0,0,.42.63A21.62,21.62,0,0,0,300.29,196.67Zm-11.35,20.16c2.71-.23,4-.86,6.64.14,3.14,1.19,5.78,1,7.41-2.37a11.64,11.64,0,0,0,.79-5c.08-2.52.7-4.95.79-7.47a17.5,17.5,0,0,0-.14-2.78c10.72,1.1,9.73,18.45,9.44,26.39-.28,7.52,1.28,16.45-1.91,23.22.29-3.8.33-7.85-1.24-9.91a5.05,5.05,0,0,0-2.08-1.52c1.07-4.32,2.54-8.34,2.5-12.95,0-2.13-.86-4.17-1.32-6.21-.39-1.71-.39-2.32-1.68-3.51a.3.3,0,0,0-.47.36c.58,1.32,0,3.4.08,4.86a30.78,30.78,0,0,1-.27,8.51,26,26,0,0,0-.37,8.45c-3.17-.73-7.29-.23-9.72.1a1,1,0,0,0-.73,1.23c-1,.06-2,.14-3,.26a26.53,26.53,0,0,1-6.37-.19c-.05-.12-.07-.24-.11-.36a.86.86,0,0,0-.79-.6l-.71,0a1,1,0,0,0-.26,0,75.51,75.51,0,0,1-1-11.25c0-.69-.14-9.58.59-9.82,0,0,.06-.06.09-.09h0A6.44,6.44,0,0,0,288.94,216.83Zm38.87,19.57c5-6.46,10.72-11.83,16.59-17.27-.65,1.42-1.27,2.85-1.85,4.25s-1.14,2.82-1.71,4.27c-6.41,6.24-12.53,12.79-18.37,19.56-2.79,3.24-5.8,6.33-8.49,9.64a32.23,32.23,0,0,0-2.48,3.62c0-1.58-.05-3.17-.05-4.75,0-.32,0-.67,0-1.05,3.94-.57,6.36-2.81,6.8-7.09,0-.29,0-.6.05-.91A61.57,61.57,0,0,0,327.81,236.4Zm-24.17,92.74c0-.39,0-.78,0-1.17a.57.57,0,0,0,.85-.26c3.06-8.32,9.52-15.42,13.88-23.08,2.25-3.94,5.08-6.82,8.09-10.12,1.07-1.18,2.07-2.42,3.05-3.68,0,2.73.14,5.45.31,8.14-1,1.4-2.14,2.73-3.08,4-3,4.12-6.17,8.15-9.1,12.34S312,323.79,309.17,328a73.1,73.1,0,0,0-5.22,9.84C303.9,334.94,303.81,332,303.64,329.14Zm26.67-55.67c-5.71,8-11.64,15.88-17.05,24.1-2.17,3.3-4.38,6.46-6.69,9.65-1.63,2.25-3.46,4.8-3.16,7.71a.66.66,0,0,0,.64.64l1-.05a.49.49,0,0,0,.13-.95c-2.12-.53,3.56-8,4.25-8.94,2.39-3.22,4.38-6.7,6.6-10,4.54-6.87,9.35-13.56,14.08-20.3-.39,4.45-.61,8.91-.64,13.35a59.33,59.33,0,0,1-4.92,5.8,48.17,48.17,0,0,0-7.91,10.05c-2.48,4.2-5.46,8.06-7.94,12.27-1.79,3-4.53,6.32-5.18,9.9-.37-8.82,0-17.72-.1-26.54,0-2.63.73-6.38-.5-8.92a13.61,13.61,0,0,0,4.54.13,4.54,4.54,0,0,0,2.22-1.2l-1.57,2.22c-2,2.81-4.91,6.48-4.58,10.15,0,.34.53.57.71.19,3.62-7.93,8.82-14.68,13.67-21.94,4.37-6.54,8.91-12.95,13.84-19.06Q330.88,267.52,330.31,273.47Zm3.34-22.37c-.54,2.69-1,5.44-1.49,8.2A249.85,249.85,0,0,0,316.72,280c-2,3-4,5.89-6.09,8.8.9-1.82.95-4.26,1-6.33s.06-3.87.06-5.8l1.15-1.86c2.81-4.58,6.36-8.29,9.82-12.36,3.15-3.72,6.2-7.54,9.19-11.39.91-1.18,1.76-2.4,2.62-3.62C334.17,248.69,333.9,249.91,333.65,251.1Zm1.46-6.14c-.89,1.19-1.77,2.4-2.67,3.61-3.32,4.49-6.95,8.86-10.62,13.07-2.83,3.25-6,6.16-8.42,9.76-.59.87-1.16,1.76-1.72,2.65,0-3.61-.08-7.22-.14-10.83.86-1.41,1.58-3,2.56-4.28,2.8-3.81,6.19-7.26,9.21-10.89,5.49-6.59,11.11-13.05,17.08-19.22A165.14,165.14,0,0,0,335.11,245ZM304,341.73l.14-.11a.42.42,0,0,0-.09-.76c2.15-4.06,3.74-8.3,6.32-12.16,3.09-4.63,6-9.37,9.06-14,2.72-4,5.73-7.92,8.58-11.87.6-.84,1.24-1.67,1.86-2.52.09,1.08.14,2.18.25,3.25.26,2.55.53,5.05.83,7.51-1.49,2.84-4.07,5.53-5.47,8-2.62,4.61-6.14,8.76-9.33,13-3.94,5.22-8.53,10.48-12.21,16.16Q304,345,304,341.73Zm32.8-31,0,0v0A.17.17,0,0,1,336.81,310.76Zm.26-9.66c1.09-1.94,2-4,3.05-5.88a44.15,44.15,0,0,0,2.47,5.54.51.51,0,0,0-.34.17,21.36,21.36,0,0,0-3.25,4.48Q338,303.29,337.07,301.1Zm6.05.7s0,0,0,0c.7,1.25,1.48,2.53,2.36,3.83-.9,1.67-2,3.24-2.89,4.92-.17.34-.37.69-.56,1-.8-1.52-1.56-3.08-2.31-4.65A17.5,17.5,0,0,1,343.12,301.8Zm-6.37-22.68A74.36,74.36,0,0,0,339.7,294c-1.18,1.88-2.13,3.88-3.18,5.84-.1-.25-.21-.48-.31-.72a.9.9,0,0,0-.44-.46c-.28-9.06.41-18,.2-27A76.88,76.88,0,0,1,337.44,255a.57.57,0,0,0,.11-.46,17.78,17.78,0,0,0,2.56-2.66C339.44,257,336.48,276.86,336.75,279.12Zm5.06-38.49c-.8,1.81-1.49,3.8-2.3,5.7.8-2.84,1.69-5.71,2.65-8.66a151.46,151.46,0,0,1,6-15.83C348.12,228,343.33,237.21,341.81,240.63Zm-32.35-61.45c7.46,2.26,15.58,4.08,22.42,7.57,4,2.06,7.83,4.71,11.66,7.1a64.33,64.33,0,0,0-11,10.05,73.7,73.7,0,0,1-6.81,7.3c-1.47,1.36-2.58,2.67-2.79,4.69,0,.41.61.49.71.1.7-2.88,3.41-4.3,5.39-6.17s3.44-4.27,5.24-6.35a65.28,65.28,0,0,1,10.1-9.1,61.37,61.37,0,0,1,5.8,3.3c-1.94,1.9-4,3.16-5.78,5.28a30.43,30.43,0,0,1-4.36,3.74c-1.39,1.14-2.35,2.7-3.62,4-2.83,2.82-6.05,5.25-8.88,8.08a103.4,103.4,0,0,0-7.94,9.41.4.4,0,0,0,.56.56c2.89-2.52,5-5.86,7.66-8.59,3-3,6.41-5.64,9.39-8.67,1.11-1.13,1.93-2.55,3.09-3.63s2.86-1.72,4-3,1.76-2.93,3.13-4.13c1.12-1,2.26-1.61,3.28-2.67a8.24,8.24,0,0,1,.74.7c5.11,5.55-.8,9-3.52,13.52-.78,1.3-1.51,2.68-2.2,4.08-4.07,3.62-8.25,7.12-12,11.05-4,4.16-7.13,9-10.94,13.32a39.2,39.2,0,0,1-4.42,4.14c-.06-2-.31-4-.52-6,2-2.39,3.58-5.14,5.68-7.44,3.1-3.41,6.84-6.18,10-9.55,6.13-6.58,13.4-11.85,19.73-18.21a.41.41,0,0,0-.58-.58c-6.58,6.46-13.95,11.94-20.38,18.58-3,3.14-6.6,5.75-9.56,9a63.42,63.42,0,0,0-5,6.42c0-.62-.08-1.23-.1-1.82-.12-5.34.08-10.73-.23-16.05-.51-8.86-1.33-25.57-13.08-21.09-.12-.79-.27-1.58-.44-2.34a6.18,6.18,0,0,0,5.77-3.79A15.72,15.72,0,0,0,309.46,179.18Zm-9.64-3c3.21-.31,4.91.61,6.45,3.47,1.38,2.59,2.23,6.11,1.42,9-.37,1.32-1.74,4.6-3.85,3.74s-.89-2.89-.6-4.11c.66-2.82,1.11-7.12-.1-9.87a3.16,3.16,0,0,0-3.38-2.16ZM298,178.45c4.7,1,2.31,6.3,1.67,10.61-4.73-1.8-12.53-2-15.81,1.87a12,12,0,0,1-.54-4c0-.06,0-.09,0-.14,3,.49,6.33-.45,9.29-3.33a2.33,2.33,0,0,0,.74-1.34,2,2,0,0,0,1.63-.57C295.89,180.63,297,179.58,298,178.45ZM131,147.7c3.33-12.34,7.17-24.51,11.62-36.47,2.15-5.79,3.24-11.83,5.23-17.64,2.23-6.52,6.08-12.63,9.16-18.71,4.34-8.58,8-17.42,13.06-25.73,7-11.5,13.66-24.19,26.44-30,16.33-7.37,32.05,1.32,41.84,14.69a241.06,241.06,0,0,1,21.06,34.4c6.16,12.24,9.33,26.26,13.81,39.16,3.89,11.2,7.36,22.34,11.76,33.41,2.42,6.12,5,12.08,7.59,18.15,1.35,3.21,3.94,7.34,3.62,11-.26,3.05-2.87,6.34-4.68,8.93a2.06,2.06,0,0,0-.25.49,2.46,2.46,0,0,0-2.17.57c-9,7.71-11.95-8.69-13.48-13.94-2-6.84-4.77-13.27-6.37-20.17-3.3-14.25-8.25-28-11.21-42.36-2.71-13.2-7.89-26.4-12.48-39.07-3.5-9.67-8.48-21.61-15.57-29.19-5.65-6-15.5-11.92-24.06-10.66-10.46,1.54-19.4,10.49-24.15,19.44-6,11.35-10.33,24.38-13.74,36.7-4.07,14.72-8.51,29.35-12.87,44-2.45,8.2-4.37,16.54-6.45,24.85-1.72,6.89-4.86,13.28-6.92,20-.71,2.3-1.41,4.62-2.19,6.9a2.13,2.13,0,0,0-1.08,2.79c-1.28,2.55-2.77,2.72-6.23,2.71-1.11,0-11-1.47-11.92-3.44C126.42,169.9,128.32,157.66,131,147.7Zm147.17,36.68a11,11,0,0,0,3,1.8c-.62,2.3.61,5,.35,7.28-.13,0-.24-.08-.38-.11-1.89-.42-3.11.51-3.4-2a20.07,20.07,0,0,1,.45-5A6.91,6.91,0,0,0,278.17,184.38Zm-75.71,4.68a1.79,1.79,0,0,0-.36.66c-2.27-.33-4.44.5-7.12.67-8,.49-15.93-1.94-23.26-4.76-9.19-3.55-17.25-8.47-26.88-9.31,1.49-4.25,2.7-8.72,4.2-12.9,4.78-13.24,7-27.21,11.47-40.52,5.59-16.56,8.72-34,15.13-50.28,5.38-13.68,8.05-28.38,19.65-38.54,15.05-13.19,32-1.06,39,14.43,12.09,27.13,19.27,55.27,25.74,84.18,3.25,14.52,8.07,29.19,13.13,43.25a1.81,1.81,0,0,0-.23,0c-9,.57-18.67,3.53-27.21,6.31-7.65,2.48-15.44,4-22.94,6.78C219.73,185.21,205.23,186.05,202.46,189.06Zm-68.65,45.85c-.21-2.17-.56-3-2.38-4s-4.9-.38-6.81-.33c-4.19.11-8.54-.32-12.67.43a1.37,1.37,0,0,0-1,1,25.79,25.79,0,0,0-.95,5.2h0a81.29,81.29,0,0,0-2.55,13.61c-3.21,1.2-4.43.48-3.61-2.22-.73-2.1-.1-6.31-.09-8.6.08-9.63-1.08-31.12,7.57-38-.09,2.78-1,7.55,1,9.61s5.78.73,8.31,1.21c3.29.63,7.73,1.51,11.06.86,2.6-.5,3.65-2.75,3.74-5.21a47.41,47.41,0,0,0-.28-6.4,1.35,1.35,0,0,0,1.4-.71c.72-1.22,4.18,2.63,4.77,4,.74,1.67.61,3.8.67,5.61.11,2.83-.17,5.66-.18,8.49a140.82,140.82,0,0,1-.82,15.35c-.23,2.08-1.17,19.57-7.76,14.79l-.08-.06c-.12-.09-.25-.18-.38-.29C130.05,246.77,134.11,237.86,133.81,234.91Zm-4.64,46.62c-4.14-.79-6.9-4.42-9.74-7.58-3.23-3.6-7.16-7.67-9.06-12.27q.15-3.75.38-7.54a8.11,8.11,0,0,0,1.1-2c1.61-4.3-2.37-14.88.81-17.4,2.65-2.1,7.62-1,10.71-1,1.3.06,2.6.05,3.9,0q3.86,1.5,2.1,4.34c.74,4.53-3,15.3,2.15,17.82a59.74,59.74,0,0,1-.65,9.15c-.72,4-1.75,7.54-1.88,11.59C129,277.58,129.17,279.61,129.17,281.53Zm-19-15.18c.28.56.57,1.09.83,1.59,2,3.9,5.32,6.87,8,10.3,1.93,2.47,6.07,6.37,9.75,6.55a2.2,2.2,0,0,1-.38.68c-1.66,1.83-4.28.67-6.21.95s-11.27,2.74-12.76.93c-.68-.83.35-7.42.3-8.88C109.58,274.38,110,270.39,110.18,266.35Zm4.47-70.2h0a4.88,4.88,0,0,0,1.42-.76,5.54,5.54,0,0,0,1,0,76.11,76.11,0,0,0,14.27-2.59,1.67,1.67,0,0,0-.26.84c-.05,3.12.49,6.18.67,9.29a28.14,28.14,0,0,1,.19,4.1,3.18,3.18,0,0,1-1.32,3.13c-.47,0-.93-.08-1.4-.14-3.22.36-6.26-.62-9.4-.94-1.58-.17-4.47,1-5.23-.85a25.46,25.46,0,0,1,.14-3.49c0-1.69,0-3.39,0-5.08A32.41,32.41,0,0,1,114.65,196.15Zm25.68.78a10.17,10.17,0,0,1-3.94-.2c-1.95-1.07-.67-2.93-.23-4.44a26.54,26.54,0,0,0,.93-5,1.83,1.83,0,0,0,.33,0,6.63,6.63,0,0,0,4-3.32c.24.9.54,1.81.76,2.71C142.79,188.94,143.51,195.65,140.33,196.93ZM120.08,182a16.49,16.49,0,0,0,5.32,3.48c2.52.91,4.25.52,6.89.76,1.13.1,2.75.81,4.1,1a41.06,41.06,0,0,1-2,6.57c0,.07,0,.14-.07.21l0-.36a1.57,1.57,0,0,0-1-1.43c.45-.15.91-.3,1.34-.46a.7.7,0,0,0,0-1.35c-4.1-1.51-7.61-.55-11.76.14-1.51.25-3,.47-4.55.67a16.14,16.14,0,0,0,.16-3.11,9.55,9.55,0,0,1,1-5A8.28,8.28,0,0,1,120.08,182ZM112.45,189a18.1,18.1,0,0,0,.41-3.53c.25-4.37,1.24-8.3,5.87-9.3-.22.44-.42.9-.65,1.32a1.14,1.14,0,0,0-.24.52l0,.14a.5.5,0,0,0,0,.12l-.15.87a1.44,1.44,0,0,0,.63,1.55l.17.13c-3.6,2.32-.67,7.4-2.73,10.8l-.5.07a9.86,9.86,0,0,0-2.12.31.61.61,0,0,0-.07-.1C111.81,190.11,112.05,190.54,112.45,189ZM64.29,225.24c.52-2.57,1.85-5.37,2.54-8.13.72,1.12,1.38,2.27,2,3.42a83.33,83.33,0,0,0-2.62,9.17c-.19.71-1.06,2.36-1.51,3.85a9.39,9.39,0,0,0-1.41-.34,12,12,0,0,0-1.75-.15C63.43,231.06,63.78,227.8,64.29,225.24Zm16.86,56.47a138.62,138.62,0,0,1-2.7,27.23c-.9,4.39-1.85,8.77-2.82,13.14a34,34,0,0,0-2.44-5.35c4-8.61,5-17.8,6.58-27.09C80.2,287.05,80.68,284.4,81.15,281.71Zm-.94-18.07c-3,2.7-4.2,7-6.17,10.45l-.26.43c.25-2.39.54-4.76.85-7.11a13.5,13.5,0,0,0,.75-1.4c.88-1.85,1.43-3.84,2.41-5.63a30.09,30.09,0,0,0,1.66-2.92Q79.88,260.53,80.21,263.64Zm-1.19-8c-.32,2.32-1.94,4.06-2.91,6.12-.36.78-.69,1.53-1,2.28.56-3.72,1.19-7.41,1.89-11.14.27-1.43.6-3.1.9-4.86.48,2.45.89,4.92,1.27,7.4A.37.37,0,0,0,79,255.66Zm-6.34-1.37a138.93,138.93,0,0,0-2.38,17.83,7.44,7.44,0,0,0-1.4,5.39c.07.34.56.23.58-.08a9.26,9.26,0,0,1,.58-2.48c-.56,6.87-.89,13.67-2.63,20.37-1.34,5.17-3.47,10.05-3.77,15.44a.69.69,0,0,0,1.27.35,58.83,58.83,0,0,0,4.13-9.49c1.13-2.11,2.35-4.16,3.45-6.3.86-1.65,1.78-3.49,1.37-5.39,0-.16-.28-.12-.28,0,.11,2.86-1.65,5.24-3.33,7.6a98.83,98.83,0,0,0,2.39-12.68c.2-.39.41-.78.61-1.18,1.22-2.46,2.33-5,4.24-7.07.43-.46-.25-1.15-.69-.69A23,23,0,0,0,73,281.67c.16-1.44.31-2.9.46-4.37.66-1.38,1.34-2.78,2-3.92,1.59-2.89,2.55-6.44,4.84-8.85.2,2,.37,4,.5,5.92-1.13,6.64-2.43,13.27-3.82,19.77-1,4.55-1.58,9.42-2.69,13.91-.17.7-1.56,6.88-2.55,10.43a7,7,0,0,0-5.5-2.89c-2.22,0-4.84.72-5.3,3.14a.85.85,0,0,0,0,.48,11,11,0,0,0-2.93,5.49c-.07-3.21-.13-6.42-.12-9.62,0-8.42.23-17.39,1.63-25.7.75-4.46,1.49-8.73.79-13.27a2.15,2.15,0,0,0-1.53-1.53c-.45-.13-.94-.25-1.44-.36,5.1-8.23,16.53-29,9.8-35.35a34.77,34.77,0,0,0,2-7.22c.35-1.56.65-3.12,1-4.68a59.05,59.05,0,0,1,4.32,10.84c.45,1.62.89,3.26,1.3,4.91C75.07,243.62,72.9,253.31,72.68,254.29Zm-7.56,69a8.37,8.37,0,0,0-2.18-.14c-1.22.12-2,1.19-2.26-.73s2.15-5.52,3.4-6.74a.79.79,0,0,0,.07-1,6.44,6.44,0,0,1,3.21.52c0,1.07.63,2.26.59,3.41a52.72,52.72,0,0,0,.21,5.77A8.68,8.68,0,0,0,65.12,323.24Zm-.39,9.66c-2.17.85-4.5-1.32-5.9-2.95a.57.57,0,0,0-.44-.17c-.06-1.32-.12-2.64-.16-3.95a.42.42,0,0,0,0,.1,1.43,1.43,0,0,0,1.24.72c2.54-.06,5.77-1.63,7.37,1C68,329.47,66.74,332.1,64.73,332.9Zm-8.3-93c8.22-9.28,10.63,2,8.21,8-1.2,3-2.54,6.12-3.86,9-2,4.33-4.37,8.42-6,12.86-.05-.77-.11-1.58-.09-2.48,0-.46,0-.93.07-1.42a.42.42,0,0,0,.42,0c3.17-1.79,3.56-7.79,4.54-11,1.49-4.76,2.89-9.3,2.65-14.17l.39-.88a.12.12,0,0,0-.18-.14l-.26.22c-.06-.63-.13-1.26-.24-1.9a.3.3,0,0,0-.58,0c-.21,1.05-.41,2.07-.61,3.1C57,244.73,55.1,248.91,54,254.45c-1,4.9-2.26,10.25-1.56,15.25-.34,0-.69,0-1,0C53.07,260.48,49.81,247.33,56.43,239.85ZM54.92,264c.34-3,1-6.36,1.44-8.88A35,35,0,0,1,60,245.63a66.69,66.69,0,0,1-2.11,7.88C56.69,256.94,56,260.55,54.92,264Zm1.16,102.65c-8.47-12.94-9.68-29.38-10.83-44.36-.47-6.1-1.36-12.06-1.27-18.2.08-4.52.78-9.53.44-14.16A7.9,7.9,0,0,0,49,291.77c1.94.15,2-3,0-3s-4.78-5.89-4.87-7.64c-.06-1.49-.69.81.64-3.5,1.26-4.07,1.16-3.4,4.67-3.65a9.81,9.81,0,0,1,4.45.44l.09,0c1.69.78,2.44,2.5,2.11,5.83-1.28,13.15-3,26.19-2.28,39.5s1.11,26.31,2.74,39.49a38.6,38.6,0,0,0,3.24,12A30.53,30.53,0,0,1,56.08,366.64Zm4.46-11c-.88-7.07-1.51-14.22-1.93-21.39A5.94,5.94,0,0,0,60.92,336c-.06,2.71-.92,6.17-1,8.11a41.27,41.27,0,0,0,1.51,11.53c.78,2.9,1.51,8.82,4.85,9.94a34.12,34.12,0,0,0,.22,6.72C62.51,368.71,61.38,362.4,60.54,355.66Zm6.38,4.73a43.65,43.65,0,0,1-3.54-15.18c-.13-2.6.3-5.83-.24-8.63a6.69,6.69,0,0,0,1.55-.05c3.23-.51,5.74-4.25,5.94-7.35a5.68,5.68,0,0,0-.27-2.24c1-1.42.75-4.16.75-5.78,0-.4,0-.81,0-1.22.25.64.48,1.28.69,1.84a39.61,39.61,0,0,1,1.94,7,4.05,4.05,0,0,0,.2.59q-2,8.53-4,17.08C69,350.8,67.69,355.57,66.92,360.39Zm10.55-21.31c2.63-11,5.33-22,7.81-33.08,2.37-10.57,1.83-20.35,1.07-31-.64-9.13-.77-18-3.16-26.88C80.63,238.57,78,229.64,74,220.66a62.14,62.14,0,0,0-6-11.07C65.41,206,56.1,200.12,61,194.12c3.51-4.34,12.86-5.76,17.82-7.38,5.32-1.74,10.83-3.62,16.3-4.87,3.22-.73,6.67-.76,9.86-1.63a55.69,55.69,0,0,0,7.2-2.6,12.34,12.34,0,0,0-1,2.14c-1,2.91-.81,5.94-1.57,8.89-.5,1.92-1.16,3.46-.21,5.36a4.25,4.25,0,0,0,1.66,1.81,26.82,26.82,0,0,0,.19,3.62c-8.08,2.18-8.23,9.23-9.23,17.93-.73,6.36-1.4,12.65-1.93,19-.36,4.39-1.71,12.42-.24,16.6,1.36,3.87,4.37,4.86,7.11,4-.4,5.66-.58,11.33-.87,16.66-.17,3.08.36,6.21.07,9.29-.08.8-1.31,4.25-.85,5.53.88,2.46,1.78,2.43,4.33,2.88a30.75,30.75,0,0,0,7.11,0c-1.11,3.65-3,19.78-3.1,20.94-.52,9.42-1.1,18.75-.82,28.2,0,1.62,2.32,1.17,2.21-.06.26-8.93.62-17.81,1-26.74.32-7.59,2.11-14.93,2.61-22.41,3,0,6.8.52,9.22-.21,2.78-.85,3.5-1.56,4.49-4.44.78-2.26.64-5.08.64-7.41a98.41,98.41,0,0,1,1.2-13.24,46.85,46.85,0,0,0,.2-9.53c9.83-.22,10.1-14.92,10.8-21.71.52-5.1,4-30.39-3-36.26,1.59-1.14,2.23-3.5,2.67-5.44.76-3.3-.06-7.59-1.19-11.08,2.72.71,5.65.93,8.44,1.75,6.76,2,13.09,4.86,19.75,7.13,7.34,2.51,16.54,4.69,24.78,3.44C178.47,207,167.52,228,158.49,248.11c-6,13.4-12.09,26.84-18.11,40.3-2.94,6.59-6.2,13.06-9.13,19.63-3.09,6.91-5.08,14-8.79,20.73-8,14.59-16.16,28.36-29.11,39-5.23,4.29-10,7.5-16.79,7.65a19.4,19.4,0,0,1-4.48-.38C69.47,363.68,74.85,350,77.47,339.08Zm18.87,39.11a33.09,33.09,0,0,1-21.59,1.68c8.32.13,14.08-2.79,21.32-8.58,10.36-8.29,17-16.76,23.79-28.2,14.69-24.84,23.44-52.17,35.66-78.27,6.27-13.38,11.45-27.31,19.29-39.88,4.74-7.61,8.52-15.19,15.12-21.48a160,160,0,0,1,12.6-10.86,18.3,18.3,0,0,0,1.68-.79,1.42,1.42,0,0,0,.29-.1c3-1.72,7-1.4,10.36-1.17,5.56.4,3.89-.56-.09,2a45.26,45.26,0,0,0-14.52,15l-.75,1.27a36.16,36.16,0,0,1-6.22,4.62c-.23.12-.07.53.18.43a21.1,21.1,0,0,0,4.51-2.5c-1.83,3.06-3.66,6.11-5.46,9.19-1.64,1.06-3.26,2.14-4.9,3.19-.2.12,0,.4.18.31,1.27-.57,2.53-1.21,3.79-1.89q-2.06,3.51-4.06,7l-3.4,2.39a.32.32,0,0,0,.25.59,8.64,8.64,0,0,0,1.87-.76c-4.75,8.42-9.34,16.93-13.69,25.58-4.8,9.54-9.91,18.93-14.48,28.61-4.29,9.11-10.26,17.32-14.93,26.25-4.41,8.41-9.3,16-14.42,24-2.88,4.48-5.29,9.25-8.31,13.65a24.34,24.34,0,0,0-1.74,2.94c-1.64,2.56-2.56,5.56-3.9,8.08-.22.11,0,.33,0,.69v0c-1.6.22-.67.47-.8.68C109.7,369.18,104.21,374.72,96.34,378.19Zm7.91.18,0-.05a1.87,1.87,0,0,0-.43-.5,35.24,35.24,0,0,0,8.29-7.69,39.36,39.36,0,0,0,2.24-3.32c0,.43,0,.86,0,1.3a10.64,10.64,0,0,0,.4,3.23,31.85,31.85,0,0,1-7,6l0,0A23.6,23.6,0,0,0,104.25,378.37Zm194.51,2a118,118,0,0,1-12.1-.35c-7.27-.67-14.3-.59-21.46-.65a27.85,27.85,0,0,1,2.61-2.6,23,23,0,0,0,4-4.17c3.79-5.21,8.55-9.42,13.1-14,.4-.4-.22-1-.63-.62-4.24,4.15-8.88,8-12.57,12.69-1.11,1.4-1.05,2-2.51,3.49-1.2,1.23-2.95,1.89-4.13,3.07a12.86,12.86,0,0,0-1.61,2.08c-1.66,0-3.32,0-5-.09-.83,0-1.66,0-2.48,0a79.19,79.19,0,0,1,5.49-6.12c3.95-4.16,6.89-9.17,10.91-13.3.42-.43-.23-1.08-.65-.66-3.91,3.94-6.8,8.66-10.57,12.7-1.67,1.78-3.6,3.31-5.13,5.22-.12.15-.84,1.1-1.65,2.13q-4.44-.07-8.88-.06c3.18-1.94,5.44-5.67,8.09-8.12,2.42-2.24,5-4,7.08-6.6,1.8-2.21,3.4-4.6,5.05-6.93.44-.61-.57-1.18-1-.58a69.46,69.46,0,0,1-11.51,12.75c-3.61,3.09-6.28,6.72-10.15,9.49-6.82.05-13.64.16-20.44.1l-2.16,0a30.06,30.06,0,0,0,3.13-3.52c3.65-4.2,7.41-8.37,11.19-12.47.4-.43-.25-1.08-.65-.65-3.16,3.4-6.09,7-9.28,10.37-.79.83-6.57,7.71-7.28,5.86a.21.21,0,0,0-.42.05l0,.29c-4.19-.1-8.38-.26-12.57-.45,1.76-1.23,3-2.9,4.61-4.36,2.13-1.95,4.59-3.39,6.57-5.51,4.53-4.83,8.72-9.93,13.34-14.71a.46.46,0,0,0-.65-.65c-4.51,4.26-8.49,8.87-12.59,13.5a43.36,43.36,0,0,1-6.11,5.21c-.66.51-5.81,5-5.65,5.31a.46.46,0,0,0-.85.23l.06.75a.48.48,0,0,0,.05.17c-1.67-.08-3.34-.15-5-.24,1.47-1.6,2.93-3.19,4.36-4.82,5.87-6.74,11.46-13.82,17.19-20.68.29-.34-.18-.83-.49-.49-5,5.43-10,11-14.71,16.72-2.21,2.67-4.55,5.08-6.91,7.61-.47.51-.91,1-1.35,1.57l-9.2-.47a56.91,56.91,0,0,1,3.87-4.84c4.85-5,9.47-10.21,14.14-15.38.49-.55-.31-1.36-.81-.82-4,4.38-7.89,8.86-12,13.09-2,2-4,4-5.77,6.12-.45.54-.89,1.13-1.34,1.74q-4-.19-8-.35c2.57-1.78,4.47-5.6,5.85-7.74,2-3,4.81-5.09,7-7.9,2.46-3.12,4.39-6.88,8.11-8.67.59-.28.08-1.15-.51-.88-5.21,2.48-7.93,8.56-12,12.36a28,28,0,0,0-4.48,5.63c-.54.82-6.29,8.75-6.76,5.24a.39.39,0,0,0-.76-.1c-.37,1.23-.39,1-.25,1.95-2-.07-4.07-.12-6.11-.15,2.52-1.8,4.73-5.29,6.22-7,5.7-6.49,11.67-12.59,16.83-19.57.32-.43-.4-.83-.72-.42-4.94,6.48-10.51,12.12-16.08,18-1,1.06-9,9.78-9.62,8.28-.18-.48-1.23-.45-1.23.12v.54l-2.63,0c-1.54,0-2.93,0-4.46-.06.26-.29.61-.59.91-.88,2.06-2,4.43-3.69,6.39-5.85,4.4-4.86,8.54-9.85,12.71-14.91.54-.65-.38-1.59-.92-.94-3.74,4.49-7.37,9.08-11.36,13.32a68,68,0,0,1-5.79,5.6,50.81,50.81,0,0,0-3.6,3.59c-3.07-.13-6.14-.33-9.21-.51a43.27,43.27,0,0,0,4.11-4.47c5.76-6.41,11.63-12.73,17.69-18.86a.68.68,0,0,0-1-1c-4.71,4.73-9.29,9.58-13.81,14.5-2,2.22-5.6,7.43-9.12,9.68-2.55-.13-5.11-.23-7.66-.24.43-.42.86-.87,1.34-1.39,2-2.18,4.13-4.09,6.17-6.19a149.27,149.27,0,0,0,11.61-13.26c.52-.69-.65-1.36-1.17-.68A158,158,0,0,1,142,367c-1.41,1.47-3,2.79-4.42,4.22-.31.31-3.44,3.75-4.78,4.84-1.34,0-2.67.07-4,.15s-2.74.21-4.06.34a15.17,15.17,0,0,0,1.8-1.7,59.12,59.12,0,0,0,5.3-7.11c4.47-6.95,10.24-12.73,15.33-19.24.5-.63-.39-1.54-.89-.89-4.52,5.76-10.21,10.87-14.13,17.06a74.27,74.27,0,0,1-6.51,9.27,21.3,21.3,0,0,1-3.33,2.84l-.23,0a19.63,19.63,0,0,0,1.81-2.43,54.08,54.08,0,0,1,5-7.68c.47-.55-.31-1.36-.8-.8a51.51,51.51,0,0,0-5,7.44c-.72,1.19-1.75,2.36-2.59,3.59a45.14,45.14,0,0,1-6.28.06,32.82,32.82,0,0,0-3.39-.06,20.47,20.47,0,0,0,4.55-3.9l.36.95-1,1.26c-.19.24.13.59.35.35l1-1.09a.73.73,0,0,0,1.2-.12,4,4,0,0,0,.46-1.69,78.91,78.91,0,0,0,7.78-9.59c3.58-2.81,7.29-5.47,10.3-8.93.49-.56-.3-1.37-.82-.82-4.38,4.61-9.78,7.91-14.49,12.14-1.19,1.07-2.28,2.21-3.36,3.36,0-.1,0-.2,0-.31a33.61,33.61,0,0,0-.89-4.74,82.27,82.27,0,0,1,6.53-5.66c2.28-1.74,4.27-3.66,6.39-5.56,2.53-2.26,5.38-4,7.81-6.39.53-.51-.28-1.32-.8-.81-5.8,5.66-12.35,10.39-18.5,15.59l1.15-2.18c.57-1.08,1.15-2.67,1.78-4.25a35.75,35.75,0,0,0,3.63-2.72c2.4-1.81,4.67-3.63,7-5.59,5.19-4.41,11.14-7.8,16-12.61a.52.52,0,0,0-.73-.74c-4.2,4.12-9.22,7.07-13.83,10.67-2.65,2.07-5.08,4.39-7.79,6.38-.72.53-1.5,1.19-2.3,1.84.47-.58,1-1.16,1.42-1.76a101.31,101.31,0,0,0,5.58-8.51.26.26,0,0,0,.19.08c1.76-.07,2.72-1.26,3.88-2.47,2.23-2.33,5.17-2.9,7.64-4.84s4.52-4.8,7-6.92A77.4,77.4,0,0,1,158.32,320a.49.49,0,0,0-.49-.85,66.41,66.41,0,0,0-14.6,11.33,20.84,20.84,0,0,1-3.81,3.64c-1.47.93-3.28,1.25-4.69,2.27-1.71,1.24-2.73,3.8-4.9,4.39,1.41-2.3,2.83-4.6,4.42-6.78a177.61,177.61,0,0,0,11-17.64.38.38,0,0,0,.41.18c4.86-1.05,7.69-5.74,11.58-8.43,2.38-1.65,5.07-2.78,7.36-4.59a59,59,0,0,0,5.3-5.19.58.58,0,0,0-.82-.82,45.4,45.4,0,0,1-6.29,5.8c-2.19,1.5-4.64,2.54-6.8,4.08-3.63,2.58-6.49,5.86-10.32,8.22,1.91-3.39,3.81-6.79,5.81-10.15.31-.52.6-1.06.91-1.59a6.58,6.58,0,0,0-.31.8.33.33,0,0,0,.6.26c2.7-3.8,7-7,10.58-9.94,4-3.24,8.34-5.95,12.24-9.29.44-.37-.19-1-.63-.63-4.45,3.77-9.57,6.66-13.95,10.51-2.17,1.89-5.43,3.8-7.39,6.3q2.91-5.07,5.65-10.25c2.56-1.55,4.71-4.46,6.82-6.28,4.49-3.87,8.77-7.95,12.94-12.16a.48.48,0,0,0-.68-.68Q172.83,278,167,283c-2.12,1.83-4.17,3.83-6.29,5.72,3.64-7,7.13-14.09,10.68-21.13l.35,0c.41,0,.6-.63.21-.79a38.21,38.21,0,0,1,3.92-3.29,37.85,37.85,0,0,1,2.14,4.53c-1.19,1-2.36,2-3.49,3.1-1.5,1.43-2.72,3.16-4.28,4.52s-3.25,2.13-4.48,3.88c-.18.25.18.62.44.44a78.29,78.29,0,0,0,9-8.13c1-1,2.08-1.95,3.16-2.89,1.37,3.36,2.71,6.62,5.83,9.49,4.57,4.21,9.69,6,15.79,6.58,11.9,1.21,26.65-1.27,34.79-10.65a.54.54,0,0,0-.77-.76c-4.51,4.06-9.69,4.61-15.18,5.87.77-3.72,2.8-6.73,4.52-10.09a78,78,0,0,1,4.44-8c6.31-3.9,11.19-7.45,16-13.72A117.93,117.93,0,0,0,253,234.46c2.83-5,5.3-11.53,9-15.79a.3.3,0,0,0-.42-.42c-7.08,7.05-11.2,17.21-17.82,24.8-2.92,3.36-5.43,7-8.77,10s-7.49,5-10.63,8.3a1,1,0,0,0,1.17,1.51l.42-.26c-1.49,2.41-2.78,4.95-4.14,7.48-1.52,2.82-4.39,6.16-3.66,9.57l-.47.11a58.46,58.46,0,0,1-9.06,1.5c3-4.94,5.41-10.27,8.48-15.17s7.37-9.37,9.71-14.69c.2-.46-.47-.86-.68-.4-2.5,5.41-7.15,10.12-10.37,15.18-3,4.71-6.59,9.81-8.47,15.19a47.71,47.71,0,0,1-5.48,0v0a66.85,66.85,0,0,1,4.69-9.14,197.89,197.89,0,0,0,13.67-23c.35-.73-.73-1.37-1.1-.64a214.6,214.6,0,0,1-11.44,19.18c-1.78,2.78-4,5.44-5.48,8.37-.77,1.5-1.06,3.58-2,5.09a33.86,33.86,0,0,1-4.45-.74c-7.15-1.77-12-6.88-15.45-13.11,2.63-2.2,5.3-4.36,7.74-6.77.4-.39-.21-1-.6-.61-2.39,2.34-5,4.43-7.58,6.54-1-2-1.26-3.13-2.65-4.08l.21-.17c2.56-2.08,4.61-4.65,7.18-6.73a98.56,98.56,0,0,0,12.34-12.26.12.12,0,0,0-.17-.17c-2.53,2.23-4.8,4.74-7.26,7.05s-5.15,4.08-7.67,6.21c-2.07,1.75-3.72,3.75-5.83,5.43l-.41-.19c-.33-.13-.64.31-.46.59a2,2,0,0,1,.12.19l0,0c-.67.47-1.3.92-1.91,1.38,4-7.85,8.14-15.63,12.73-23.13.52-.84,1-1.71,1.52-2.56,1.32-1.11,2.68-2.18,3.95-3.43a69.47,69.47,0,0,1,11-9.27c1.08-.72,9.3-5.79,8.21-7.38a.19.19,0,0,0-.34.19c.41.9-6.67,5.2-7.08,5.46a55.1,55.1,0,0,0-8.73,6.15c-1.61,1.51-3.15,3-4.72,4.47q2.69-4.65,5.32-9.35c2.61-1.74,5.28-3.41,7.77-5.29,5.74-4.34,12.79-8,17.19-13.8.41-.55-.51-1.08-.92-.54-4.37,5.74-11.7,9.62-17.48,13.82-1.8,1.3-3.63,2.59-5.46,3.88,1.08-1.91,2.18-3.81,3.28-5.71,2.65-1.74,5.26-3.53,7.83-5.2,5.58-3.66,10.89-7.81,15-13.11.33-.44-.42-1-.77-.59-4.63,5.62-10.47,9.85-16.52,13.83L200.86,215c.64-1.08,1.27-2.17,1.92-3.24,3-5,5.93-9.16,10.46-12.9,2-1.62,8-4.16,9.36-6.36a2.49,2.49,0,0,0,.15-.28c7.9.46,17.31-3.13,24.23-5.29,8.16-2.55,20.38-2.78,27-8.46,0,0,0,0,.06-.07a14.57,14.57,0,0,0,2.57,4.37c-.7,3.26-2.39,6.24-1.93,9.73a4.52,4.52,0,0,0,2,3.5c1.31.79,3.46.05,4.52,1a1.67,1.67,0,0,0,.71.39c0,.71,0,1.44,0,2.17-4.74,1.61-9.15.69-10.25,7.68-1.2,7.65.49,16.77,1.22,24.36.51,5.24-.75,34.84,11.28,25.45a1.45,1.45,0,0,0-.64-2.41c-5.74-1.06-6-7-6.26-12.55-.29-5.85-.35-11.68-.75-17.56-.54-7.86-3.31-16.34,4.15-21.45a10.84,10.84,0,0,1,1.39-.79c.1,1.47.24,2.89.33,4.14.15,2.08.26,5.59.89,7.35a5.7,5.7,0,0,0,.84,1.63.62.62,0,0,0-.56.44,57.74,57.74,0,0,0-1,24.27,1.61,1.61,0,0,0,1.17,1.17l2.33.46c.09,6.22-1.45,20-1.46,21.4a142.48,142.48,0,0,0,1.52,21.65c.67,4.37,1,5.83,5.57,6.62,2.85.49,5.78,0,8.59-.26-.11,3.21.16,17.17.16,18.21,0,9.15.26,18.08.86,27.19a150.07,150.07,0,0,1,.15,15.87,40.1,40.1,0,0,0-2.54,5.74c-.2.57.65.9.95.4l1.4-2.41q-.17,2.94-.42,5.87a19.81,19.81,0,0,0-1.9,4.13.48.48,0,0,0,.88.37c.24-.39.48-.76.72-1.14C300,370.42,299.42,375.41,298.76,380.38Zm-181.2-8.66c0-.34-.11-.69-.19-1,.82-1,1.63-1.9,2.47-2.75s2-1.9,3.06-2.79C121.22,367.41,119.39,369.57,117.56,371.72Zm219-6.85c-1.2,4-2.68,8.35-5.4,11.55a12.61,12.61,0,0,1-7.77,4c5.37-5.75,6.73-14.41,11.79-20.51.54-.65-.38-1.59-.93-.94-5.38,6.33-7.83,14.67-12.25,21.67-2,.27-4,.37-6.05.52l-.52,0c1.86-3.85,3.78-7.6,6-11.3a79.49,79.49,0,0,1,4.59-6.76c-1.22,2.09-2.41,4.19-3.53,6.3-1.5,2.86-4.18,6.08-4.17,9.39a.48.48,0,0,0,.93.13c1-3.35,3.38-7.1,5.17-10.15,2.19-3.74,4.22-7.52,6.31-11.31a.61.61,0,0,0-.06-.69c.48-.7.95-1.4,1.37-2.15.66-1.17,1.13-2.88,2-3.93.43-.55-.34-1.34-.79-.78-1.69,2.1-2.55,4.81-4.17,7-2.07,2.87-4.39,5.55-6.42,8.45a101,101,0,0,0-5.42,9.07c-.81,1.47-1.78,4.41-3,6.71-3.67,0-7.23-.87-10.89-.88H302c.19-2.27.38-4.53.56-6.8a.47.47,0,0,0,.7-.15c4-7.49,9.16-14.34,13.84-21.42,5-7.62,9.81-15.3,14.67-23,.39-.6-.57-1.16-.95-.56-5.07,7.91-10.16,15.72-15.38,23.53-2.38,3.56-4.67,7.14-7.2,10.59-2.09,2.85-4.38,5.79-5.54,9.17.28-3.65.54-7.29.74-10.94,1-1.61,2-3.25,2.87-5a25.94,25.94,0,0,1,4.15-6.4,24.56,24.56,0,0,0,3.57-4c2.52-4,4.36-8.31,7.1-12.24,3-4.3,5.73-8.75,8.38-13.27a.57.57,0,0,0-1-.57c-2.66,4.51-5.45,8.93-8.48,13.21-2.87,4.07-4.67,8.8-7.55,12.81-1.32,1.84-3.24,3.13-4.6,5a32.77,32.77,0,0,0-2.82,4.78c-.43.84-.94,1.69-1.48,2.55.1-2,.18-3.93.25-5.9,1.55-2.63,3.15-5.22,5-7.74,3.49-4.9,7.25-9.61,10.79-14.48,3.1-4.25,5.64-8.68,8.52-13,.95-1.44,2.08-2.83,3-4.3a181.19,181.19,0,0,0,3.26,18.76c.36,1.54.67,3.07.95,4.6-6.77,6.77-10.6,15.86-16.78,23.06-1.43,1.67-3.39,2.44-4.8,4-1.19,1.34-1.64,3.35-2.35,4.95-1.13,2.53-4.44,4.9-4.54,7.79a.65.65,0,0,0,.81.62c2.57-.47,4.25-3.85,4.48-6.23,0-.23-.37-.29-.41-.06a6.4,6.4,0,0,1-1.85,3.67c-1.08.83-.92.43-.56-.39.64-1.48,2.21-2.7,2.93-4.22,1.25-2.6,1.9-4.77,4.19-6.73a20.35,20.35,0,0,0,3-2.78c5.78-7.17,9.6-16,16-22.66,1.56,9.05,1.81,17.84,2,27.15A2.08,2.08,0,0,0,336.55,364.87Zm3.4-36.18c-1.14-5.58-2.18-11.1-3-16.71a.29.29,0,0,0,.26-.11,1.25,1.25,0,0,0,.08-.12,53.14,53.14,0,0,0,2.78,4.76,5.46,5.46,0,0,0,0,.81c0,.27.44.46.58.15l0-.05c.76,1.14,1.54,2.28,2.33,3.42l-.6.89c-.17.27.24.59.45.35s.35-.46.53-.68c1,1.49,2,3,3,4.49a4.31,4.31,0,0,0-1.75-.15A6.69,6.69,0,0,0,340,328.69Zm8,24.39c.61,5.19,1.23,12.6-3.73,16-1.23-1.9-1.75-4.59-2.15-6.83a70.55,70.55,0,0,0-.44-25.29c2,1.41,4.65,2.33,6.81,3.31A34.39,34.39,0,0,0,348,353.08Zm2.89-19.18c-.24,1,0,2.64-.52,3.66l-.19-.08,0,0a48.78,48.78,0,0,1-6.4-2.83c-1.67-1-2.52-2.49-1.42-4.44.65-1.16,3.39-2.73,4.82-2.07a.32.32,0,0,0,.41-.11.78.78,0,0,0,.05-.14,34.9,34.9,0,0,1,1.95,3.86,1.55,1.55,0,0,0,1.74.71l.07,0A13.52,13.52,0,0,0,350.84,333.9Zm2.47-5.62a.46.46,0,0,0-.53.31c0,.15-.1.29-.15.44a1.3,1.3,0,0,1-.57-.11c-1.14-.48-2.18-4-2.85-5.23l.51-.48c.26-.25-.15-.66-.4-.4l-.38.41c-1.13-1.69-2.19-3.37-3.2-5.05.44-.7.9-1.4,1.28-2.14.68-1.29,1.28-2.62,2-3.88l.91,2.2C350.17,314.94,354,325.38,353.31,328.28Z" transform="translate(-40.54 -13.44)" style="fill:#4c4c4c"/><path d="M237.61,201.53c.26-.69-.81-1.09-1.18-.49-4.6,7.55-13.83,15.19-21.57,19.27-3.59,1.9-7,3.91-10.55,5.91-2.74,1.55-5.83,2.24-8.13,4.42a.91.91,0,0,0,.88,1.51c1.9-.57,3.85-1.21,5.81-1.91a34.63,34.63,0,0,0-4.06,3.55c-1.89,1.84-4.09,3.35-5.91,5.24-4.35,4.51-9.46,8.16-13.4,13.1a.32.32,0,0,0,.45.46c2.48-2,4.47-4.43,6.88-6.47a54.58,54.58,0,0,0,6.07-5.5c1.62-1.83,3.53-3.16,5.29-4.82,2.22-2.09,4.14-4.3,6.84-5.82a.44.44,0,0,0,.17-.62C218.76,224.12,232.41,215.48,237.61,201.53Z" transform="translate(-40.54 -13.44)" style="fill:#4c4c4c"/><path d="M281.53,171.1c1.24,1,3.1,2.18,4.61,1.11a5.48,5.48,0,0,0,1.18-1.44c.75-1.12,1.57-2.13,2.36-3.21a4.91,4.91,0,0,0,.78-4.95,4.42,4.42,0,0,0-5.26-3,.41.41,0,0,0-.24-.54c-1.29-.41-2.13-.78-3.19.25a10.18,10.18,0,0,0-2.79,6A6.82,6.82,0,0,0,281.53,171.1Zm.6-6.9a25.54,25.54,0,0,1,.86-2.62.59.59,0,0,0,.27,0c2.36-.37,6-.19,5.88,3.17-.05,1.27-1.13,2.24-1.79,3.21-.46.68-.83,2.06-1.58,2.29-1,.31-1.78-.86-2.42-1.55A4.29,4.29,0,0,1,282.13,164.2Z" transform="translate(-40.54 -13.44)" style="fill:#4c4c4c"/><path d="M132,174.64c3.29.47,7.77-2.45,8-5.94.23-3.22-2.92-6.73-6-7.12a1.11,1.11,0,0,0-.37,0c-3.45-.63-6.47.76-7.12,4.73C125.84,170,128.08,174.07,132,174.64Zm-2.61-8.29a5,5,0,0,1,3.37-3.41,1.34,1.34,0,0,0,1.21,1.24c1.48.15,3.92,2.74,3.65,4.33-.31,1.78-4.31,3.5-5.83,3C129.72,170.78,128.88,168.32,129.35,166.35Z" transform="translate(-40.54 -13.44)" style="fill:#4c4c4c"/><path d="M163.43,307.86c-2.55,2.15-5.27,4.07-7.89,6.13-2.16,1.7-4.09,3.74-6.42,5.21-2.51,1.59-6.32,2.89-7.25,6-.08.28.35.48.47.2,1.53-3.37,6.56-4.29,9.28-6.54,4.15-3.43,8.4-6.83,12.48-10.35C164.57,308.13,163.9,307.48,163.43,307.86Z" transform="translate(-40.54 -13.44)" style="fill:#4c4c4c"/><path d="M296.7,365.92c-3.35,3.4-6.43,7.05-9.79,10.44a.22.22,0,0,0-.24,0,12.44,12.44,0,0,0-1.5,1.68h0s-.06.07-.08.11c-.35.53.41,1,.84.65,4.16-3.75,7.65-8.16,11.58-12.14A.56.56,0,0,0,296.7,365.92Z" transform="translate(-40.54 -13.44)" style="fill:#4c4c4c"/><path d="M296.17,358.7c.48-.23.06-.94-.42-.72-3.26,1.53-5.13,5.08-7.59,7.58-4.26,4.35-9.11,8.33-12.91,13.09a.28.28,0,0,0,.4.4c4.36-3.48,8.19-7.85,12.12-11.81C290.42,364.58,292.74,360.34,296.17,358.7Z" transform="translate(-40.54 -13.44)" style="fill:#4c4c4c"/><path d="M258.17,351.32c-4.52,5.32-9.62,10-14.54,14.94-3.58,3.58-6.68,8.17-11.57,10a.33.33,0,0,0,.08.64c4.14.52,7.85-5,10.23-7.63,5.32-5.93,11.13-11.4,16.17-17.58C258.75,351.43,258.39,351.06,258.17,351.32Z" transform="translate(-40.54 -13.44)" style="fill:#4c4c4c"/><path d="M230.57,356.77c-5.92,6-10.87,13.48-17.51,18.76.07-.26-.18-.57-.46-.38a2.85,2.85,0,0,0-1.56,2.1c-.1.51.45,1.06,1,.73,7.72-5.12,13-13.81,19.45-20.35A.61.61,0,0,0,230.57,356.77Z" transform="translate(-40.54 -13.44)" style="fill:#4c4c4c"/><path d="M82,370c8.12-7.07,12.59-16.9,19.48-25,.47-.54-.32-1.34-.79-.79a132.68,132.68,0,0,0-8.49,11.78,157.79,157.79,0,0,1-10.78,13.39A.41.41,0,0,0,82,370Z" transform="translate(-40.54 -13.44)" style="fill:#4c4c4c"/><path d="M89.09,353c.43-.69-.65-1.31-1.07-.63-3.58,5.79-8,10.69-12.31,15.95a.45.45,0,0,0,.63.63C81.42,364.49,85.58,358.65,89.09,353Z" transform="translate(-40.54 -13.44)" style="fill:#4c4c4c"/><path d="M202.33,247.14c1.9-3,2.85-6.47,5.06-9.28.35-.44-.27-1.08-.63-.63-1.86,2.32-2.79,5-4.19,7.61-1.8,3.29-4.38,6.06-6.39,9.21s-4.05,6.18-6.29,9.19c-1.93,2.59-4,5.24-4.82,8.4a.37.37,0,0,0,.67.28c3.56-5.65,7.57-11,11-16.73C198.44,252.39,200.58,249.9,202.33,247.14Z" transform="translate(-40.54 -13.44)" style="fill:#4c4c4c"/><path d="M202,256.28c4.79-6.73,8.67-14.08,13.49-20.74.41-.57-.53-1.1-.94-.55-2.73,3.69-4.79,7.8-7.36,11.61s-5.4,7.44-8,11.25c-1.92,2.88-3.91,5.65-5.94,8.45-1.33,1.85-3.28,4.3-2.7,6.71a.53.53,0,0,0,1,0c.9-3.13,2.65-5.53,4.59-8.11C198.3,262.12,200,259.11,202,256.28Z" transform="translate(-40.54 -13.44)" style="fill:#4c4c4c"/><path d="M216.71,242.88a165.22,165.22,0,0,1-12.65,19.52c-3.59,4.9-7.11,10.06-8.92,15.91,0,0-.06.05-.07.09l-.21.8a.76.76,0,0,0,1.47.41c4.54-13.26,15.1-23.7,21.62-36C218.38,242.79,217.15,242.07,216.71,242.88Z" transform="translate(-40.54 -13.44)" style="fill:#4c4c4c"/><path d="M240.56,213.87a.51.51,0,0,0-.88-.51c-5.7,9.34-12.76,19.18-15.88,29.78a.39.39,0,0,0,.7.3c3.07-4.69,5.06-10.24,7.63-15.22S237.71,218.63,240.56,213.87Z" transform="translate(-40.54 -13.44)" style="fill:#4c4c4c"/><path d="M243.17,216.82c-2.69,5.25-6,10.12-8.79,15.3-1.78,3.3-4.65,7.31-4.9,11.12,0,.46.61.48.75.1,3.45-9.21,9.33-17.31,13.68-26.09C244.15,216.76,243.42,216.33,243.17,216.82Z" transform="translate(-40.54 -13.44)" style="fill:#4c4c4c"/><path d="M252.31,215.8c-1.78,7.34-7.5,12.49-11.36,18.72-1.63,2.64-4,4.84-5.44,7.54-.87,1.6-1.28,3.33-2.24,4.87-.74,1.18-1.28,1.61-1.53,3a.42.42,0,0,0,.8.22c.51-1.61,2.24-3,3-4.57.91-1.79,1.4-3.47,2.71-5.08,2-2.39,3.34-4.93,5.06-7.5,3.69-5.49,8.34-10.36,9.66-17C253.08,215.55,252.42,215.35,252.31,215.8Z" transform="translate(-40.54 -13.44)" style="fill:#4c4c4c"/><path d="M149.28,222.92a28.3,28.3,0,0,1,4.4-4.43c0,.17.07.34.11.51.44,1.86,1.11,3.68,1.72,5.51a3,3,0,0,1-1.13,1.17c-.46.23-.26,1.08.27,1a2.85,2.85,0,0,0,1.43-.47,18.65,18.65,0,0,0,2.3,4.18,11.6,11.6,0,0,1-1.59,1.2.29.29,0,0,0,.22.52,7,7,0,0,0,1.87-.88l.3.55c.58,1.12,2,.27,1.87-.78-.07-.49-.17-1-.29-1.48.17-.2.35-.39.52-.61,2-2.65,3.84-5.35,6-7.95,2-2.41,3.45-5.13,5.23-7.66,2.07-3,4.64-5.49,6.61-8.52.4-.62-.59-1.2-1-.58-1.73,2.65-3.94,4.89-5.82,7.41s-3.28,5.13-5.12,7.56c-1.46,1.95-3.21,3.6-4.55,5.63-.78,1.18-1.47,2.31-2.24,3.36a54.33,54.33,0,0,0-2.18-5.24,5.55,5.55,0,0,1,.91-1.28c1-1,2.2-1.74,3.22-2.67a68.27,68.27,0,0,0,12.21-15.33.57.57,0,0,0-1-.58,69.45,69.45,0,0,1-11.13,14c-1.55,1.47-3.48,2.65-4.95,4.2-.28-.67-.55-1.33-.77-2-.34-1-.62-2-.87-3,1.61-1.72,3.17-3.47,4.66-5.32,3.51-4.34,7-8.74,10.37-13.19.19-.25-.24-.59-.44-.34-4.13,5.17-8.4,10.19-12.82,15.11-.69.77-1.4,1.52-2.12,2.27-.56-2.62-.93-5.28-1.31-7.93,2.92-2.37,4.61-5.89,6.73-8.93.47-.67-.62-1.29-1.08-.64-1.93,2.77-3.54,5.76-5.84,8.23-.13-.86-.26-1.72-.41-2.59a.35.35,0,0,0-.66,0,37.11,37.11,0,0,0,.47,14.06L151.5,219c-1.19,1.23-2.32,2-2.91,3.67C148.43,223.06,149.06,223.26,149.28,222.92Z" transform="translate(-40.54 -13.44)" style="fill:#4c4c4c"/><path d="M295.27,343.79c.36-.57-.54-1.09-.9-.53-1.87,3-4.53,5-6.91,7.53-2.1,2.24-3.61,4.94-5.42,7.4-.2.27.22.58.45.35,2.44-2.5,4.18-5.56,6.69-8C291.38,348.36,293.61,346.42,295.27,343.79Z" transform="translate(-40.54 -13.44)" style="fill:#4c4c4c"/><path d="M286.2,337.45c-3.93,6-6.76,12.65-11.12,18.4-.3.39.34.85.67.51,5.09-5.21,7.76-12.15,11.74-18.15C288,337.4,286.72,336.65,286.2,337.45Z" transform="translate(-40.54 -13.44)" style="fill:#4c4c4c"/></svg>